%TF.GenerationSoftware,KiCad,Pcbnew,7.0.6*%
%TF.CreationDate,2024-04-30T21:30:12+02:00*%
%TF.ProjectId,F_Board_V1.1,465f426f-6172-4645-9f56-312e312e6b69,rev?*%
%TF.SameCoordinates,Original*%
%TF.FileFunction,Copper,L1,Top*%
%TF.FilePolarity,Positive*%
%FSLAX46Y46*%
G04 Gerber Fmt 4.6, Leading zero omitted, Abs format (unit mm)*
G04 Created by KiCad (PCBNEW 7.0.6) date 2024-04-30 21:30:12*
%MOMM*%
%LPD*%
G01*
G04 APERTURE LIST*
G04 Aperture macros list*
%AMRoundRect*
0 Rectangle with rounded corners*
0 $1 Rounding radius*
0 $2 $3 $4 $5 $6 $7 $8 $9 X,Y pos of 4 corners*
0 Add a 4 corners polygon primitive as box body*
4,1,4,$2,$3,$4,$5,$6,$7,$8,$9,$2,$3,0*
0 Add four circle primitives for the rounded corners*
1,1,$1+$1,$2,$3*
1,1,$1+$1,$4,$5*
1,1,$1+$1,$6,$7*
1,1,$1+$1,$8,$9*
0 Add four rect primitives between the rounded corners*
20,1,$1+$1,$2,$3,$4,$5,0*
20,1,$1+$1,$4,$5,$6,$7,0*
20,1,$1+$1,$6,$7,$8,$9,0*
20,1,$1+$1,$8,$9,$2,$3,0*%
G04 Aperture macros list end*
%TA.AperFunction,SMDPad,CuDef*%
%ADD10RoundRect,0.250000X-0.475000X0.250000X-0.475000X-0.250000X0.475000X-0.250000X0.475000X0.250000X0*%
%TD*%
%TA.AperFunction,SMDPad,CuDef*%
%ADD11RoundRect,0.250000X-0.262500X-0.450000X0.262500X-0.450000X0.262500X0.450000X-0.262500X0.450000X0*%
%TD*%
%TA.AperFunction,ComponentPad*%
%ADD12R,1.700000X1.700000*%
%TD*%
%TA.AperFunction,ComponentPad*%
%ADD13C,1.700000*%
%TD*%
%TA.AperFunction,SMDPad,CuDef*%
%ADD14RoundRect,0.250000X-0.450000X-0.425000X0.450000X-0.425000X0.450000X0.425000X-0.450000X0.425000X0*%
%TD*%
%TA.AperFunction,SMDPad,CuDef*%
%ADD15RoundRect,0.150000X0.150000X-0.825000X0.150000X0.825000X-0.150000X0.825000X-0.150000X-0.825000X0*%
%TD*%
%TA.AperFunction,SMDPad,CuDef*%
%ADD16RoundRect,0.250000X0.262500X0.450000X-0.262500X0.450000X-0.262500X-0.450000X0.262500X-0.450000X0*%
%TD*%
%TA.AperFunction,ComponentPad*%
%ADD17C,1.500000*%
%TD*%
%TA.AperFunction,SMDPad,CuDef*%
%ADD18R,2.000000X1.500000*%
%TD*%
%TA.AperFunction,SMDPad,CuDef*%
%ADD19R,2.000000X3.800000*%
%TD*%
%TA.AperFunction,SMDPad,CuDef*%
%ADD20RoundRect,0.243750X-0.243750X-0.456250X0.243750X-0.456250X0.243750X0.456250X-0.243750X0.456250X0*%
%TD*%
%TA.AperFunction,ComponentPad*%
%ADD21R,0.930000X0.930000*%
%TD*%
%TA.AperFunction,ComponentPad*%
%ADD22C,0.930000*%
%TD*%
%TA.AperFunction,ComponentPad*%
%ADD23O,4.150000X2.075000*%
%TD*%
%TA.AperFunction,SMDPad,CuDef*%
%ADD24RoundRect,0.250000X0.250000X0.475000X-0.250000X0.475000X-0.250000X-0.475000X0.250000X-0.475000X0*%
%TD*%
%TA.AperFunction,SMDPad,CuDef*%
%ADD25RoundRect,0.250000X-0.450000X0.262500X-0.450000X-0.262500X0.450000X-0.262500X0.450000X0.262500X0*%
%TD*%
%TA.AperFunction,SMDPad,CuDef*%
%ADD26RoundRect,0.243750X0.243750X0.456250X-0.243750X0.456250X-0.243750X-0.456250X0.243750X-0.456250X0*%
%TD*%
%TA.AperFunction,SMDPad,CuDef*%
%ADD27RoundRect,0.250000X0.450000X0.425000X-0.450000X0.425000X-0.450000X-0.425000X0.450000X-0.425000X0*%
%TD*%
%TA.AperFunction,ComponentPad*%
%ADD28O,1.700000X1.700000*%
%TD*%
%TA.AperFunction,ViaPad*%
%ADD29C,0.800000*%
%TD*%
%TA.AperFunction,Conductor*%
%ADD30C,0.250000*%
%TD*%
%TA.AperFunction,Conductor*%
%ADD31C,0.500000*%
%TD*%
%TA.AperFunction,Conductor*%
%ADD32C,2.000000*%
%TD*%
G04 APERTURE END LIST*
D10*
%TO.P,C2,1*%
%TO.N,Net-(U1-XO)*%
X178800000Y-93650000D03*
%TO.P,C2,2*%
%TO.N,/GND*%
X178800000Y-95550000D03*
%TD*%
D11*
%TO.P,R7,1*%
%TO.N,/GND*%
X172987500Y-82200000D03*
%TO.P,R7,2*%
%TO.N,Net-(J2-PadB5)*%
X174812500Y-82200000D03*
%TD*%
D10*
%TO.P,C3,1*%
%TO.N,Net-(U1-V3)*%
X172200000Y-93650000D03*
%TO.P,C3,2*%
%TO.N,/GND*%
X172200000Y-95550000D03*
%TD*%
D12*
%TO.P,SW2,1,1*%
%TO.N,/GND*%
X151250000Y-100950000D03*
D13*
X151250000Y-94450000D03*
%TO.P,SW2,2,2*%
%TO.N,Net-(J1-Pin_6)*%
X155750000Y-100950000D03*
X155750000Y-94450000D03*
%TD*%
D14*
%TO.P,C4,1*%
%TO.N,/+5V*%
X163350000Y-82100000D03*
%TO.P,C4,2*%
%TO.N,/GND*%
X166050000Y-82100000D03*
%TD*%
D12*
%TO.P,SW1,1,1*%
%TO.N,/GND*%
X164150000Y-94450000D03*
D13*
X164150000Y-100950000D03*
%TO.P,SW1,2,2*%
%TO.N,Net-(J1-Pin_5)*%
X159650000Y-94450000D03*
X159650000Y-100950000D03*
%TD*%
D15*
%TO.P,U1,1,GND*%
%TO.N,/GND*%
X169655000Y-90575000D03*
%TO.P,U1,2,TXD*%
%TO.N,Net-(U1-TXD)*%
X170925000Y-90575000D03*
%TO.P,U1,3,RXD*%
%TO.N,Net-(U1-RXD)*%
X172195000Y-90575000D03*
%TO.P,U1,4,V3*%
%TO.N,Net-(U1-V3)*%
X173465000Y-90575000D03*
%TO.P,U1,5,UD+*%
%TO.N,Net-(U1-UD+)*%
X174735000Y-90575000D03*
%TO.P,U1,6,UD-*%
%TO.N,Net-(U1-UD-)*%
X176005000Y-90575000D03*
%TO.P,U1,7,XI*%
%TO.N,Net-(U1-XI)*%
X177275000Y-90575000D03*
%TO.P,U1,8,XO*%
%TO.N,Net-(U1-XO)*%
X178545000Y-90575000D03*
%TO.P,U1,9,~{CTS}*%
%TO.N,unconnected-(U1-~{CTS}-Pad9)*%
X178545000Y-85625000D03*
%TO.P,U1,10,~{DSR}*%
%TO.N,unconnected-(U1-~{DSR}-Pad10)*%
X177275000Y-85625000D03*
%TO.P,U1,11,~{RI}*%
%TO.N,unconnected-(U1-~{RI}-Pad11)*%
X176005000Y-85625000D03*
%TO.P,U1,12,~{DCD}*%
%TO.N,unconnected-(U1-~{DCD}-Pad12)*%
X174735000Y-85625000D03*
%TO.P,U1,13,~{DTR}*%
%TO.N,unconnected-(U1-~{DTR}-Pad13)*%
X173465000Y-85625000D03*
%TO.P,U1,14,~{RTS}*%
%TO.N,unconnected-(U1-~{RTS}-Pad14)*%
X172195000Y-85625000D03*
%TO.P,U1,15,R232*%
%TO.N,unconnected-(U1-R232-Pad15)*%
X170925000Y-85625000D03*
%TO.P,U1,16,VCC*%
%TO.N,/+5V*%
X169655000Y-85625000D03*
%TD*%
D16*
%TO.P,R1,1*%
%TO.N,Net-(U1-TXD)*%
X161312500Y-90500000D03*
%TO.P,R1,2*%
%TO.N,Net-(D2-K)*%
X159487500Y-90500000D03*
%TD*%
D17*
%TO.P,Y1,1,1*%
%TO.N,Net-(U1-XI)*%
X171120000Y-99800000D03*
%TO.P,Y1,2,2*%
%TO.N,Net-(U1-XO)*%
X176000000Y-99800000D03*
%TD*%
D11*
%TO.P,R6,1*%
%TO.N,/GND*%
X168687500Y-82200000D03*
%TO.P,R6,2*%
%TO.N,Net-(J2-PadA5)*%
X170512500Y-82200000D03*
%TD*%
D10*
%TO.P,C6,1*%
%TO.N,/3V3*%
X150500000Y-84100000D03*
%TO.P,C6,2*%
%TO.N,/GND*%
X150500000Y-86000000D03*
%TD*%
D18*
%TO.P,U2,1,GND*%
%TO.N,/GND*%
X159650000Y-86400000D03*
%TO.P,U2,2,VO*%
%TO.N,/3V3*%
X159650000Y-84100000D03*
D19*
X153350000Y-84100000D03*
D18*
%TO.P,U2,3,VI*%
%TO.N,/+5V*%
X159650000Y-81800000D03*
%TD*%
D10*
%TO.P,C1,1*%
%TO.N,Net-(U1-XI)*%
X175500000Y-93650000D03*
%TO.P,C1,2*%
%TO.N,/GND*%
X175500000Y-95550000D03*
%TD*%
D11*
%TO.P,R3,1*%
%TO.N,Net-(D1-A)*%
X148687500Y-90500000D03*
%TO.P,R3,2*%
%TO.N,/+5V*%
X150512500Y-90500000D03*
%TD*%
D20*
%TO.P,D1,1,K*%
%TO.N,Net-(D1-K)*%
X145962500Y-101100000D03*
%TO.P,D1,2,A*%
%TO.N,Net-(D1-A)*%
X147837500Y-101100000D03*
%TD*%
D21*
%TO.P,J2,A1,A1*%
%TO.N,/GND*%
X182832500Y-97444250D03*
D22*
%TO.P,J2,A2,A2*%
%TO.N,unconnected-(J2-PadA2)*%
X182832500Y-96344250D03*
%TO.P,J2,A3,A3*%
%TO.N,unconnected-(J2-PadA3)*%
X182832500Y-95244250D03*
%TO.P,J2,A4,A4*%
%TO.N,/+5V*%
X182832500Y-94144250D03*
%TO.P,J2,A5,A5*%
%TO.N,Net-(J2-PadA5)*%
X183632500Y-93394250D03*
%TO.P,J2,A6,A6*%
%TO.N,Net-(U1-UD+)*%
X182832500Y-92644250D03*
%TO.P,J2,A7,A7*%
%TO.N,Net-(U1-UD-)*%
X182832500Y-90794250D03*
%TO.P,J2,A8,A8*%
%TO.N,unconnected-(J2-PadA8)*%
X183632500Y-90044250D03*
%TO.P,J2,A9,A9*%
%TO.N,/+5V*%
X182832500Y-89294250D03*
%TO.P,J2,A10,A10*%
%TO.N,unconnected-(J2-PadA10)*%
X182832500Y-88194250D03*
%TO.P,J2,A11,A11*%
%TO.N,unconnected-(J2-PadA11)*%
X182832500Y-87094250D03*
%TO.P,J2,A12,A12*%
%TO.N,/GND*%
X182832500Y-85994250D03*
%TO.P,J2,B1,B1*%
%TO.N,Net-(J2-GND-PadG1)*%
X185482500Y-86369250D03*
%TO.P,J2,B2,B2*%
%TO.N,unconnected-(J2-PadB2)*%
X185482500Y-87469250D03*
%TO.P,J2,B3,B3*%
%TO.N,unconnected-(J2-PadB3)*%
X185482500Y-88569250D03*
%TO.P,J2,B4,B4*%
%TO.N,/+5V*%
X185482500Y-89669250D03*
%TO.P,J2,B5,B5*%
%TO.N,Net-(J2-PadB5)*%
X184682500Y-90419250D03*
%TO.P,J2,B6,B6*%
%TO.N,Net-(U1-UD+)*%
X185482500Y-91169250D03*
%TO.P,J2,B7,B7*%
%TO.N,Net-(U1-UD-)*%
X185482500Y-92269250D03*
%TO.P,J2,B8,B8*%
%TO.N,unconnected-(J2-PadB8)*%
X184682500Y-93019250D03*
%TO.P,J2,B9,B9*%
%TO.N,/+5V*%
X185482500Y-93769250D03*
%TO.P,J2,B10,B10*%
%TO.N,unconnected-(J2-PadB10)*%
X185482500Y-94869250D03*
%TO.P,J2,B11,B11*%
%TO.N,unconnected-(J2-PadB11)*%
X185482500Y-95969250D03*
%TO.P,J2,B12,B12*%
%TO.N,Net-(J2-GND-PadG1)*%
X185482500Y-97069250D03*
%TO.P,J2,G1,GND*%
X184157500Y-96669250D03*
%TO.P,J2,G2,GND*%
X184157500Y-95569250D03*
%TO.P,J2,G3,GND*%
X184157500Y-94469250D03*
%TO.P,J2,G4,GND*%
X184157500Y-88969250D03*
%TO.P,J2,G5,GND*%
X184157500Y-87869250D03*
%TO.P,J2,G6,GND*%
X184157500Y-86769250D03*
D23*
%TO.P,J2,S1,SHIELD*%
%TO.N,/GND*%
X184157500Y-100619250D03*
%TO.P,J2,S2,SHIELD*%
X184157500Y-82819250D03*
%TD*%
D24*
%TO.P,C7,1*%
%TO.N,/+5V*%
X179250000Y-82200000D03*
%TO.P,C7,2*%
%TO.N,/GND*%
X177350000Y-82200000D03*
%TD*%
D20*
%TO.P,D2,1,K*%
%TO.N,Net-(D2-K)*%
X141762500Y-101100000D03*
%TO.P,D2,2,A*%
%TO.N,Net-(D2-A)*%
X143637500Y-101100000D03*
%TD*%
D16*
%TO.P,R4,1*%
%TO.N,Net-(D2-A)*%
X155912500Y-90500000D03*
%TO.P,R4,2*%
%TO.N,/+5V*%
X154087500Y-90500000D03*
%TD*%
D25*
%TO.P,R2,1*%
%TO.N,Net-(U1-RXD)*%
X168900000Y-93687500D03*
%TO.P,R2,2*%
%TO.N,Net-(D1-K)*%
X168900000Y-95512500D03*
%TD*%
D26*
%TO.P,D3,1,K*%
%TO.N,/GND*%
X165337500Y-86400000D03*
%TO.P,D3,2,A*%
%TO.N,Net-(D3-A)*%
X163462500Y-86400000D03*
%TD*%
D27*
%TO.P,C5,1*%
%TO.N,/3V3*%
X150500000Y-82100000D03*
%TO.P,C5,2*%
%TO.N,/GND*%
X147800000Y-82100000D03*
%TD*%
D11*
%TO.P,R5,1*%
%TO.N,Net-(D3-A)*%
X164687500Y-90500000D03*
%TO.P,R5,2*%
%TO.N,/+5V*%
X166512500Y-90500000D03*
%TD*%
D12*
%TO.P,J1,1,Pin_1*%
%TO.N,/3V3*%
X144875000Y-97150000D03*
D28*
%TO.P,J1,2,Pin_2*%
%TO.N,/GND*%
X144875000Y-94610000D03*
%TO.P,J1,3,Pin_3*%
%TO.N,Net-(D2-K)*%
X144875000Y-92070000D03*
%TO.P,J1,4,Pin_4*%
%TO.N,Net-(D1-K)*%
X144875000Y-89530000D03*
%TO.P,J1,5,Pin_5*%
%TO.N,Net-(J1-Pin_5)*%
X144875000Y-86990000D03*
%TO.P,J1,6,Pin_6*%
%TO.N,Net-(J1-Pin_6)*%
X144875000Y-84450000D03*
%TD*%
D29*
%TO.N,/GND*%
X163100000Y-84800000D03*
X168300000Y-90700000D03*
X150600000Y-96000000D03*
X166900000Y-94000000D03*
X167600000Y-86500000D03*
%TO.N,/+5V*%
X152600000Y-90500000D03*
X161600000Y-82100000D03*
%TO.N,Net-(D1-K)*%
X144800000Y-102500000D03*
%TO.N,Net-(D2-K)*%
X149600000Y-92000000D03*
%TO.N,Net-(J1-Pin_6)*%
X153100000Y-93300000D03*
%TO.N,Net-(J2-PadA5)*%
X170600000Y-83800000D03*
%TO.N,Net-(U1-UD+)*%
X174700000Y-92200000D03*
%TO.N,Net-(U1-UD-)*%
X176000000Y-89000000D03*
%TO.N,Net-(J2-PadB5)*%
X180300000Y-88000000D03*
X174900000Y-83700000D03*
%TD*%
D30*
%TO.N,Net-(U1-XI)*%
X172600000Y-99800000D02*
X174100000Y-98300000D01*
X171150000Y-99800000D02*
X172600000Y-99800000D01*
X174850000Y-93650000D02*
X175500000Y-93650000D01*
X175500000Y-93650000D02*
X177275000Y-91875000D01*
X177275000Y-91875000D02*
X177275000Y-90575000D01*
X174100000Y-94400000D02*
X174850000Y-93650000D01*
X174100000Y-98300000D02*
X174100000Y-94400000D01*
%TO.N,Net-(U1-XO)*%
X178800000Y-93650000D02*
X178800000Y-90830000D01*
X177800000Y-99800000D02*
X180100000Y-97500000D01*
X176200000Y-99800000D02*
X177800000Y-99800000D01*
X180100000Y-97500000D02*
X180100000Y-94300000D01*
X180100000Y-94300000D02*
X179450000Y-93650000D01*
X178800000Y-90830000D02*
X178545000Y-90575000D01*
X179450000Y-93650000D02*
X178800000Y-93650000D01*
%TO.N,Net-(U1-V3)*%
X173465000Y-92385000D02*
X172200000Y-93650000D01*
X173465000Y-90575000D02*
X173465000Y-92385000D01*
D31*
%TO.N,/+5V*%
X182094250Y-89294250D02*
X182815271Y-89294250D01*
X164000000Y-84000000D02*
X163400000Y-83400000D01*
X152600000Y-90500000D02*
X150512500Y-90500000D01*
X180800000Y-84900000D02*
X185800000Y-84900000D01*
X179200000Y-88500000D02*
X179200000Y-87900000D01*
X168525000Y-85625000D02*
X166900000Y-84000000D01*
X181600000Y-87800000D02*
X180900000Y-87100000D01*
X180800000Y-82800000D02*
X180300000Y-82300000D01*
X179200000Y-87100000D02*
X180900000Y-87100000D01*
D30*
X182815271Y-89294250D02*
X182832500Y-89294250D01*
D31*
X160000000Y-81800000D02*
X159650000Y-81800000D01*
X180800000Y-84900000D02*
X180800000Y-82800000D01*
X180800000Y-84900000D02*
X180800000Y-87000000D01*
X163350000Y-82100000D02*
X161600000Y-82100000D01*
X181600000Y-88800000D02*
X181600000Y-87800000D01*
X169655000Y-87855000D02*
X169655000Y-85625000D01*
X187500000Y-91751750D02*
X187500000Y-89100000D01*
D30*
X159950000Y-82100000D02*
X159650000Y-81800000D01*
D31*
X163400000Y-82150000D02*
X163350000Y-82100000D01*
X187500000Y-86600000D02*
X187500000Y-89100000D01*
X163400000Y-83400000D02*
X163400000Y-82150000D01*
X161600000Y-82100000D02*
X159950000Y-82100000D01*
X179600000Y-88900000D02*
X179200000Y-88500000D01*
X180000000Y-92400000D02*
X180000000Y-90600000D01*
X170700000Y-87900000D02*
X179200000Y-87900000D01*
X180000000Y-90600000D02*
X179600000Y-90200000D01*
X180300000Y-82300000D02*
X179250000Y-82300000D01*
X185800000Y-84900000D02*
X187500000Y-86600000D01*
X187030750Y-89669250D02*
X185482500Y-89669250D01*
X154087500Y-90500000D02*
X152600000Y-90500000D01*
X170700000Y-87900000D02*
X169112500Y-87900000D01*
X169112500Y-87900000D02*
X166512500Y-90500000D01*
X179600000Y-90200000D02*
X179600000Y-88900000D01*
D30*
X187500000Y-89100000D02*
X187500000Y-89200000D01*
D31*
X181744250Y-94144250D02*
X180000000Y-92400000D01*
X185482500Y-93769250D02*
X187500000Y-91751750D01*
X179200000Y-87900000D02*
X179200000Y-87100000D01*
X187500000Y-89200000D02*
X187030750Y-89669250D01*
X166900000Y-84000000D02*
X164000000Y-84000000D01*
D30*
X180800000Y-87000000D02*
X180900000Y-87100000D01*
D31*
X181600000Y-88800000D02*
X182094250Y-89294250D01*
X169655000Y-85625000D02*
X168525000Y-85625000D01*
X182832500Y-94144250D02*
X181744250Y-94144250D01*
%TO.N,/3V3*%
X153350000Y-84100000D02*
X150900000Y-84100000D01*
X150900000Y-84100000D02*
X146800000Y-84100000D01*
X142900000Y-81800000D02*
X142200000Y-82500000D01*
X150500000Y-84100000D02*
X150500000Y-82100000D01*
X146800000Y-84100000D02*
X144500000Y-81800000D01*
X142850000Y-97150000D02*
X144875000Y-97150000D01*
X144500000Y-81800000D02*
X142900000Y-81800000D01*
X142200000Y-82500000D02*
X142200000Y-96500000D01*
X142200000Y-96500000D02*
X142850000Y-97150000D01*
D32*
X159650000Y-84100000D02*
X153350000Y-84100000D01*
D30*
%TO.N,Net-(D1-K)*%
X168812500Y-95600000D02*
X168900000Y-95512500D01*
X145700000Y-101100000D02*
X145962500Y-101100000D01*
X166900000Y-102500000D02*
X166900000Y-96200000D01*
X167500000Y-95600000D02*
X168812500Y-95600000D01*
X145400000Y-103100000D02*
X166300000Y-103100000D01*
X144800000Y-102000000D02*
X145700000Y-101100000D01*
X166900000Y-96200000D02*
X167500000Y-95600000D01*
X166300000Y-103100000D02*
X166900000Y-102500000D01*
X144800000Y-102500000D02*
X144800000Y-102000000D01*
X144800000Y-102500000D02*
X145400000Y-103100000D01*
%TO.N,Net-(D1-A)*%
X148687500Y-100712500D02*
X148300000Y-101100000D01*
X148687500Y-90500000D02*
X148687500Y-100712500D01*
X148300000Y-101100000D02*
X147837500Y-101100000D01*
%TO.N,Net-(D2-K)*%
X146600000Y-93795000D02*
X146600000Y-98600000D01*
X146600000Y-98600000D02*
X146200000Y-99000000D01*
X144875000Y-92070000D02*
X146600000Y-93795000D01*
X143862500Y-99000000D02*
X141762500Y-101100000D01*
X157987500Y-92050000D02*
X149600000Y-92050000D01*
X159487500Y-90500000D02*
X157987500Y-92000000D01*
X146200000Y-99000000D02*
X143862500Y-99000000D01*
%TO.N,Net-(D2-A)*%
X147300000Y-99300000D02*
X146800000Y-99800000D01*
X146800000Y-99800000D02*
X144937500Y-99800000D01*
X155100000Y-89100000D02*
X148000000Y-89100000D01*
X148000000Y-89100000D02*
X147300000Y-89800000D01*
X144937500Y-99800000D02*
X143637500Y-101100000D01*
X155912500Y-90500000D02*
X155912500Y-89912500D01*
X155912500Y-89912500D02*
X155100000Y-89100000D01*
X147300000Y-89800000D02*
X147300000Y-99300000D01*
%TO.N,Net-(D3-A)*%
X163400000Y-90000000D02*
X163400000Y-86462500D01*
X163900000Y-90500000D02*
X163400000Y-90000000D01*
X163400000Y-86462500D02*
X163462500Y-86400000D01*
X164687500Y-90500000D02*
X163900000Y-90500000D01*
%TO.N,Net-(J1-Pin_5)*%
X159650000Y-94450000D02*
X159650000Y-100950000D01*
X160400000Y-93700000D02*
X159650000Y-94450000D01*
X146290000Y-86990000D02*
X147600000Y-88300000D01*
X147600000Y-88300000D02*
X158963173Y-88300000D01*
X158963173Y-88300000D02*
X160400000Y-89736827D01*
X144875000Y-86990000D02*
X146290000Y-86990000D01*
X160400000Y-89736827D02*
X160400000Y-93700000D01*
%TO.N,Net-(J1-Pin_6)*%
X153100000Y-93300000D02*
X154250000Y-94450000D01*
X154250000Y-94450000D02*
X155750000Y-94450000D01*
X155750000Y-94450000D02*
X155750000Y-100950000D01*
%TO.N,Net-(J2-PadA5)*%
X170600000Y-83800000D02*
X170600000Y-82287500D01*
X170600000Y-82287500D02*
X170512500Y-82200000D01*
%TO.N,Net-(U1-UD+)*%
X185049729Y-91169250D02*
X184039729Y-92179250D01*
X184039729Y-92179250D02*
X183297500Y-92179250D01*
X183297500Y-92179250D02*
X182832500Y-92644250D01*
X185482500Y-91169250D02*
X185049729Y-91169250D01*
X174700000Y-90610000D02*
X174735000Y-90575000D01*
X174700000Y-92200000D02*
X174700000Y-90610000D01*
%TO.N,Net-(U1-UD-)*%
X176005000Y-89005000D02*
X176000000Y-89000000D01*
X176005000Y-90575000D02*
X176005000Y-89005000D01*
%TO.N,Net-(J2-PadB5)*%
X180300000Y-89400000D02*
X180300000Y-88000000D01*
X182484250Y-91584250D02*
X180300000Y-89400000D01*
X184682500Y-90419250D02*
X183517500Y-91584250D01*
X183517500Y-91584250D02*
X182484250Y-91584250D01*
X174900000Y-83700000D02*
X174900000Y-82287500D01*
X174900000Y-82287500D02*
X174812500Y-82200000D01*
%TO.N,Net-(U1-TXD)*%
X163012500Y-92200000D02*
X170400000Y-92200000D01*
X161312500Y-90500000D02*
X163012500Y-92200000D01*
X170400000Y-92200000D02*
X170925000Y-91675000D01*
X170925000Y-91675000D02*
X170925000Y-90575000D01*
%TO.N,Net-(U1-RXD)*%
X172195000Y-91605000D02*
X172195000Y-90575000D01*
X170112500Y-93687500D02*
X172195000Y-91605000D01*
X168900000Y-93687500D02*
X170112500Y-93687500D01*
%TO.N,Net-(J2-GND-PadG1)*%
X185482500Y-97069250D02*
X184557500Y-97069250D01*
X184157500Y-86769250D02*
X184157500Y-88969250D01*
X184557500Y-86369250D02*
X184157500Y-86769250D01*
X184557500Y-97069250D02*
X184157500Y-96669250D01*
X185482500Y-86369250D02*
X184557500Y-86369250D01*
X184157500Y-96669250D02*
X184157500Y-94469250D01*
%TD*%
%TA.AperFunction,Conductor*%
%TO.N,/GND*%
G36*
X191142539Y-79620185D02*
G01*
X191188294Y-79672989D01*
X191199500Y-79724500D01*
X191199500Y-82020250D01*
X191179815Y-82087289D01*
X191127011Y-82133044D01*
X191075500Y-82144250D01*
X186654931Y-82144250D01*
X186587892Y-82124565D01*
X186542903Y-82073408D01*
X186530845Y-82047997D01*
X186389829Y-81843701D01*
X186389828Y-81843700D01*
X186217866Y-81664670D01*
X186019420Y-81515546D01*
X186019409Y-81515540D01*
X185799611Y-81400180D01*
X185799607Y-81400179D01*
X185564145Y-81321569D01*
X185319123Y-81281750D01*
X184407500Y-81281750D01*
X184407500Y-82020250D01*
X184387815Y-82087289D01*
X184335011Y-82133044D01*
X184283500Y-82144250D01*
X184031500Y-82144250D01*
X183964461Y-82124565D01*
X183918706Y-82071761D01*
X183907500Y-82020250D01*
X183907500Y-81281750D01*
X183058038Y-81281750D01*
X182872565Y-81296722D01*
X182631541Y-81356130D01*
X182403167Y-81453431D01*
X182193353Y-81586109D01*
X182007542Y-81750721D01*
X181850544Y-81943011D01*
X181850539Y-81943018D01*
X181770155Y-82082250D01*
X181719588Y-82130465D01*
X181662768Y-82144250D01*
X181657500Y-82144250D01*
X181657500Y-82317010D01*
X181649438Y-82360992D01*
X181647938Y-82364946D01*
X181605754Y-82420645D01*
X181540154Y-82444696D01*
X181471966Y-82429462D01*
X181426462Y-82386061D01*
X181392714Y-82331348D01*
X181388234Y-82325682D01*
X181388281Y-82325644D01*
X181383519Y-82319799D01*
X181383474Y-82319838D01*
X181378834Y-82314309D01*
X181378832Y-82314307D01*
X181378830Y-82314304D01*
X181348061Y-82285275D01*
X181322966Y-82261598D01*
X180875729Y-81814361D01*
X180863949Y-81800730D01*
X180856482Y-81790701D01*
X180849612Y-81781472D01*
X180849610Y-81781470D01*
X180809587Y-81747886D01*
X180805612Y-81744244D01*
X180802690Y-81741322D01*
X180799780Y-81738411D01*
X180774040Y-81718059D01*
X180722740Y-81675013D01*
X180715214Y-81668698D01*
X180715213Y-81668697D01*
X180715209Y-81668694D01*
X180709180Y-81664729D01*
X180709212Y-81664680D01*
X180702853Y-81660628D01*
X180702822Y-81660679D01*
X180696680Y-81656891D01*
X180696678Y-81656890D01*
X180696677Y-81656889D01*
X180657474Y-81638608D01*
X180627058Y-81624424D01*
X180572849Y-81597200D01*
X180558433Y-81589960D01*
X180558431Y-81589959D01*
X180558430Y-81589959D01*
X180551645Y-81587489D01*
X180551665Y-81587433D01*
X180544549Y-81584959D01*
X180544531Y-81585015D01*
X180537671Y-81582742D01*
X180509841Y-81576996D01*
X180462434Y-81567207D01*
X180413472Y-81555603D01*
X180387719Y-81549499D01*
X180380547Y-81548661D01*
X180380553Y-81548601D01*
X180373055Y-81547835D01*
X180373050Y-81547895D01*
X180365859Y-81547265D01*
X180325289Y-81548446D01*
X180257706Y-81530719D01*
X180210435Y-81479267D01*
X180203981Y-81463509D01*
X180184814Y-81405666D01*
X180092712Y-81256344D01*
X179968656Y-81132288D01*
X179859864Y-81065185D01*
X179819336Y-81040187D01*
X179819331Y-81040185D01*
X179817862Y-81039698D01*
X179652797Y-80985001D01*
X179652795Y-80985000D01*
X179550010Y-80974500D01*
X178949998Y-80974500D01*
X178949980Y-80974501D01*
X178847203Y-80985000D01*
X178847200Y-80985001D01*
X178680668Y-81040185D01*
X178680663Y-81040187D01*
X178531342Y-81132289D01*
X178407288Y-81256343D01*
X178407283Y-81256349D01*
X178405241Y-81259661D01*
X178403247Y-81261453D01*
X178402807Y-81262011D01*
X178402711Y-81261935D01*
X178353291Y-81306383D01*
X178284328Y-81317602D01*
X178220247Y-81289755D01*
X178194168Y-81259656D01*
X178192319Y-81256659D01*
X178192316Y-81256655D01*
X178068345Y-81132684D01*
X177919124Y-81040643D01*
X177919119Y-81040641D01*
X177752697Y-80985494D01*
X177752690Y-80985493D01*
X177649986Y-80975000D01*
X177600000Y-80975000D01*
X177600000Y-83424999D01*
X177649972Y-83424999D01*
X177649986Y-83424998D01*
X177752697Y-83414505D01*
X177919119Y-83359358D01*
X177919124Y-83359356D01*
X178068345Y-83267315D01*
X178192318Y-83143342D01*
X178194165Y-83140348D01*
X178195969Y-83138724D01*
X178196798Y-83137677D01*
X178196976Y-83137818D01*
X178246110Y-83093621D01*
X178315073Y-83082396D01*
X178379156Y-83110236D01*
X178405243Y-83140341D01*
X178407288Y-83143656D01*
X178531344Y-83267712D01*
X178680666Y-83359814D01*
X178847203Y-83414999D01*
X178949991Y-83425500D01*
X179550008Y-83425499D01*
X179550016Y-83425498D01*
X179550019Y-83425498D01*
X179622841Y-83418059D01*
X179652797Y-83414999D01*
X179819334Y-83359814D01*
X179860404Y-83334481D01*
X179927796Y-83316042D01*
X179994459Y-83336965D01*
X180039229Y-83390607D01*
X180049500Y-83440021D01*
X180049500Y-84876358D01*
X180049395Y-84879963D01*
X180045669Y-84943934D01*
X180045669Y-84943935D01*
X180047616Y-84954977D01*
X180049500Y-84976509D01*
X180049500Y-86225500D01*
X180029815Y-86292539D01*
X179977011Y-86338294D01*
X179925500Y-86349500D01*
X179469500Y-86349500D01*
X179402461Y-86329815D01*
X179356706Y-86277011D01*
X179345500Y-86225500D01*
X179345500Y-84734304D01*
X179342598Y-84697432D01*
X179342597Y-84697426D01*
X179296745Y-84539606D01*
X179296744Y-84539603D01*
X179296744Y-84539602D01*
X179213081Y-84398135D01*
X179213079Y-84398133D01*
X179213076Y-84398129D01*
X179096870Y-84281923D01*
X179096862Y-84281917D01*
X178995726Y-84222106D01*
X178955398Y-84198256D01*
X178955397Y-84198255D01*
X178955396Y-84198255D01*
X178955393Y-84198254D01*
X178797573Y-84152402D01*
X178797567Y-84152401D01*
X178760696Y-84149500D01*
X178760694Y-84149500D01*
X178329306Y-84149500D01*
X178329304Y-84149500D01*
X178292432Y-84152401D01*
X178292426Y-84152402D01*
X178134606Y-84198254D01*
X178134603Y-84198255D01*
X177993137Y-84281917D01*
X177986969Y-84286702D01*
X177985072Y-84284256D01*
X177936358Y-84310857D01*
X177866666Y-84305873D01*
X177834296Y-84285069D01*
X177833031Y-84286702D01*
X177826862Y-84281917D01*
X177725726Y-84222106D01*
X177685398Y-84198256D01*
X177685397Y-84198255D01*
X177685396Y-84198255D01*
X177685393Y-84198254D01*
X177527573Y-84152402D01*
X177527567Y-84152401D01*
X177490696Y-84149500D01*
X177490694Y-84149500D01*
X177059306Y-84149500D01*
X177059304Y-84149500D01*
X177022432Y-84152401D01*
X177022426Y-84152402D01*
X176864606Y-84198254D01*
X176864603Y-84198255D01*
X176723137Y-84281917D01*
X176716969Y-84286702D01*
X176715072Y-84284256D01*
X176666358Y-84310857D01*
X176596666Y-84305873D01*
X176564296Y-84285069D01*
X176563031Y-84286702D01*
X176556862Y-84281917D01*
X176455726Y-84222106D01*
X176415398Y-84198256D01*
X176415397Y-84198255D01*
X176415396Y-84198255D01*
X176415393Y-84198254D01*
X176257573Y-84152402D01*
X176257567Y-84152401D01*
X176220696Y-84149500D01*
X176220694Y-84149500D01*
X175871462Y-84149500D01*
X175804423Y-84129815D01*
X175758668Y-84077011D01*
X175748724Y-84007853D01*
X175753531Y-83987182D01*
X175758821Y-83970899D01*
X175785674Y-83888256D01*
X175805460Y-83700000D01*
X175785674Y-83511744D01*
X175728885Y-83336965D01*
X175727181Y-83331722D01*
X175727180Y-83331721D01*
X175727179Y-83331716D01*
X175671897Y-83235965D01*
X175655425Y-83168067D01*
X175673745Y-83108873D01*
X175759814Y-82969334D01*
X175814999Y-82802797D01*
X175825500Y-82700009D01*
X175825500Y-82450000D01*
X176350001Y-82450000D01*
X176350001Y-82724986D01*
X176360494Y-82827697D01*
X176415641Y-82994119D01*
X176415643Y-82994124D01*
X176507684Y-83143345D01*
X176631654Y-83267315D01*
X176780875Y-83359356D01*
X176780880Y-83359358D01*
X176947302Y-83414505D01*
X176947309Y-83414506D01*
X177050019Y-83424999D01*
X177099999Y-83424998D01*
X177100000Y-83424998D01*
X177100000Y-82450000D01*
X176350001Y-82450000D01*
X175825500Y-82450000D01*
X175825499Y-81950000D01*
X176350000Y-81950000D01*
X177100000Y-81950000D01*
X177100000Y-80975000D01*
X177099999Y-80974999D01*
X177050029Y-80975000D01*
X177050011Y-80975001D01*
X176947302Y-80985494D01*
X176780880Y-81040641D01*
X176780875Y-81040643D01*
X176631654Y-81132684D01*
X176507684Y-81256654D01*
X176415643Y-81405875D01*
X176415641Y-81405880D01*
X176360494Y-81572302D01*
X176360493Y-81572309D01*
X176350000Y-81675013D01*
X176350000Y-81950000D01*
X175825499Y-81950000D01*
X175825499Y-81699992D01*
X175822947Y-81675013D01*
X175814999Y-81597203D01*
X175814998Y-81597200D01*
X175811780Y-81587489D01*
X175759814Y-81430666D01*
X175667712Y-81281344D01*
X175543656Y-81157288D01*
X175422061Y-81082288D01*
X175394336Y-81065187D01*
X175394331Y-81065185D01*
X175378687Y-81060001D01*
X175227797Y-81010001D01*
X175227795Y-81010000D01*
X175125010Y-80999500D01*
X174499998Y-80999500D01*
X174499980Y-80999501D01*
X174397203Y-81010000D01*
X174397200Y-81010001D01*
X174230668Y-81065185D01*
X174230663Y-81065187D01*
X174081345Y-81157287D01*
X173987327Y-81251305D01*
X173926003Y-81284789D01*
X173856312Y-81279805D01*
X173811965Y-81251304D01*
X173718345Y-81157684D01*
X173569124Y-81065643D01*
X173569119Y-81065641D01*
X173402697Y-81010494D01*
X173402690Y-81010493D01*
X173299986Y-81000000D01*
X173237500Y-81000000D01*
X173237500Y-83399999D01*
X173299972Y-83399999D01*
X173299986Y-83399998D01*
X173402697Y-83389505D01*
X173569119Y-83334358D01*
X173569124Y-83334356D01*
X173718342Y-83242317D01*
X173811964Y-83148695D01*
X173873287Y-83115210D01*
X173942979Y-83120194D01*
X173987327Y-83148695D01*
X174043007Y-83204375D01*
X174076492Y-83265698D01*
X174073257Y-83330374D01*
X174015552Y-83507972D01*
X174014326Y-83511744D01*
X173994540Y-83700000D01*
X174014326Y-83888256D01*
X174014327Y-83888259D01*
X174070650Y-84061604D01*
X174072645Y-84131445D01*
X174036565Y-84191278D01*
X173973864Y-84222106D01*
X173904449Y-84214141D01*
X173889598Y-84206654D01*
X173875396Y-84198255D01*
X173875393Y-84198254D01*
X173717573Y-84152402D01*
X173717567Y-84152401D01*
X173680696Y-84149500D01*
X173680694Y-84149500D01*
X173249306Y-84149500D01*
X173249304Y-84149500D01*
X173212432Y-84152401D01*
X173212426Y-84152402D01*
X173054606Y-84198254D01*
X173054603Y-84198255D01*
X172913137Y-84281917D01*
X172906969Y-84286702D01*
X172905072Y-84284256D01*
X172856358Y-84310857D01*
X172786666Y-84305873D01*
X172754296Y-84285069D01*
X172753031Y-84286702D01*
X172746862Y-84281917D01*
X172645726Y-84222106D01*
X172605398Y-84198256D01*
X172605397Y-84198255D01*
X172605396Y-84198255D01*
X172605393Y-84198254D01*
X172447573Y-84152402D01*
X172447567Y-84152401D01*
X172410696Y-84149500D01*
X172410694Y-84149500D01*
X171979306Y-84149500D01*
X171979304Y-84149500D01*
X171942432Y-84152401D01*
X171942426Y-84152402D01*
X171784606Y-84198254D01*
X171784603Y-84198255D01*
X171643137Y-84281917D01*
X171636969Y-84286702D01*
X171635072Y-84284256D01*
X171586358Y-84310857D01*
X171516666Y-84305873D01*
X171484293Y-84285067D01*
X171483028Y-84286699D01*
X171476550Y-84281674D01*
X171474416Y-84278720D01*
X171472319Y-84277372D01*
X171471349Y-84276402D01*
X171472158Y-84275592D01*
X171435644Y-84225031D01*
X171431856Y-84155264D01*
X171434614Y-84145398D01*
X171485674Y-83988256D01*
X171505460Y-83800000D01*
X171485674Y-83611744D01*
X171427179Y-83431716D01*
X171352362Y-83302129D01*
X171338399Y-83277944D01*
X171321926Y-83210043D01*
X171344779Y-83144017D01*
X171358108Y-83128260D01*
X171367709Y-83118659D01*
X171367709Y-83118658D01*
X171367712Y-83118656D01*
X171459814Y-82969334D01*
X171514999Y-82802797D01*
X171525500Y-82700009D01*
X171525500Y-82450000D01*
X171975001Y-82450000D01*
X171975001Y-82699986D01*
X171985494Y-82802697D01*
X172040641Y-82969119D01*
X172040643Y-82969124D01*
X172132684Y-83118345D01*
X172256654Y-83242315D01*
X172405875Y-83334356D01*
X172405880Y-83334358D01*
X172572302Y-83389505D01*
X172572309Y-83389506D01*
X172675019Y-83399999D01*
X172737499Y-83399998D01*
X172737500Y-83399998D01*
X172737500Y-82450000D01*
X171975001Y-82450000D01*
X171525500Y-82450000D01*
X171525499Y-81950000D01*
X171975000Y-81950000D01*
X172737500Y-81950000D01*
X172737500Y-81000000D01*
X172737499Y-80999999D01*
X172675028Y-81000000D01*
X172675011Y-81000001D01*
X172572302Y-81010494D01*
X172405880Y-81065641D01*
X172405875Y-81065643D01*
X172256654Y-81157684D01*
X172132684Y-81281654D01*
X172040643Y-81430875D01*
X172040641Y-81430880D01*
X171985494Y-81597302D01*
X171985493Y-81597309D01*
X171975000Y-81700013D01*
X171975000Y-81950000D01*
X171525499Y-81950000D01*
X171525499Y-81699992D01*
X171522947Y-81675013D01*
X171514999Y-81597203D01*
X171514998Y-81597200D01*
X171511780Y-81587489D01*
X171459814Y-81430666D01*
X171367712Y-81281344D01*
X171243656Y-81157288D01*
X171122061Y-81082288D01*
X171094336Y-81065187D01*
X171094331Y-81065185D01*
X171078687Y-81060001D01*
X170927797Y-81010001D01*
X170927795Y-81010000D01*
X170825010Y-80999500D01*
X170199998Y-80999500D01*
X170199980Y-80999501D01*
X170097203Y-81010000D01*
X170097200Y-81010001D01*
X169930668Y-81065185D01*
X169930663Y-81065187D01*
X169781345Y-81157287D01*
X169687327Y-81251305D01*
X169626003Y-81284789D01*
X169556312Y-81279805D01*
X169511965Y-81251304D01*
X169418345Y-81157684D01*
X169269124Y-81065643D01*
X169269119Y-81065641D01*
X169102697Y-81010494D01*
X169102690Y-81010493D01*
X168999986Y-81000000D01*
X168937500Y-81000000D01*
X168937500Y-83399999D01*
X168999972Y-83399999D01*
X168999986Y-83399998D01*
X169102697Y-83389505D01*
X169269119Y-83334358D01*
X169269124Y-83334356D01*
X169418342Y-83242317D01*
X169511964Y-83148695D01*
X169573287Y-83115210D01*
X169642979Y-83120194D01*
X169687327Y-83148695D01*
X169777840Y-83239208D01*
X169811325Y-83300531D01*
X169806341Y-83370223D01*
X169797547Y-83388888D01*
X169772820Y-83431716D01*
X169721226Y-83590508D01*
X169714326Y-83611744D01*
X169694540Y-83800000D01*
X169714326Y-83988256D01*
X169714326Y-83988258D01*
X169714327Y-83988261D01*
X169715678Y-83994617D01*
X169714198Y-83994931D01*
X169715972Y-84057024D01*
X169679891Y-84116856D01*
X169617190Y-84147684D01*
X169596046Y-84149500D01*
X169439304Y-84149500D01*
X169402432Y-84152401D01*
X169402426Y-84152402D01*
X169244606Y-84198254D01*
X169244603Y-84198255D01*
X169103137Y-84281917D01*
X169103129Y-84281923D01*
X168986923Y-84398129D01*
X168986917Y-84398137D01*
X168903255Y-84539603D01*
X168903253Y-84539606D01*
X168871188Y-84649977D01*
X168833582Y-84708863D01*
X168770109Y-84738069D01*
X168700922Y-84728323D01*
X168664431Y-84703063D01*
X167475729Y-83514361D01*
X167463949Y-83500730D01*
X167456482Y-83490701D01*
X167449612Y-83481472D01*
X167449610Y-83481470D01*
X167409587Y-83447886D01*
X167405612Y-83444244D01*
X167401389Y-83440021D01*
X167399780Y-83438411D01*
X167374040Y-83418059D01*
X167315209Y-83368694D01*
X167309180Y-83364729D01*
X167309212Y-83364680D01*
X167302853Y-83360628D01*
X167302822Y-83360679D01*
X167296680Y-83356891D01*
X167296678Y-83356890D01*
X167296677Y-83356889D01*
X167248356Y-83334356D01*
X167227058Y-83324424D01*
X167186250Y-83303930D01*
X167158433Y-83289960D01*
X167158431Y-83289959D01*
X167158430Y-83289959D01*
X167151645Y-83287489D01*
X167151665Y-83287433D01*
X167144549Y-83284959D01*
X167144531Y-83285015D01*
X167137671Y-83282742D01*
X167085430Y-83271955D01*
X167023756Y-83239120D01*
X166989624Y-83178155D01*
X166993872Y-83108414D01*
X167022824Y-83062835D01*
X167092317Y-82993342D01*
X167184356Y-82844124D01*
X167184358Y-82844119D01*
X167239505Y-82677697D01*
X167239506Y-82677690D01*
X167249999Y-82574986D01*
X167250000Y-82574973D01*
X167250000Y-82450000D01*
X167675001Y-82450000D01*
X167675001Y-82699986D01*
X167685494Y-82802697D01*
X167740641Y-82969119D01*
X167740643Y-82969124D01*
X167832684Y-83118345D01*
X167956654Y-83242315D01*
X168105875Y-83334356D01*
X168105880Y-83334358D01*
X168272302Y-83389505D01*
X168272309Y-83389506D01*
X168375019Y-83399999D01*
X168437499Y-83399998D01*
X168437500Y-83399998D01*
X168437500Y-82450000D01*
X167675001Y-82450000D01*
X167250000Y-82450000D01*
X167250000Y-82350000D01*
X164850001Y-82350000D01*
X164850001Y-82574986D01*
X164860494Y-82677697D01*
X164915641Y-82844119D01*
X164915643Y-82844124D01*
X165007684Y-82993345D01*
X165052158Y-83037819D01*
X165085643Y-83099142D01*
X165080659Y-83168834D01*
X165038787Y-83224767D01*
X164973323Y-83249184D01*
X164964477Y-83249500D01*
X164436230Y-83249500D01*
X164369191Y-83229815D01*
X164323436Y-83177011D01*
X164313492Y-83107853D01*
X164342517Y-83044297D01*
X164348549Y-83037819D01*
X164357274Y-83029094D01*
X164392712Y-82993656D01*
X164484814Y-82844334D01*
X164539999Y-82677797D01*
X164550500Y-82575009D01*
X164550499Y-81950000D01*
X167675000Y-81950000D01*
X168437500Y-81950000D01*
X168437500Y-81000000D01*
X168437499Y-80999999D01*
X168375028Y-81000000D01*
X168375011Y-81000001D01*
X168272302Y-81010494D01*
X168105880Y-81065641D01*
X168105875Y-81065643D01*
X167956654Y-81157684D01*
X167832684Y-81281654D01*
X167740643Y-81430875D01*
X167740641Y-81430880D01*
X167685494Y-81597302D01*
X167685493Y-81597309D01*
X167675000Y-81700013D01*
X167675000Y-81950000D01*
X164550499Y-81950000D01*
X164550499Y-81850000D01*
X164850000Y-81850000D01*
X165800000Y-81850000D01*
X165800000Y-80925000D01*
X166300000Y-80925000D01*
X166300000Y-81850000D01*
X167249999Y-81850000D01*
X167249999Y-81625028D01*
X167249998Y-81625013D01*
X167239505Y-81522302D01*
X167184358Y-81355880D01*
X167184356Y-81355875D01*
X167092315Y-81206654D01*
X166968345Y-81082684D01*
X166819124Y-80990643D01*
X166819119Y-80990641D01*
X166652697Y-80935494D01*
X166652690Y-80935493D01*
X166549986Y-80925000D01*
X166300000Y-80925000D01*
X165800000Y-80925000D01*
X165550029Y-80925000D01*
X165550012Y-80925001D01*
X165447302Y-80935494D01*
X165280880Y-80990641D01*
X165280875Y-80990643D01*
X165131654Y-81082684D01*
X165007684Y-81206654D01*
X164915643Y-81355875D01*
X164915641Y-81355880D01*
X164860494Y-81522302D01*
X164860493Y-81522309D01*
X164850000Y-81625013D01*
X164850000Y-81850000D01*
X164550499Y-81850000D01*
X164550499Y-81624992D01*
X164547670Y-81597302D01*
X164539999Y-81522203D01*
X164539998Y-81522200D01*
X164509737Y-81430880D01*
X164484814Y-81355666D01*
X164392712Y-81206344D01*
X164268656Y-81082288D01*
X164152257Y-81010493D01*
X164119336Y-80990187D01*
X164119331Y-80990185D01*
X164117862Y-80989698D01*
X163952797Y-80935001D01*
X163952795Y-80935000D01*
X163850010Y-80924500D01*
X162849998Y-80924500D01*
X162849980Y-80924501D01*
X162747203Y-80935000D01*
X162747200Y-80935001D01*
X162580668Y-80990185D01*
X162580663Y-80990187D01*
X162431342Y-81082289D01*
X162307289Y-81206342D01*
X162301006Y-81216528D01*
X162260778Y-81281750D01*
X162255321Y-81290597D01*
X162203373Y-81337321D01*
X162149782Y-81349500D01*
X162139337Y-81349500D01*
X162072298Y-81329815D01*
X162066452Y-81325818D01*
X162052734Y-81315851D01*
X162052729Y-81315848D01*
X161879807Y-81238857D01*
X161879802Y-81238855D01*
X161726835Y-81206342D01*
X161694646Y-81199500D01*
X161505354Y-81199500D01*
X161473165Y-81206342D01*
X161320197Y-81238855D01*
X161314013Y-81240865D01*
X161313190Y-81238333D01*
X161255614Y-81246019D01*
X161192354Y-81216354D01*
X161155175Y-81157198D01*
X161150499Y-81123466D01*
X161150499Y-81002129D01*
X161150498Y-81002123D01*
X161150497Y-81002116D01*
X161144091Y-80942517D01*
X161141471Y-80935493D01*
X161093797Y-80807671D01*
X161093793Y-80807664D01*
X161007547Y-80692455D01*
X161007544Y-80692452D01*
X160892335Y-80606206D01*
X160892328Y-80606202D01*
X160757482Y-80555908D01*
X160757483Y-80555908D01*
X160697883Y-80549501D01*
X160697881Y-80549500D01*
X160697873Y-80549500D01*
X160697864Y-80549500D01*
X158602129Y-80549500D01*
X158602123Y-80549501D01*
X158542516Y-80555908D01*
X158407671Y-80606202D01*
X158407664Y-80606206D01*
X158292455Y-80692452D01*
X158292452Y-80692455D01*
X158206206Y-80807664D01*
X158206202Y-80807671D01*
X158155908Y-80942517D01*
X158149501Y-81002116D01*
X158149500Y-81002127D01*
X158149500Y-81781472D01*
X158149501Y-82475500D01*
X158129816Y-82542539D01*
X158077013Y-82588294D01*
X158025501Y-82599500D01*
X154974499Y-82599500D01*
X154907460Y-82579815D01*
X154861705Y-82527011D01*
X154850499Y-82475500D01*
X154850499Y-82152129D01*
X154850498Y-82152123D01*
X154848447Y-82133044D01*
X154844091Y-82092517D01*
X154819266Y-82025959D01*
X154793797Y-81957671D01*
X154793793Y-81957664D01*
X154707547Y-81842455D01*
X154707544Y-81842452D01*
X154592335Y-81756206D01*
X154592328Y-81756202D01*
X154457482Y-81705908D01*
X154457483Y-81705908D01*
X154397883Y-81699501D01*
X154397881Y-81699500D01*
X154397873Y-81699500D01*
X154397864Y-81699500D01*
X152302129Y-81699500D01*
X152302123Y-81699501D01*
X152242516Y-81705908D01*
X152107671Y-81756202D01*
X152107664Y-81756206D01*
X151992455Y-81842452D01*
X151923765Y-81934210D01*
X151867831Y-81976080D01*
X151798139Y-81981064D01*
X151736817Y-81947578D01*
X151703332Y-81886255D01*
X151700499Y-81859898D01*
X151700499Y-81624998D01*
X151700498Y-81624980D01*
X151689999Y-81522203D01*
X151689998Y-81522200D01*
X151659737Y-81430880D01*
X151634814Y-81355666D01*
X151542712Y-81206344D01*
X151418656Y-81082288D01*
X151302257Y-81010493D01*
X151269336Y-80990187D01*
X151269331Y-80990185D01*
X151267862Y-80989698D01*
X151102797Y-80935001D01*
X151102795Y-80935000D01*
X151000010Y-80924500D01*
X149999998Y-80924500D01*
X149999980Y-80924501D01*
X149897203Y-80935000D01*
X149897200Y-80935001D01*
X149730668Y-80990185D01*
X149730663Y-80990187D01*
X149581342Y-81082289D01*
X149457289Y-81206342D01*
X149365187Y-81355663D01*
X149365185Y-81355668D01*
X149337349Y-81439670D01*
X149310001Y-81522203D01*
X149310001Y-81522204D01*
X149310000Y-81522204D01*
X149299500Y-81624983D01*
X149299500Y-82575001D01*
X149299501Y-82575019D01*
X149310000Y-82677796D01*
X149310001Y-82677799D01*
X149365185Y-82844331D01*
X149365187Y-82844336D01*
X149381131Y-82870185D01*
X149457287Y-82993655D01*
X149457289Y-82993657D01*
X149550951Y-83087319D01*
X149584436Y-83148642D01*
X149579452Y-83218334D01*
X149550951Y-83262681D01*
X149500451Y-83313181D01*
X149439128Y-83346666D01*
X149412770Y-83349500D01*
X148779154Y-83349500D01*
X148712115Y-83329815D01*
X148666360Y-83277011D01*
X148656416Y-83207853D01*
X148685441Y-83144297D01*
X148714055Y-83119962D01*
X148718345Y-83117315D01*
X148842315Y-82993345D01*
X148934356Y-82844124D01*
X148934358Y-82844119D01*
X148989505Y-82677697D01*
X148989506Y-82677690D01*
X148999999Y-82574986D01*
X149000000Y-82574973D01*
X149000000Y-82350000D01*
X146600001Y-82350000D01*
X146600001Y-82539271D01*
X146580316Y-82606310D01*
X146527512Y-82652065D01*
X146458354Y-82662009D01*
X146394798Y-82632984D01*
X146388320Y-82626952D01*
X145611368Y-81850000D01*
X146600000Y-81850000D01*
X147550000Y-81850000D01*
X147550000Y-80925000D01*
X148050000Y-80925000D01*
X148050000Y-81850000D01*
X148999999Y-81850000D01*
X148999999Y-81625028D01*
X148999998Y-81625013D01*
X148989505Y-81522302D01*
X148934358Y-81355880D01*
X148934356Y-81355875D01*
X148842315Y-81206654D01*
X148718345Y-81082684D01*
X148569124Y-80990643D01*
X148569119Y-80990641D01*
X148402697Y-80935494D01*
X148402690Y-80935493D01*
X148299986Y-80925000D01*
X148050000Y-80925000D01*
X147550000Y-80925000D01*
X147300029Y-80925000D01*
X147300012Y-80925001D01*
X147197302Y-80935494D01*
X147030880Y-80990641D01*
X147030875Y-80990643D01*
X146881654Y-81082684D01*
X146757684Y-81206654D01*
X146665643Y-81355875D01*
X146665641Y-81355880D01*
X146610494Y-81522302D01*
X146610493Y-81522309D01*
X146600000Y-81625013D01*
X146600000Y-81850000D01*
X145611368Y-81850000D01*
X145075729Y-81314361D01*
X145063949Y-81300730D01*
X145052081Y-81284789D01*
X145049612Y-81281472D01*
X145049610Y-81281470D01*
X145009587Y-81247886D01*
X145005612Y-81244244D01*
X145002233Y-81240865D01*
X144999780Y-81238411D01*
X144974040Y-81218059D01*
X144915209Y-81168694D01*
X144909180Y-81164729D01*
X144909212Y-81164680D01*
X144902853Y-81160628D01*
X144902822Y-81160679D01*
X144896680Y-81156891D01*
X144896678Y-81156890D01*
X144896677Y-81156889D01*
X144857474Y-81138608D01*
X144827058Y-81124424D01*
X144792894Y-81107267D01*
X144758433Y-81089960D01*
X144758431Y-81089959D01*
X144758430Y-81089959D01*
X144751645Y-81087489D01*
X144751665Y-81087433D01*
X144744549Y-81084959D01*
X144744531Y-81085015D01*
X144737671Y-81082742D01*
X144709841Y-81076996D01*
X144662434Y-81067207D01*
X144613472Y-81055603D01*
X144587719Y-81049499D01*
X144580547Y-81048661D01*
X144580553Y-81048601D01*
X144573055Y-81047835D01*
X144573050Y-81047895D01*
X144565860Y-81047265D01*
X144489083Y-81049500D01*
X142963705Y-81049500D01*
X142945735Y-81048191D01*
X142921972Y-81044710D01*
X142876890Y-81048655D01*
X142869933Y-81049264D01*
X142864532Y-81049500D01*
X142856288Y-81049500D01*
X142823707Y-81053308D01*
X142747199Y-81060001D01*
X142740133Y-81061461D01*
X142740121Y-81061404D01*
X142732752Y-81063038D01*
X142732766Y-81063095D01*
X142725741Y-81064759D01*
X142653556Y-81091033D01*
X142580670Y-81115185D01*
X142580667Y-81115186D01*
X142580665Y-81115187D01*
X142580662Y-81115188D01*
X142574128Y-81118236D01*
X142574102Y-81118182D01*
X142567306Y-81121472D01*
X142567332Y-81121524D01*
X142560884Y-81124762D01*
X142496699Y-81166977D01*
X142431350Y-81207284D01*
X142425682Y-81211766D01*
X142425646Y-81211720D01*
X142419798Y-81216484D01*
X142419835Y-81216528D01*
X142414310Y-81221164D01*
X142414304Y-81221169D01*
X142414304Y-81221170D01*
X142375772Y-81262011D01*
X142361598Y-81277034D01*
X141714358Y-81924272D01*
X141700729Y-81936051D01*
X141681468Y-81950390D01*
X141647898Y-81990397D01*
X141644253Y-81994376D01*
X141638409Y-82000222D01*
X141618059Y-82025959D01*
X141568695Y-82084789D01*
X141564729Y-82090819D01*
X141564682Y-82090788D01*
X141560630Y-82097147D01*
X141560679Y-82097177D01*
X141556889Y-82103321D01*
X141524424Y-82172941D01*
X141489960Y-82241566D01*
X141487488Y-82248357D01*
X141487432Y-82248336D01*
X141484960Y-82255450D01*
X141485015Y-82255469D01*
X141482742Y-82262327D01*
X141474975Y-82299946D01*
X141467207Y-82337565D01*
X141461655Y-82360992D01*
X141449498Y-82412286D01*
X141448661Y-82419454D01*
X141448601Y-82419447D01*
X141447835Y-82426945D01*
X141447895Y-82426951D01*
X141447265Y-82434140D01*
X141449500Y-82510916D01*
X141449500Y-96436294D01*
X141448191Y-96454263D01*
X141444710Y-96478025D01*
X141447355Y-96508249D01*
X141448864Y-96525499D01*
X141449264Y-96530064D01*
X141449500Y-96535470D01*
X141449500Y-96543709D01*
X141453306Y-96576274D01*
X141460000Y-96652791D01*
X141461461Y-96659867D01*
X141461403Y-96659878D01*
X141463034Y-96667237D01*
X141463092Y-96667224D01*
X141464757Y-96674250D01*
X141491025Y-96746424D01*
X141515185Y-96819331D01*
X141518236Y-96825874D01*
X141518182Y-96825898D01*
X141521470Y-96832688D01*
X141521521Y-96832663D01*
X141524761Y-96839113D01*
X141524762Y-96839114D01*
X141524763Y-96839117D01*
X141551638Y-96879979D01*
X141566965Y-96903283D01*
X141607287Y-96968655D01*
X141611766Y-96974319D01*
X141611719Y-96974356D01*
X141616482Y-96980202D01*
X141616528Y-96980164D01*
X141621173Y-96985700D01*
X141677017Y-97038385D01*
X142274270Y-97635638D01*
X142286051Y-97649270D01*
X142300388Y-97668528D01*
X142300389Y-97668529D01*
X142300390Y-97668530D01*
X142307728Y-97674687D01*
X142340409Y-97702111D01*
X142344397Y-97705766D01*
X142350216Y-97711585D01*
X142350220Y-97711588D01*
X142350223Y-97711591D01*
X142375959Y-97731940D01*
X142434786Y-97781302D01*
X142434787Y-97781302D01*
X142434789Y-97781304D01*
X142440818Y-97785270D01*
X142440785Y-97785319D01*
X142447147Y-97789372D01*
X142447179Y-97789321D01*
X142453319Y-97793108D01*
X142453323Y-97793111D01*
X142488132Y-97809343D01*
X142522941Y-97825575D01*
X142577609Y-97853030D01*
X142591567Y-97860040D01*
X142591569Y-97860040D01*
X142598357Y-97862511D01*
X142598336Y-97862567D01*
X142605457Y-97865043D01*
X142605476Y-97864986D01*
X142612322Y-97867254D01*
X142612327Y-97867257D01*
X142612332Y-97867258D01*
X142612335Y-97867259D01*
X142687564Y-97882792D01*
X142687565Y-97882792D01*
X142762279Y-97900500D01*
X142762282Y-97900500D01*
X142762286Y-97900501D01*
X142769453Y-97901339D01*
X142769446Y-97901398D01*
X142776944Y-97902164D01*
X142776950Y-97902105D01*
X142784139Y-97902734D01*
X142784143Y-97902733D01*
X142784144Y-97902734D01*
X142860917Y-97900500D01*
X143400501Y-97900500D01*
X143467540Y-97920185D01*
X143513295Y-97972989D01*
X143524501Y-98024500D01*
X143524501Y-98047876D01*
X143530908Y-98107483D01*
X143581202Y-98242328D01*
X143581203Y-98242330D01*
X143597966Y-98264722D01*
X143622383Y-98330186D01*
X143607532Y-98398459D01*
X143564282Y-98441838D01*
X143565076Y-98442931D01*
X143521064Y-98474906D01*
X143516182Y-98478112D01*
X143476080Y-98501828D01*
X143461908Y-98516000D01*
X143447123Y-98528628D01*
X143430912Y-98540407D01*
X143401209Y-98576310D01*
X143397277Y-98580631D01*
X142114727Y-99863181D01*
X142053404Y-99896666D01*
X142027046Y-99899500D01*
X141469144Y-99899500D01*
X141367223Y-99909913D01*
X141202077Y-99964637D01*
X141202066Y-99964642D01*
X141054000Y-100055971D01*
X141053996Y-100055974D01*
X140930974Y-100178996D01*
X140930971Y-100179000D01*
X140839642Y-100327066D01*
X140839637Y-100327077D01*
X140784913Y-100492223D01*
X140774500Y-100594144D01*
X140774500Y-101605855D01*
X140784913Y-101707776D01*
X140839637Y-101872922D01*
X140839642Y-101872933D01*
X140930971Y-102020999D01*
X140930974Y-102021003D01*
X141053996Y-102144025D01*
X141054000Y-102144028D01*
X141202066Y-102235357D01*
X141202069Y-102235358D01*
X141202075Y-102235362D01*
X141367225Y-102290087D01*
X141469152Y-102300500D01*
X141469157Y-102300500D01*
X142055843Y-102300500D01*
X142055848Y-102300500D01*
X142157775Y-102290087D01*
X142322925Y-102235362D01*
X142471003Y-102144026D01*
X142594026Y-102021003D01*
X142594458Y-102020301D01*
X142594881Y-102019921D01*
X142598507Y-102015336D01*
X142599290Y-102015955D01*
X142646402Y-101973575D01*
X142715364Y-101962349D01*
X142779448Y-101990188D01*
X142801342Y-102015455D01*
X142801493Y-102015336D01*
X142804143Y-102018687D01*
X142805540Y-102020299D01*
X142805972Y-102020999D01*
X142805975Y-102021004D01*
X142928996Y-102144025D01*
X142929000Y-102144028D01*
X143077066Y-102235357D01*
X143077069Y-102235358D01*
X143077075Y-102235362D01*
X143242225Y-102290087D01*
X143344152Y-102300500D01*
X143777792Y-102300500D01*
X143844831Y-102320185D01*
X143890586Y-102372989D01*
X143901112Y-102437460D01*
X143894540Y-102500000D01*
X143914326Y-102688256D01*
X143914327Y-102688259D01*
X143972818Y-102868277D01*
X143972821Y-102868284D01*
X144067467Y-103032216D01*
X144194129Y-103172887D01*
X144194129Y-103172888D01*
X144347265Y-103284148D01*
X144347270Y-103284151D01*
X144520192Y-103361142D01*
X144520197Y-103361144D01*
X144705354Y-103400500D01*
X144764547Y-103400500D01*
X144831586Y-103420185D01*
X144852228Y-103436819D01*
X144899197Y-103483788D01*
X144909022Y-103496051D01*
X144909243Y-103495869D01*
X144914214Y-103501878D01*
X144935043Y-103521437D01*
X144964635Y-103549226D01*
X144985529Y-103570120D01*
X144991011Y-103574373D01*
X144995443Y-103578157D01*
X145002844Y-103585108D01*
X145038239Y-103645348D01*
X145035447Y-103715162D01*
X144995354Y-103772383D01*
X144930689Y-103798845D01*
X144917961Y-103799500D01*
X140524500Y-103799500D01*
X140457461Y-103779815D01*
X140411706Y-103727011D01*
X140400500Y-103675500D01*
X140400500Y-79724500D01*
X140420185Y-79657461D01*
X140472989Y-79611706D01*
X140524500Y-79600500D01*
X191075500Y-79600500D01*
X191142539Y-79620185D01*
G37*
%TD.AperFunction*%
%TA.AperFunction,Conductor*%
G36*
X191142539Y-83513935D02*
G01*
X191188294Y-83566739D01*
X191199500Y-83618250D01*
X191199500Y-99820250D01*
X191179815Y-99887289D01*
X191127011Y-99933044D01*
X191075500Y-99944250D01*
X186654931Y-99944250D01*
X186587892Y-99924565D01*
X186542903Y-99873408D01*
X186530845Y-99847997D01*
X186389829Y-99643701D01*
X186389828Y-99643700D01*
X186217866Y-99464670D01*
X186019420Y-99315546D01*
X186019409Y-99315540D01*
X185799611Y-99200180D01*
X185799607Y-99200179D01*
X185564145Y-99121569D01*
X185319123Y-99081750D01*
X184407500Y-99081750D01*
X184407500Y-99820250D01*
X184387815Y-99887289D01*
X184335011Y-99933044D01*
X184283500Y-99944250D01*
X184031500Y-99944250D01*
X183964461Y-99924565D01*
X183918706Y-99871761D01*
X183907500Y-99820250D01*
X183907500Y-99081750D01*
X183058038Y-99081750D01*
X182872565Y-99096722D01*
X182631541Y-99156130D01*
X182403167Y-99253431D01*
X182193353Y-99386109D01*
X182007542Y-99550721D01*
X181850544Y-99743011D01*
X181850539Y-99743018D01*
X181770155Y-99882250D01*
X181719588Y-99930465D01*
X181662768Y-99944250D01*
X181657500Y-99944250D01*
X181657500Y-100117010D01*
X181649442Y-100160980D01*
X181638398Y-100190100D01*
X181638398Y-100190101D01*
X181601825Y-100369249D01*
X181629551Y-100403208D01*
X181656702Y-100467587D01*
X181657500Y-100481631D01*
X181657500Y-100759083D01*
X181637815Y-100826122D01*
X181626316Y-100841310D01*
X181601562Y-100869250D01*
X181608669Y-100927782D01*
X181608671Y-100927788D01*
X181652604Y-101079463D01*
X181657500Y-101113962D01*
X181657500Y-101294250D01*
X181660069Y-101294250D01*
X181727108Y-101313935D01*
X181772097Y-101365092D01*
X181784154Y-101390502D01*
X181925170Y-101594798D01*
X181925171Y-101594799D01*
X182097133Y-101773829D01*
X182295579Y-101922953D01*
X182295590Y-101922959D01*
X182515388Y-102038319D01*
X182515392Y-102038320D01*
X182750854Y-102116930D01*
X182995877Y-102156750D01*
X183907500Y-102156750D01*
X183907500Y-101418250D01*
X183927185Y-101351211D01*
X183979989Y-101305456D01*
X184031500Y-101294250D01*
X184283500Y-101294250D01*
X184350539Y-101313935D01*
X184396294Y-101366739D01*
X184407500Y-101418250D01*
X184407500Y-102156750D01*
X185256962Y-102156750D01*
X185442434Y-102141777D01*
X185683458Y-102082369D01*
X185911832Y-101985068D01*
X186121646Y-101852390D01*
X186307457Y-101687778D01*
X186464455Y-101495488D01*
X186464460Y-101495481D01*
X186544845Y-101356250D01*
X186595412Y-101308035D01*
X186652232Y-101294250D01*
X191075500Y-101294250D01*
X191142539Y-101313935D01*
X191188294Y-101366739D01*
X191199500Y-101418250D01*
X191199500Y-103675500D01*
X191179815Y-103742539D01*
X191127011Y-103788294D01*
X191075500Y-103799500D01*
X166784452Y-103799500D01*
X166717413Y-103779815D01*
X166671658Y-103727011D01*
X166661714Y-103657853D01*
X166690739Y-103594297D01*
X166696748Y-103587842D01*
X166699482Y-103585107D01*
X166700567Y-103584022D01*
X166715379Y-103571368D01*
X166731587Y-103559594D01*
X166761299Y-103523676D01*
X166765212Y-103519376D01*
X167283787Y-103000802D01*
X167296042Y-102990986D01*
X167295859Y-102990764D01*
X167301866Y-102985792D01*
X167301877Y-102985786D01*
X167332775Y-102952882D01*
X167349227Y-102935364D01*
X167359671Y-102924918D01*
X167370120Y-102914471D01*
X167374379Y-102908978D01*
X167378152Y-102904561D01*
X167410062Y-102870582D01*
X167419713Y-102853024D01*
X167430396Y-102836761D01*
X167442673Y-102820936D01*
X167461185Y-102778153D01*
X167463738Y-102772941D01*
X167486197Y-102732092D01*
X167491180Y-102712680D01*
X167497481Y-102694280D01*
X167505437Y-102675896D01*
X167512729Y-102629852D01*
X167513906Y-102624171D01*
X167525500Y-102579019D01*
X167525500Y-102558982D01*
X167527027Y-102539582D01*
X167530160Y-102519804D01*
X167526207Y-102477990D01*
X167525775Y-102473415D01*
X167525500Y-102467577D01*
X167525500Y-96510452D01*
X167545185Y-96443413D01*
X167561819Y-96422771D01*
X167642051Y-96342539D01*
X167711431Y-96273159D01*
X167772753Y-96239675D01*
X167842445Y-96244659D01*
X167886792Y-96273160D01*
X167981344Y-96367712D01*
X168130666Y-96459814D01*
X168297203Y-96514999D01*
X168399991Y-96525500D01*
X169400008Y-96525499D01*
X169400016Y-96525498D01*
X169400019Y-96525498D01*
X169461182Y-96519250D01*
X169502797Y-96514999D01*
X169669334Y-96459814D01*
X169818656Y-96367712D01*
X169942712Y-96243656D01*
X170034814Y-96094334D01*
X170089999Y-95927797D01*
X170100500Y-95825009D01*
X170100500Y-95800000D01*
X170975001Y-95800000D01*
X170975001Y-95849986D01*
X170985494Y-95952697D01*
X171040641Y-96119119D01*
X171040643Y-96119124D01*
X171132684Y-96268345D01*
X171256654Y-96392315D01*
X171405875Y-96484356D01*
X171405880Y-96484358D01*
X171572302Y-96539505D01*
X171572309Y-96539506D01*
X171675019Y-96549999D01*
X171949999Y-96549999D01*
X171950000Y-96549998D01*
X171950000Y-95800000D01*
X170975001Y-95800000D01*
X170100500Y-95800000D01*
X170100499Y-95199992D01*
X170098309Y-95178557D01*
X170089999Y-95097203D01*
X170089998Y-95097200D01*
X170084351Y-95080159D01*
X170034814Y-94930666D01*
X169942712Y-94781344D01*
X169849048Y-94687680D01*
X169815564Y-94626358D01*
X169820548Y-94556666D01*
X169849049Y-94512319D01*
X169877368Y-94484000D01*
X169942712Y-94418656D01*
X169970617Y-94373413D01*
X170022563Y-94326690D01*
X170072257Y-94314573D01*
X170120669Y-94313051D01*
X170122315Y-94313000D01*
X170151847Y-94313000D01*
X170151850Y-94313000D01*
X170158728Y-94312130D01*
X170164541Y-94311672D01*
X170211127Y-94310209D01*
X170230369Y-94304617D01*
X170249412Y-94300674D01*
X170269292Y-94298164D01*
X170312622Y-94281007D01*
X170318146Y-94279117D01*
X170321896Y-94278027D01*
X170362890Y-94266118D01*
X170380129Y-94255922D01*
X170397603Y-94247362D01*
X170416227Y-94239988D01*
X170416227Y-94239987D01*
X170416232Y-94239986D01*
X170453949Y-94212582D01*
X170458805Y-94209392D01*
X170498920Y-94185670D01*
X170513089Y-94171499D01*
X170527879Y-94158868D01*
X170544087Y-94147094D01*
X170573799Y-94111176D01*
X170577712Y-94106876D01*
X170767745Y-93916843D01*
X170829066Y-93883360D01*
X170898758Y-93888344D01*
X170954691Y-93930216D01*
X170978782Y-93991923D01*
X170985001Y-94052797D01*
X170985001Y-94052799D01*
X171026156Y-94176994D01*
X171040186Y-94219334D01*
X171132288Y-94368656D01*
X171256344Y-94492712D01*
X171259628Y-94494737D01*
X171259653Y-94494753D01*
X171261445Y-94496746D01*
X171262011Y-94497193D01*
X171261934Y-94497289D01*
X171306379Y-94546699D01*
X171317603Y-94615661D01*
X171289761Y-94679744D01*
X171259665Y-94705826D01*
X171256660Y-94707679D01*
X171256655Y-94707683D01*
X171132684Y-94831654D01*
X171040643Y-94980875D01*
X171040641Y-94980880D01*
X170985494Y-95147302D01*
X170985493Y-95147309D01*
X170975000Y-95250013D01*
X170975000Y-95300000D01*
X172326000Y-95300000D01*
X172393039Y-95319685D01*
X172438794Y-95372489D01*
X172450000Y-95424000D01*
X172450000Y-96549999D01*
X172724972Y-96549999D01*
X172724986Y-96549998D01*
X172827697Y-96539505D01*
X172994119Y-96484358D01*
X172994124Y-96484356D01*
X173143345Y-96392315D01*
X173262819Y-96272842D01*
X173324142Y-96239357D01*
X173393834Y-96244341D01*
X173449767Y-96286213D01*
X173474184Y-96351677D01*
X173474500Y-96360523D01*
X173474500Y-97989547D01*
X173454815Y-98056586D01*
X173438181Y-98077228D01*
X172377228Y-99138181D01*
X172315905Y-99171666D01*
X172289547Y-99174500D01*
X172273150Y-99174500D01*
X172206111Y-99154815D01*
X172171575Y-99121623D01*
X172081599Y-98993124D01*
X172081596Y-98993121D01*
X171926877Y-98838402D01*
X171749893Y-98714476D01*
X171747638Y-98712897D01*
X171648484Y-98666661D01*
X171549330Y-98620425D01*
X171549326Y-98620424D01*
X171549322Y-98620422D01*
X171337977Y-98563793D01*
X171120002Y-98544723D01*
X171119998Y-98544723D01*
X170974682Y-98557436D01*
X170902023Y-98563793D01*
X170902020Y-98563793D01*
X170690677Y-98620422D01*
X170690668Y-98620426D01*
X170492361Y-98712898D01*
X170492357Y-98712900D01*
X170313121Y-98838402D01*
X170158402Y-98993121D01*
X170032900Y-99172357D01*
X170032898Y-99172361D01*
X169940426Y-99370668D01*
X169940422Y-99370677D01*
X169883793Y-99582020D01*
X169883793Y-99582024D01*
X169864723Y-99799997D01*
X169864723Y-99800002D01*
X169867791Y-99835072D01*
X169879126Y-99964637D01*
X169883793Y-100017975D01*
X169883793Y-100017979D01*
X169940422Y-100229322D01*
X169940424Y-100229326D01*
X169940425Y-100229330D01*
X169960401Y-100272169D01*
X170032897Y-100427638D01*
X170048555Y-100450000D01*
X170158402Y-100606877D01*
X170313123Y-100761598D01*
X170492361Y-100887102D01*
X170690670Y-100979575D01*
X170690676Y-100979576D01*
X170690677Y-100979577D01*
X170721364Y-100987799D01*
X170902023Y-101036207D01*
X171084926Y-101052208D01*
X171119998Y-101055277D01*
X171120000Y-101055277D01*
X171120002Y-101055277D01*
X171148254Y-101052805D01*
X171337977Y-101036207D01*
X171549330Y-100979575D01*
X171747639Y-100887102D01*
X171926877Y-100761598D01*
X172081598Y-100606877D01*
X172171575Y-100478375D01*
X172226151Y-100434752D01*
X172273149Y-100425500D01*
X172517257Y-100425500D01*
X172532877Y-100427224D01*
X172532904Y-100426939D01*
X172540660Y-100427671D01*
X172540667Y-100427673D01*
X172609814Y-100425500D01*
X172639350Y-100425500D01*
X172646228Y-100424630D01*
X172652041Y-100424172D01*
X172698627Y-100422709D01*
X172717869Y-100417117D01*
X172736912Y-100413174D01*
X172756792Y-100410664D01*
X172800122Y-100393507D01*
X172805646Y-100391617D01*
X172809396Y-100390527D01*
X172850390Y-100378618D01*
X172867629Y-100368422D01*
X172885103Y-100359862D01*
X172903727Y-100352488D01*
X172903727Y-100352487D01*
X172903732Y-100352486D01*
X172941449Y-100325082D01*
X172946305Y-100321892D01*
X172986420Y-100298170D01*
X173000589Y-100283999D01*
X173015379Y-100271368D01*
X173031587Y-100259594D01*
X173061299Y-100223676D01*
X173065212Y-100219376D01*
X174483787Y-98800802D01*
X174496042Y-98790986D01*
X174495859Y-98790764D01*
X174501866Y-98785792D01*
X174501877Y-98785786D01*
X174532775Y-98752882D01*
X174549227Y-98735364D01*
X174559671Y-98724918D01*
X174570120Y-98714471D01*
X174574379Y-98708978D01*
X174578152Y-98704561D01*
X174610062Y-98670582D01*
X174619713Y-98653024D01*
X174630396Y-98636761D01*
X174642673Y-98620936D01*
X174661185Y-98578153D01*
X174663738Y-98572941D01*
X174686197Y-98532092D01*
X174691180Y-98512680D01*
X174697481Y-98494280D01*
X174705437Y-98475896D01*
X174712729Y-98429852D01*
X174713906Y-98424171D01*
X174725500Y-98379019D01*
X174725500Y-98358982D01*
X174727027Y-98339582D01*
X174730160Y-98319804D01*
X174725775Y-98273415D01*
X174725500Y-98267577D01*
X174725500Y-96661433D01*
X174745185Y-96594394D01*
X174797989Y-96548639D01*
X174865558Y-96538923D01*
X174865569Y-96538818D01*
X174865991Y-96538861D01*
X174867147Y-96538695D01*
X174870849Y-96539357D01*
X174975019Y-96549999D01*
X175249999Y-96549999D01*
X175250000Y-96549998D01*
X175250000Y-95800000D01*
X175750000Y-95800000D01*
X175750000Y-96549999D01*
X176024972Y-96549999D01*
X176024986Y-96549998D01*
X176127697Y-96539505D01*
X176294119Y-96484358D01*
X176294124Y-96484356D01*
X176443345Y-96392315D01*
X176567315Y-96268345D01*
X176659356Y-96119124D01*
X176659358Y-96119119D01*
X176714505Y-95952697D01*
X176714506Y-95952690D01*
X176724999Y-95849986D01*
X176725000Y-95849973D01*
X176725000Y-95800000D01*
X177575001Y-95800000D01*
X177575001Y-95849986D01*
X177585494Y-95952697D01*
X177640641Y-96119119D01*
X177640643Y-96119124D01*
X177732684Y-96268345D01*
X177856654Y-96392315D01*
X178005875Y-96484356D01*
X178005880Y-96484358D01*
X178172302Y-96539505D01*
X178172309Y-96539506D01*
X178275019Y-96549999D01*
X178549999Y-96549999D01*
X178550000Y-96549998D01*
X178550000Y-95800000D01*
X177575001Y-95800000D01*
X176725000Y-95800000D01*
X175750000Y-95800000D01*
X175250000Y-95800000D01*
X175250000Y-95424000D01*
X175269685Y-95356961D01*
X175322489Y-95311206D01*
X175374000Y-95300000D01*
X176724999Y-95300000D01*
X176724999Y-95250028D01*
X176724998Y-95250013D01*
X176714505Y-95147302D01*
X176659358Y-94980880D01*
X176659356Y-94980875D01*
X176567315Y-94831654D01*
X176443344Y-94707683D01*
X176443341Y-94707681D01*
X176440339Y-94705829D01*
X176438713Y-94704021D01*
X176437677Y-94703202D01*
X176437817Y-94703024D01*
X176393617Y-94653880D01*
X176382397Y-94584917D01*
X176410243Y-94520836D01*
X176440344Y-94494754D01*
X176443656Y-94492712D01*
X176567712Y-94368656D01*
X176659814Y-94219334D01*
X176714999Y-94052797D01*
X176725500Y-93950009D01*
X176725499Y-93360451D01*
X176745183Y-93293413D01*
X176761813Y-93272776D01*
X177658788Y-92375801D01*
X177671042Y-92365986D01*
X177670859Y-92365764D01*
X177676866Y-92360792D01*
X177676877Y-92360786D01*
X177714556Y-92320662D01*
X177724227Y-92310364D01*
X177734671Y-92299918D01*
X177745120Y-92289471D01*
X177749379Y-92283978D01*
X177753152Y-92279561D01*
X177785062Y-92245582D01*
X177794715Y-92228020D01*
X177805389Y-92211770D01*
X177817673Y-92195936D01*
X177836180Y-92153167D01*
X177838749Y-92147924D01*
X177840953Y-92143913D01*
X177861197Y-92107092D01*
X177866177Y-92087691D01*
X177872478Y-92069288D01*
X177880438Y-92050896D01*
X177880780Y-92048735D01*
X177881518Y-92047177D01*
X177882615Y-92043404D01*
X177883223Y-92043580D01*
X177910704Y-91985601D01*
X177970013Y-91948666D01*
X178039876Y-91949658D01*
X178066373Y-91961394D01*
X178077608Y-91968038D01*
X178113620Y-91989335D01*
X178161304Y-92040402D01*
X178174500Y-92096067D01*
X178174499Y-92569699D01*
X178154814Y-92636739D01*
X178102010Y-92682493D01*
X178089507Y-92687403D01*
X178066025Y-92695185D01*
X178005666Y-92715186D01*
X178005663Y-92715187D01*
X177856342Y-92807289D01*
X177732289Y-92931342D01*
X177640187Y-93080663D01*
X177640185Y-93080668D01*
X177620785Y-93139214D01*
X177585001Y-93247203D01*
X177585001Y-93247204D01*
X177585000Y-93247204D01*
X177574500Y-93349983D01*
X177574500Y-93950001D01*
X177574501Y-93950019D01*
X177585000Y-94052796D01*
X177585001Y-94052799D01*
X177626156Y-94176994D01*
X177640186Y-94219334D01*
X177732288Y-94368656D01*
X177856344Y-94492712D01*
X177859628Y-94494737D01*
X177859653Y-94494753D01*
X177861445Y-94496746D01*
X177862011Y-94497193D01*
X177861934Y-94497289D01*
X177906379Y-94546699D01*
X177917603Y-94615661D01*
X177889761Y-94679744D01*
X177859665Y-94705826D01*
X177856660Y-94707679D01*
X177856655Y-94707683D01*
X177732684Y-94831654D01*
X177640643Y-94980875D01*
X177640641Y-94980880D01*
X177585494Y-95147302D01*
X177585493Y-95147309D01*
X177575000Y-95250013D01*
X177575000Y-95300000D01*
X178926000Y-95300000D01*
X178993039Y-95319685D01*
X179038794Y-95372489D01*
X179050000Y-95424000D01*
X179050000Y-96549999D01*
X179324972Y-96549999D01*
X179324981Y-96549998D01*
X179337896Y-96548679D01*
X179406589Y-96561448D01*
X179457474Y-96609327D01*
X179474500Y-96672037D01*
X179474500Y-97189547D01*
X179454815Y-97256586D01*
X179438181Y-97277228D01*
X177577228Y-99138181D01*
X177515905Y-99171666D01*
X177489547Y-99174500D01*
X177153150Y-99174500D01*
X177086111Y-99154815D01*
X177051575Y-99121623D01*
X176961599Y-98993124D01*
X176961596Y-98993121D01*
X176806877Y-98838402D01*
X176629893Y-98714476D01*
X176627638Y-98712897D01*
X176528484Y-98666661D01*
X176429330Y-98620425D01*
X176429326Y-98620424D01*
X176429322Y-98620422D01*
X176217977Y-98563793D01*
X176000002Y-98544723D01*
X175999998Y-98544723D01*
X175854681Y-98557436D01*
X175782023Y-98563793D01*
X175782020Y-98563793D01*
X175570677Y-98620422D01*
X175570668Y-98620426D01*
X175372361Y-98712898D01*
X175372357Y-98712900D01*
X175193121Y-98838402D01*
X175038402Y-98993121D01*
X174912900Y-99172357D01*
X174912898Y-99172361D01*
X174820426Y-99370668D01*
X174820422Y-99370677D01*
X174763793Y-99582020D01*
X174763793Y-99582024D01*
X174744723Y-99799997D01*
X174744723Y-99800002D01*
X174747791Y-99835072D01*
X174759126Y-99964637D01*
X174763793Y-100017975D01*
X174763793Y-100017979D01*
X174820422Y-100229322D01*
X174820424Y-100229326D01*
X174820425Y-100229330D01*
X174840401Y-100272169D01*
X174912897Y-100427638D01*
X174928555Y-100450000D01*
X175038402Y-100606877D01*
X175193123Y-100761598D01*
X175372361Y-100887102D01*
X175570670Y-100979575D01*
X175570676Y-100979576D01*
X175570677Y-100979577D01*
X175601364Y-100987799D01*
X175782023Y-101036207D01*
X175964926Y-101052208D01*
X175999998Y-101055277D01*
X176000000Y-101055277D01*
X176000002Y-101055277D01*
X176028254Y-101052805D01*
X176217977Y-101036207D01*
X176429330Y-100979575D01*
X176627639Y-100887102D01*
X176806877Y-100761598D01*
X176961598Y-100606877D01*
X177051575Y-100478375D01*
X177106151Y-100434752D01*
X177153149Y-100425500D01*
X177717257Y-100425500D01*
X177732877Y-100427224D01*
X177732904Y-100426939D01*
X177740660Y-100427671D01*
X177740667Y-100427673D01*
X177809814Y-100425500D01*
X177839350Y-100425500D01*
X177846228Y-100424630D01*
X177852041Y-100424172D01*
X177898627Y-100422709D01*
X177917869Y-100417117D01*
X177936912Y-100413174D01*
X177956792Y-100410664D01*
X178000122Y-100393507D01*
X178005646Y-100391617D01*
X178009396Y-100390527D01*
X178050390Y-100378618D01*
X178067629Y-100368422D01*
X178085103Y-100359862D01*
X178103727Y-100352488D01*
X178103727Y-100352487D01*
X178103732Y-100352486D01*
X178141449Y-100325082D01*
X178146305Y-100321892D01*
X178186420Y-100298170D01*
X178200589Y-100283999D01*
X178215379Y-100271368D01*
X178231587Y-100259594D01*
X178261299Y-100223676D01*
X178265212Y-100219376D01*
X180483788Y-98000801D01*
X180496042Y-97990986D01*
X180495859Y-97990764D01*
X180501866Y-97985792D01*
X180501877Y-97985786D01*
X180532775Y-97952882D01*
X180549227Y-97935364D01*
X180559671Y-97924918D01*
X180570120Y-97914471D01*
X180574379Y-97908978D01*
X180578152Y-97904561D01*
X180610062Y-97870582D01*
X180619713Y-97853024D01*
X180630396Y-97836761D01*
X180642673Y-97820936D01*
X180661185Y-97778153D01*
X180663738Y-97772941D01*
X180686197Y-97732092D01*
X180691180Y-97712680D01*
X180697481Y-97694280D01*
X180697494Y-97694250D01*
X181867500Y-97694250D01*
X181867500Y-97957094D01*
X181873901Y-98016622D01*
X181873903Y-98016629D01*
X181924145Y-98151336D01*
X181924149Y-98151343D01*
X182010309Y-98266437D01*
X182010312Y-98266440D01*
X182125406Y-98352600D01*
X182125413Y-98352604D01*
X182260120Y-98402846D01*
X182260127Y-98402848D01*
X182319655Y-98409249D01*
X182319672Y-98409250D01*
X182582500Y-98409250D01*
X182582500Y-97694250D01*
X181867500Y-97694250D01*
X180697494Y-97694250D01*
X180705437Y-97675896D01*
X180712729Y-97629852D01*
X180713906Y-97624171D01*
X180725500Y-97579019D01*
X180725500Y-97558982D01*
X180727027Y-97539582D01*
X180730160Y-97519804D01*
X180725775Y-97473415D01*
X180725500Y-97467577D01*
X180725500Y-94486230D01*
X180745185Y-94419191D01*
X180797989Y-94373436D01*
X180867147Y-94363492D01*
X180930703Y-94392517D01*
X180937181Y-94398549D01*
X181168520Y-94629888D01*
X181180301Y-94643520D01*
X181194638Y-94662778D01*
X181234659Y-94696361D01*
X181238647Y-94700016D01*
X181244466Y-94705835D01*
X181244470Y-94705838D01*
X181244473Y-94705841D01*
X181270209Y-94726190D01*
X181329036Y-94775552D01*
X181329037Y-94775552D01*
X181329039Y-94775554D01*
X181335068Y-94779520D01*
X181335035Y-94779569D01*
X181341397Y-94783622D01*
X181341429Y-94783571D01*
X181347569Y-94787358D01*
X181347573Y-94787361D01*
X181381194Y-94803039D01*
X181417191Y-94819825D01*
X181481004Y-94851873D01*
X181485817Y-94854290D01*
X181485819Y-94854290D01*
X181492607Y-94856761D01*
X181492586Y-94856817D01*
X181499707Y-94859293D01*
X181499726Y-94859236D01*
X181506572Y-94861504D01*
X181506577Y-94861507D01*
X181506582Y-94861508D01*
X181506585Y-94861509D01*
X181571693Y-94874952D01*
X181581815Y-94877042D01*
X181656529Y-94894750D01*
X181656532Y-94894750D01*
X181656536Y-94894751D01*
X181663703Y-94895589D01*
X181663696Y-94895648D01*
X181671194Y-94896414D01*
X181671200Y-94896355D01*
X181678389Y-94896984D01*
X181678393Y-94896983D01*
X181678394Y-94896984D01*
X181755167Y-94894750D01*
X181762380Y-94894750D01*
X181829419Y-94914435D01*
X181875174Y-94967239D01*
X181885118Y-95036397D01*
X181881042Y-95054742D01*
X181880969Y-95054980D01*
X181862328Y-95244250D01*
X181880969Y-95433519D01*
X181880970Y-95433521D01*
X181936178Y-95615519D01*
X181999587Y-95734149D01*
X182000468Y-95735797D01*
X182014709Y-95804200D01*
X182000468Y-95852701D01*
X181947024Y-95952690D01*
X181936178Y-95972981D01*
X181880969Y-96154980D01*
X181862328Y-96344249D01*
X181880969Y-96533519D01*
X181922243Y-96669582D01*
X181922866Y-96739449D01*
X181919764Y-96748910D01*
X181873903Y-96871869D01*
X181873901Y-96871877D01*
X181867500Y-96931405D01*
X181867500Y-97194250D01*
X182343508Y-97194250D01*
X182401958Y-97208890D01*
X182461231Y-97240572D01*
X182592776Y-97280475D01*
X182568406Y-97312747D01*
X182538736Y-97417029D01*
X182548739Y-97524987D01*
X182597067Y-97622041D01*
X182677190Y-97695084D01*
X182778290Y-97734250D01*
X182859371Y-97734250D01*
X182939075Y-97719351D01*
X183031256Y-97662275D01*
X183082500Y-97594416D01*
X183082500Y-98409250D01*
X183345328Y-98409250D01*
X183345344Y-98409249D01*
X183404872Y-98402848D01*
X183404879Y-98402846D01*
X183539586Y-98352604D01*
X183539593Y-98352600D01*
X183654687Y-98266440D01*
X183654690Y-98266437D01*
X183740850Y-98151343D01*
X183740854Y-98151336D01*
X183791096Y-98016629D01*
X183791098Y-98016622D01*
X183797499Y-97957094D01*
X183797500Y-97957077D01*
X183797500Y-97736184D01*
X183817185Y-97669145D01*
X183869989Y-97623390D01*
X183939147Y-97613446D01*
X183957494Y-97617523D01*
X183968229Y-97620780D01*
X183968228Y-97620780D01*
X183988906Y-97622816D01*
X184157500Y-97639422D01*
X184236948Y-97631596D01*
X184305590Y-97644614D01*
X184308839Y-97646338D01*
X184325402Y-97655444D01*
X184325404Y-97655445D01*
X184325408Y-97655447D01*
X184344816Y-97660430D01*
X184363217Y-97666730D01*
X184381604Y-97674687D01*
X184424988Y-97681558D01*
X184427619Y-97681975D01*
X184433339Y-97683159D01*
X184478481Y-97694750D01*
X184498516Y-97694750D01*
X184517914Y-97696276D01*
X184537694Y-97699409D01*
X184537695Y-97699410D01*
X184537695Y-97699409D01*
X184537696Y-97699410D01*
X184584083Y-97695025D01*
X184589922Y-97694750D01*
X184688174Y-97694750D01*
X184755213Y-97714435D01*
X184784026Y-97740084D01*
X184796486Y-97755267D01*
X184909217Y-97847783D01*
X184943501Y-97875919D01*
X185111231Y-97965572D01*
X185293229Y-98020780D01*
X185293228Y-98020780D01*
X185310198Y-98022451D01*
X185482500Y-98039422D01*
X185671771Y-98020780D01*
X185853769Y-97965572D01*
X186021499Y-97875919D01*
X186168515Y-97755265D01*
X186289169Y-97608249D01*
X186378822Y-97440519D01*
X186434030Y-97258521D01*
X186452672Y-97069250D01*
X186434030Y-96879979D01*
X186378822Y-96697981D01*
X186314531Y-96577701D01*
X186300290Y-96509301D01*
X186314532Y-96460797D01*
X186315058Y-96459814D01*
X186378822Y-96340519D01*
X186434030Y-96158521D01*
X186452672Y-95969250D01*
X186434030Y-95779979D01*
X186378822Y-95597981D01*
X186314531Y-95477701D01*
X186300290Y-95409301D01*
X186314532Y-95360797D01*
X186316583Y-95356961D01*
X186378822Y-95240519D01*
X186434030Y-95058521D01*
X186452672Y-94869250D01*
X186434030Y-94679979D01*
X186378822Y-94497981D01*
X186377094Y-94494749D01*
X186336708Y-94419191D01*
X186314531Y-94377701D01*
X186300290Y-94309301D01*
X186314532Y-94260797D01*
X186321714Y-94247362D01*
X186378822Y-94140519D01*
X186434030Y-93958521D01*
X186438359Y-93914561D01*
X186464519Y-93849776D01*
X186474072Y-93839044D01*
X187985642Y-92327474D01*
X187999271Y-92315697D01*
X188018530Y-92301360D01*
X188042344Y-92272979D01*
X188052101Y-92261351D01*
X188055761Y-92257356D01*
X188061590Y-92251528D01*
X188081941Y-92225789D01*
X188093717Y-92211755D01*
X188131302Y-92166964D01*
X188131306Y-92166955D01*
X188135274Y-92160925D01*
X188135325Y-92160958D01*
X188139372Y-92154606D01*
X188139320Y-92154574D01*
X188143112Y-92148425D01*
X188175575Y-92078808D01*
X188196185Y-92037770D01*
X188210040Y-92010183D01*
X188210042Y-92010171D01*
X188212509Y-92003396D01*
X188212567Y-92003417D01*
X188215043Y-91996296D01*
X188214986Y-91996278D01*
X188217257Y-91989423D01*
X188232792Y-91914184D01*
X188250498Y-91839478D01*
X188250500Y-91839471D01*
X188250500Y-91839460D01*
X188251338Y-91832298D01*
X188251398Y-91832305D01*
X188252164Y-91824805D01*
X188252105Y-91824800D01*
X188252734Y-91817610D01*
X188250500Y-91740832D01*
X188250500Y-89289343D01*
X188252164Y-89273054D01*
X188252105Y-89273049D01*
X188252734Y-89265859D01*
X188252588Y-89260857D01*
X188250500Y-89189082D01*
X188250500Y-89056291D01*
X188250500Y-89056290D01*
X188250500Y-86663705D01*
X188251809Y-86645735D01*
X188252129Y-86643547D01*
X188255289Y-86621977D01*
X188250735Y-86569931D01*
X188250500Y-86564528D01*
X188250500Y-86556297D01*
X188250500Y-86556291D01*
X188246693Y-86523724D01*
X188242863Y-86479938D01*
X188239999Y-86447201D01*
X188238539Y-86440129D01*
X188238597Y-86440116D01*
X188236965Y-86432757D01*
X188236906Y-86432772D01*
X188235241Y-86425751D01*
X188235241Y-86425745D01*
X188217432Y-86376814D01*
X188208974Y-86353575D01*
X188184813Y-86280663D01*
X188181764Y-86274124D01*
X188181817Y-86274099D01*
X188178531Y-86267311D01*
X188178479Y-86267338D01*
X188175236Y-86260882D01*
X188174833Y-86260270D01*
X188133034Y-86196716D01*
X188122012Y-86178846D01*
X188092714Y-86131347D01*
X188088234Y-86125681D01*
X188088280Y-86125643D01*
X188083519Y-86119799D01*
X188083474Y-86119838D01*
X188078834Y-86114308D01*
X188022982Y-86061613D01*
X186375729Y-84414361D01*
X186363949Y-84400730D01*
X186356482Y-84390701D01*
X186349612Y-84381472D01*
X186330046Y-84365054D01*
X186309587Y-84347886D01*
X186305612Y-84344244D01*
X186302690Y-84341322D01*
X186299780Y-84338411D01*
X186274040Y-84318059D01*
X186215209Y-84268694D01*
X186209180Y-84264729D01*
X186209212Y-84264680D01*
X186202853Y-84260628D01*
X186202822Y-84260679D01*
X186196676Y-84256888D01*
X186167574Y-84243317D01*
X186115135Y-84197143D01*
X186095985Y-84129949D01*
X186116202Y-84063069D01*
X186137754Y-84038120D01*
X186307457Y-83887777D01*
X186464455Y-83695488D01*
X186464460Y-83695481D01*
X186544845Y-83556250D01*
X186595412Y-83508035D01*
X186652232Y-83494250D01*
X191075500Y-83494250D01*
X191142539Y-83513935D01*
G37*
%TD.AperFunction*%
%TA.AperFunction,Conductor*%
G36*
X152273012Y-92695185D02*
G01*
X152318767Y-92747989D01*
X152328711Y-92817147D01*
X152313360Y-92861499D01*
X152272823Y-92931710D01*
X152272818Y-92931722D01*
X152214327Y-93111740D01*
X152214326Y-93111744D01*
X152207563Y-93176094D01*
X152200554Y-93242775D01*
X152173969Y-93307390D01*
X152116671Y-93347374D01*
X152046852Y-93350034D01*
X152006109Y-93331388D01*
X151927578Y-93276399D01*
X151713492Y-93176570D01*
X151713483Y-93176566D01*
X151485326Y-93115432D01*
X151485315Y-93115430D01*
X151250002Y-93094843D01*
X151249998Y-93094843D01*
X151014684Y-93115430D01*
X151014673Y-93115432D01*
X150786516Y-93176566D01*
X150786507Y-93176570D01*
X150572419Y-93276401D01*
X150488625Y-93335072D01*
X151117466Y-93963913D01*
X151107685Y-93965320D01*
X150976900Y-94025048D01*
X150868239Y-94119202D01*
X150790507Y-94240156D01*
X150766923Y-94320475D01*
X150135073Y-93688625D01*
X150135072Y-93688625D01*
X150076401Y-93772419D01*
X149976570Y-93986507D01*
X149976566Y-93986516D01*
X149915432Y-94214673D01*
X149915430Y-94214684D01*
X149894843Y-94449998D01*
X149894843Y-94450001D01*
X149915430Y-94685315D01*
X149915432Y-94685326D01*
X149976566Y-94913483D01*
X149976570Y-94913492D01*
X150076400Y-95127579D01*
X150076402Y-95127583D01*
X150135072Y-95211373D01*
X150135073Y-95211373D01*
X150766923Y-94579523D01*
X150790507Y-94659844D01*
X150868239Y-94780798D01*
X150976900Y-94874952D01*
X151107685Y-94934680D01*
X151117466Y-94936086D01*
X150488625Y-95564925D01*
X150572421Y-95623599D01*
X150786507Y-95723429D01*
X150786516Y-95723433D01*
X151014673Y-95784567D01*
X151014684Y-95784569D01*
X151249998Y-95805157D01*
X151250002Y-95805157D01*
X151485315Y-95784569D01*
X151485326Y-95784567D01*
X151713483Y-95723433D01*
X151713492Y-95723429D01*
X151927578Y-95623600D01*
X151927582Y-95623598D01*
X152011373Y-95564926D01*
X152011373Y-95564925D01*
X151382533Y-94936086D01*
X151392315Y-94934680D01*
X151523100Y-94874952D01*
X151631761Y-94780798D01*
X151709493Y-94659844D01*
X151733076Y-94579524D01*
X152364925Y-95211373D01*
X152364926Y-95211373D01*
X152423598Y-95127582D01*
X152423600Y-95127578D01*
X152523429Y-94913492D01*
X152523433Y-94913483D01*
X152584567Y-94685326D01*
X152584569Y-94685315D01*
X152605157Y-94450001D01*
X152605157Y-94449999D01*
X152588492Y-94259523D01*
X152602258Y-94191023D01*
X152650874Y-94140840D01*
X152718902Y-94124906D01*
X152762456Y-94135436D01*
X152788643Y-94147095D01*
X152820197Y-94161144D01*
X153005354Y-94200500D01*
X153064548Y-94200500D01*
X153131587Y-94220185D01*
X153152229Y-94236819D01*
X153749194Y-94833784D01*
X153759019Y-94846048D01*
X153759240Y-94845866D01*
X153764210Y-94851873D01*
X153764213Y-94851876D01*
X153764214Y-94851877D01*
X153814651Y-94899241D01*
X153835530Y-94920120D01*
X153841004Y-94924366D01*
X153845442Y-94928156D01*
X153879418Y-94960062D01*
X153879422Y-94960064D01*
X153896973Y-94969713D01*
X153913231Y-94980392D01*
X153929064Y-94992674D01*
X153951015Y-95002172D01*
X153971837Y-95011183D01*
X153977081Y-95013752D01*
X154017908Y-95036197D01*
X154037312Y-95041179D01*
X154055710Y-95047478D01*
X154074105Y-95055438D01*
X154120129Y-95062726D01*
X154125832Y-95063907D01*
X154170981Y-95075500D01*
X154191016Y-95075500D01*
X154210413Y-95077026D01*
X154230196Y-95080160D01*
X154276583Y-95075775D01*
X154282422Y-95075500D01*
X154474773Y-95075500D01*
X154541812Y-95095185D01*
X154576348Y-95128377D01*
X154711500Y-95321395D01*
X154711505Y-95321401D01*
X154878599Y-95488495D01*
X155071624Y-95623653D01*
X155115248Y-95678228D01*
X155124500Y-95725226D01*
X155124500Y-99674773D01*
X155104815Y-99741812D01*
X155071623Y-99776348D01*
X154878597Y-99911505D01*
X154711505Y-100078597D01*
X154575965Y-100272169D01*
X154575964Y-100272171D01*
X154493041Y-100450000D01*
X154478292Y-100481631D01*
X154476098Y-100486335D01*
X154476094Y-100486344D01*
X154414938Y-100714586D01*
X154414936Y-100714596D01*
X154394341Y-100949999D01*
X154394341Y-100950000D01*
X154414936Y-101185403D01*
X154414938Y-101185413D01*
X154476094Y-101413655D01*
X154476096Y-101413659D01*
X154476097Y-101413663D01*
X154514253Y-101495488D01*
X154575965Y-101627830D01*
X154575967Y-101627834D01*
X154634462Y-101711373D01*
X154711505Y-101821401D01*
X154878599Y-101988495D01*
X154955135Y-102042086D01*
X155072165Y-102124032D01*
X155072167Y-102124033D01*
X155072170Y-102124035D01*
X155286337Y-102223903D01*
X155286343Y-102223904D01*
X155286344Y-102223905D01*
X155311796Y-102230725D01*
X155371457Y-102267090D01*
X155401986Y-102329937D01*
X155393691Y-102399312D01*
X155349206Y-102453190D01*
X155282654Y-102474465D01*
X155279703Y-102474500D01*
X152404603Y-102474500D01*
X152337564Y-102454815D01*
X152291809Y-102402011D01*
X152281865Y-102332853D01*
X152310890Y-102269297D01*
X152335552Y-102249421D01*
X152334989Y-102248669D01*
X152457187Y-102157190D01*
X152457190Y-102157187D01*
X152543350Y-102042093D01*
X152543354Y-102042086D01*
X152593596Y-101907379D01*
X152593598Y-101907372D01*
X152599999Y-101847844D01*
X152600000Y-101847827D01*
X152600000Y-101200000D01*
X151683686Y-101200000D01*
X151709493Y-101159844D01*
X151750000Y-101021889D01*
X151750000Y-100878111D01*
X151709493Y-100740156D01*
X151683686Y-100700000D01*
X152600000Y-100700000D01*
X152600000Y-100052172D01*
X152599999Y-100052155D01*
X152593598Y-99992627D01*
X152593596Y-99992620D01*
X152543354Y-99857913D01*
X152543350Y-99857906D01*
X152457190Y-99742812D01*
X152457187Y-99742809D01*
X152342093Y-99656649D01*
X152342086Y-99656645D01*
X152207379Y-99606403D01*
X152207372Y-99606401D01*
X152147844Y-99600000D01*
X151500000Y-99600000D01*
X151500000Y-100514498D01*
X151392315Y-100465320D01*
X151285763Y-100450000D01*
X151214237Y-100450000D01*
X151107685Y-100465320D01*
X151000000Y-100514498D01*
X151000000Y-99600000D01*
X150352155Y-99600000D01*
X150292627Y-99606401D01*
X150292620Y-99606403D01*
X150157913Y-99656645D01*
X150157906Y-99656649D01*
X150042812Y-99742809D01*
X150042809Y-99742812D01*
X149956649Y-99857906D01*
X149956645Y-99857913D01*
X149906403Y-99992620D01*
X149906401Y-99992627D01*
X149900000Y-100052155D01*
X149900000Y-100700000D01*
X150816314Y-100700000D01*
X150790507Y-100740156D01*
X150750000Y-100878111D01*
X150750000Y-101021889D01*
X150790507Y-101159844D01*
X150816314Y-101200000D01*
X149900000Y-101200000D01*
X149900000Y-101847844D01*
X149906401Y-101907372D01*
X149906403Y-101907379D01*
X149956645Y-102042086D01*
X149956649Y-102042093D01*
X150042809Y-102157187D01*
X150042812Y-102157190D01*
X150165011Y-102248669D01*
X150163647Y-102250490D01*
X150204232Y-102291077D01*
X150219081Y-102359351D01*
X150194661Y-102424814D01*
X150138726Y-102466683D01*
X150095397Y-102474500D01*
X148444419Y-102474500D01*
X148377380Y-102454815D01*
X148331625Y-102402011D01*
X148321681Y-102332853D01*
X148350706Y-102269297D01*
X148392017Y-102238117D01*
X148397921Y-102235363D01*
X148397925Y-102235362D01*
X148546003Y-102144026D01*
X148669026Y-102021003D01*
X148760362Y-101872925D01*
X148815087Y-101707775D01*
X148825500Y-101605848D01*
X148825500Y-101510451D01*
X148845185Y-101443412D01*
X148861815Y-101422774D01*
X149071286Y-101213302D01*
X149083548Y-101203480D01*
X149083365Y-101203259D01*
X149089367Y-101198292D01*
X149089377Y-101198286D01*
X149136741Y-101147848D01*
X149157620Y-101126970D01*
X149161873Y-101121486D01*
X149165650Y-101117063D01*
X149197562Y-101083082D01*
X149207214Y-101065523D01*
X149217889Y-101049272D01*
X149230174Y-101033436D01*
X149248686Y-100990652D01*
X149251242Y-100985435D01*
X149273697Y-100944592D01*
X149278680Y-100925180D01*
X149284977Y-100906791D01*
X149292938Y-100888395D01*
X149300229Y-100842353D01*
X149301408Y-100836662D01*
X149313000Y-100791519D01*
X149313000Y-100771483D01*
X149314527Y-100752082D01*
X149316416Y-100740156D01*
X149317660Y-100732304D01*
X149313275Y-100685915D01*
X149313000Y-100680077D01*
X149313000Y-93012740D01*
X149332685Y-92945701D01*
X149385489Y-92899946D01*
X149454647Y-92890002D01*
X149462749Y-92891444D01*
X149505354Y-92900500D01*
X149505356Y-92900500D01*
X149694644Y-92900500D01*
X149694646Y-92900500D01*
X149879803Y-92861144D01*
X150052730Y-92784151D01*
X150102503Y-92747989D01*
X150169681Y-92699182D01*
X150235487Y-92675702D01*
X150242566Y-92675500D01*
X152205973Y-92675500D01*
X152273012Y-92695185D01*
G37*
%TD.AperFunction*%
%TA.AperFunction,Conductor*%
G36*
X161644086Y-91720184D02*
G01*
X161664727Y-91736817D01*
X162088834Y-92160925D01*
X162511697Y-92583788D01*
X162521522Y-92596051D01*
X162521743Y-92595869D01*
X162526714Y-92601878D01*
X162552717Y-92626295D01*
X162577135Y-92649226D01*
X162598029Y-92670120D01*
X162603511Y-92674373D01*
X162607943Y-92678157D01*
X162641918Y-92710062D01*
X162659476Y-92719714D01*
X162675733Y-92730393D01*
X162691564Y-92742673D01*
X162703849Y-92747989D01*
X162734333Y-92761182D01*
X162739577Y-92763750D01*
X162780408Y-92786197D01*
X162793023Y-92789435D01*
X162799805Y-92791177D01*
X162818219Y-92797481D01*
X162836604Y-92805438D01*
X162882657Y-92812732D01*
X162888326Y-92813906D01*
X162933481Y-92825500D01*
X162953516Y-92825500D01*
X162972913Y-92827026D01*
X162992696Y-92830160D01*
X163039083Y-92825775D01*
X163044922Y-92825500D01*
X167715819Y-92825500D01*
X167782858Y-92845185D01*
X167828613Y-92897989D01*
X167838557Y-92967147D01*
X167821358Y-93014594D01*
X167807305Y-93037380D01*
X167765187Y-93105663D01*
X167765185Y-93105668D01*
X167761950Y-93115432D01*
X167710001Y-93272203D01*
X167710001Y-93272204D01*
X167710000Y-93272204D01*
X167699500Y-93374983D01*
X167699500Y-94000001D01*
X167699501Y-94000019D01*
X167710000Y-94102796D01*
X167710001Y-94102799D01*
X167765185Y-94269331D01*
X167765187Y-94269336D01*
X167795974Y-94319250D01*
X167857288Y-94418656D01*
X167950953Y-94512321D01*
X167984436Y-94573640D01*
X167979452Y-94643332D01*
X167950952Y-94687680D01*
X167857287Y-94781345D01*
X167843906Y-94803039D01*
X167775198Y-94914435D01*
X167774481Y-94915597D01*
X167722533Y-94962321D01*
X167668942Y-94974500D01*
X167582738Y-94974500D01*
X167567121Y-94972776D01*
X167567094Y-94973062D01*
X167559332Y-94972327D01*
X167490204Y-94974500D01*
X167460650Y-94974500D01*
X167459929Y-94974590D01*
X167453757Y-94975369D01*
X167447945Y-94975826D01*
X167401373Y-94977290D01*
X167401372Y-94977290D01*
X167382129Y-94982881D01*
X167363079Y-94986825D01*
X167343211Y-94989334D01*
X167343209Y-94989335D01*
X167299884Y-95006488D01*
X167294357Y-95008380D01*
X167249610Y-95021381D01*
X167249609Y-95021382D01*
X167232367Y-95031579D01*
X167214899Y-95040137D01*
X167196269Y-95047513D01*
X167196267Y-95047514D01*
X167158576Y-95074898D01*
X167153694Y-95078105D01*
X167113579Y-95101830D01*
X167099408Y-95116000D01*
X167084623Y-95128628D01*
X167068412Y-95140407D01*
X167038709Y-95176310D01*
X167034777Y-95180631D01*
X166516208Y-95699199D01*
X166503951Y-95709020D01*
X166504134Y-95709241D01*
X166498123Y-95714213D01*
X166450772Y-95764636D01*
X166429889Y-95785519D01*
X166429877Y-95785532D01*
X166425621Y-95791017D01*
X166421837Y-95795447D01*
X166389937Y-95829418D01*
X166389936Y-95829420D01*
X166380284Y-95846976D01*
X166369610Y-95863226D01*
X166357329Y-95879061D01*
X166357324Y-95879068D01*
X166338815Y-95921838D01*
X166336245Y-95927084D01*
X166313803Y-95967906D01*
X166308822Y-95987307D01*
X166302521Y-96005710D01*
X166294562Y-96024102D01*
X166294561Y-96024105D01*
X166287271Y-96070127D01*
X166286087Y-96075846D01*
X166274501Y-96120972D01*
X166274499Y-96120984D01*
X166274499Y-96141020D01*
X166272973Y-96160411D01*
X166269840Y-96180194D01*
X166269840Y-96180195D01*
X166274225Y-96226583D01*
X166274500Y-96232421D01*
X166274500Y-102189546D01*
X166254815Y-102256585D01*
X166238182Y-102277227D01*
X166077226Y-102438182D01*
X166015905Y-102471666D01*
X165989547Y-102474500D01*
X164618364Y-102474500D01*
X164551325Y-102454815D01*
X164505570Y-102402011D01*
X164495626Y-102332853D01*
X164524651Y-102269297D01*
X164583429Y-102231523D01*
X164586270Y-102230725D01*
X164613486Y-102223432D01*
X164613492Y-102223429D01*
X164827578Y-102123600D01*
X164827582Y-102123598D01*
X164911373Y-102064926D01*
X164911373Y-102064925D01*
X164282533Y-101436086D01*
X164292315Y-101434680D01*
X164423100Y-101374952D01*
X164531761Y-101280798D01*
X164609493Y-101159844D01*
X164633076Y-101079524D01*
X165264925Y-101711373D01*
X165264926Y-101711373D01*
X165323598Y-101627582D01*
X165323600Y-101627578D01*
X165423429Y-101413492D01*
X165423433Y-101413483D01*
X165484567Y-101185326D01*
X165484569Y-101185315D01*
X165505157Y-100950001D01*
X165505157Y-100949998D01*
X165484569Y-100714684D01*
X165484567Y-100714673D01*
X165423433Y-100486516D01*
X165423429Y-100486507D01*
X165323600Y-100272423D01*
X165323599Y-100272421D01*
X165264925Y-100188626D01*
X165264925Y-100188625D01*
X164633076Y-100820475D01*
X164609493Y-100740156D01*
X164531761Y-100619202D01*
X164423100Y-100525048D01*
X164292315Y-100465320D01*
X164282531Y-100463913D01*
X164911373Y-99835073D01*
X164911373Y-99835072D01*
X164827583Y-99776402D01*
X164827579Y-99776400D01*
X164613492Y-99676570D01*
X164613483Y-99676566D01*
X164385326Y-99615432D01*
X164385315Y-99615430D01*
X164150002Y-99594843D01*
X164149998Y-99594843D01*
X163914684Y-99615430D01*
X163914673Y-99615432D01*
X163686516Y-99676566D01*
X163686507Y-99676570D01*
X163472419Y-99776401D01*
X163388626Y-99835072D01*
X163388625Y-99835073D01*
X164017466Y-100463913D01*
X164007685Y-100465320D01*
X163876900Y-100525048D01*
X163768239Y-100619202D01*
X163690507Y-100740156D01*
X163666923Y-100820474D01*
X163035073Y-100188625D01*
X163035072Y-100188625D01*
X162976401Y-100272419D01*
X162876570Y-100486507D01*
X162876566Y-100486516D01*
X162815432Y-100714673D01*
X162815430Y-100714684D01*
X162794843Y-100949998D01*
X162794843Y-100950001D01*
X162815430Y-101185315D01*
X162815432Y-101185326D01*
X162876566Y-101413483D01*
X162876570Y-101413492D01*
X162976400Y-101627579D01*
X162976402Y-101627583D01*
X163035072Y-101711373D01*
X163035073Y-101711373D01*
X163666923Y-101079523D01*
X163690507Y-101159844D01*
X163768239Y-101280798D01*
X163876900Y-101374952D01*
X164007685Y-101434680D01*
X164017466Y-101436086D01*
X163388625Y-102064925D01*
X163472421Y-102123599D01*
X163686507Y-102223429D01*
X163686513Y-102223432D01*
X163713730Y-102230725D01*
X163773390Y-102267090D01*
X163803919Y-102329937D01*
X163795624Y-102399313D01*
X163751139Y-102453191D01*
X163684587Y-102474465D01*
X163681636Y-102474500D01*
X160120297Y-102474500D01*
X160053258Y-102454815D01*
X160007503Y-102402011D01*
X159997559Y-102332853D01*
X160026584Y-102269297D01*
X160085362Y-102231523D01*
X160088204Y-102230725D01*
X160106461Y-102225832D01*
X160113663Y-102223903D01*
X160327830Y-102124035D01*
X160521401Y-101988495D01*
X160688495Y-101821401D01*
X160824035Y-101627830D01*
X160923903Y-101413663D01*
X160985063Y-101185408D01*
X161005659Y-100950000D01*
X161002661Y-100915739D01*
X160994821Y-100826122D01*
X160985063Y-100714592D01*
X160923903Y-100486337D01*
X160824035Y-100272171D01*
X160815230Y-100259595D01*
X160688494Y-100078597D01*
X160521402Y-99911506D01*
X160521401Y-99911505D01*
X160388093Y-99818161D01*
X160328376Y-99776347D01*
X160284751Y-99721770D01*
X160275500Y-99674772D01*
X160275500Y-95725226D01*
X160295185Y-95658187D01*
X160328374Y-95623654D01*
X160521401Y-95488495D01*
X160662052Y-95347844D01*
X162800000Y-95347844D01*
X162806401Y-95407372D01*
X162806403Y-95407379D01*
X162856645Y-95542086D01*
X162856649Y-95542093D01*
X162942809Y-95657187D01*
X162942812Y-95657190D01*
X163057906Y-95743350D01*
X163057913Y-95743354D01*
X163192620Y-95793596D01*
X163192627Y-95793598D01*
X163252155Y-95799999D01*
X163252172Y-95800000D01*
X163900000Y-95800000D01*
X163900000Y-94885501D01*
X164007685Y-94934680D01*
X164114237Y-94950000D01*
X164185763Y-94950000D01*
X164292315Y-94934680D01*
X164400000Y-94885501D01*
X164400000Y-95800000D01*
X165047828Y-95800000D01*
X165047844Y-95799999D01*
X165107372Y-95793598D01*
X165107379Y-95793596D01*
X165242086Y-95743354D01*
X165242093Y-95743350D01*
X165357187Y-95657190D01*
X165357190Y-95657187D01*
X165443350Y-95542093D01*
X165443354Y-95542086D01*
X165493596Y-95407379D01*
X165493598Y-95407372D01*
X165499999Y-95347844D01*
X165500000Y-95347827D01*
X165500000Y-94700000D01*
X164583686Y-94700000D01*
X164609493Y-94659844D01*
X164650000Y-94521889D01*
X164650000Y-94378111D01*
X164609493Y-94240156D01*
X164583686Y-94200000D01*
X165500000Y-94200000D01*
X165500000Y-93552172D01*
X165499999Y-93552155D01*
X165493598Y-93492627D01*
X165493596Y-93492620D01*
X165443354Y-93357913D01*
X165443350Y-93357906D01*
X165357190Y-93242812D01*
X165357187Y-93242809D01*
X165242093Y-93156649D01*
X165242086Y-93156645D01*
X165107379Y-93106403D01*
X165107372Y-93106401D01*
X165047844Y-93100000D01*
X164400000Y-93100000D01*
X164400000Y-94014498D01*
X164292315Y-93965320D01*
X164185763Y-93950000D01*
X164114237Y-93950000D01*
X164007685Y-93965320D01*
X163900000Y-94014498D01*
X163900000Y-93100000D01*
X163252155Y-93100000D01*
X163192627Y-93106401D01*
X163192620Y-93106403D01*
X163057913Y-93156645D01*
X163057906Y-93156649D01*
X162942812Y-93242809D01*
X162942809Y-93242812D01*
X162856649Y-93357906D01*
X162856645Y-93357913D01*
X162806403Y-93492620D01*
X162806401Y-93492627D01*
X162800000Y-93552155D01*
X162800000Y-94200000D01*
X163716314Y-94200000D01*
X163690507Y-94240156D01*
X163650000Y-94378111D01*
X163650000Y-94521889D01*
X163690507Y-94659844D01*
X163716314Y-94700000D01*
X162800000Y-94700000D01*
X162800000Y-95347844D01*
X160662052Y-95347844D01*
X160688495Y-95321401D01*
X160824035Y-95127830D01*
X160923903Y-94913663D01*
X160985063Y-94685408D01*
X161005659Y-94450000D01*
X160985063Y-94214592D01*
X160947981Y-94076200D01*
X160949644Y-94006353D01*
X160953950Y-93994874D01*
X160958549Y-93984246D01*
X160961182Y-93978163D01*
X160963748Y-93972924D01*
X160986197Y-93932092D01*
X160991180Y-93912680D01*
X160997481Y-93894280D01*
X161005437Y-93875896D01*
X161012729Y-93829852D01*
X161013906Y-93824171D01*
X161025500Y-93779019D01*
X161025500Y-93758982D01*
X161027027Y-93739582D01*
X161027132Y-93738920D01*
X161030160Y-93719804D01*
X161025775Y-93673415D01*
X161025500Y-93667577D01*
X161025500Y-91824499D01*
X161045185Y-91757460D01*
X161097989Y-91711705D01*
X161149500Y-91700499D01*
X161577047Y-91700499D01*
X161644086Y-91720184D01*
G37*
%TD.AperFunction*%
%TA.AperFunction,Conductor*%
G36*
X144204809Y-82570185D02*
G01*
X144225451Y-82586819D01*
X144577614Y-82938982D01*
X144611099Y-83000305D01*
X144606115Y-83069997D01*
X144564243Y-83125930D01*
X144522026Y-83146438D01*
X144411344Y-83176094D01*
X144411335Y-83176098D01*
X144197171Y-83275964D01*
X144197169Y-83275965D01*
X144003597Y-83411505D01*
X143836505Y-83578597D01*
X143700965Y-83772169D01*
X143700964Y-83772171D01*
X143601098Y-83986335D01*
X143601094Y-83986344D01*
X143539938Y-84214586D01*
X143539936Y-84214596D01*
X143519341Y-84449999D01*
X143519341Y-84450000D01*
X143539936Y-84685403D01*
X143539938Y-84685413D01*
X143601094Y-84913655D01*
X143601096Y-84913659D01*
X143601097Y-84913663D01*
X143688220Y-85100499D01*
X143700965Y-85127830D01*
X143700967Y-85127834D01*
X143836501Y-85321395D01*
X143836506Y-85321402D01*
X144003597Y-85488493D01*
X144003603Y-85488498D01*
X144189158Y-85618425D01*
X144232783Y-85673002D01*
X144239977Y-85742500D01*
X144208454Y-85804855D01*
X144189158Y-85821575D01*
X144003597Y-85951505D01*
X143836505Y-86118597D01*
X143700965Y-86312169D01*
X143700964Y-86312171D01*
X143613145Y-86500500D01*
X143602316Y-86523724D01*
X143601098Y-86526335D01*
X143601094Y-86526344D01*
X143539938Y-86754586D01*
X143539936Y-86754596D01*
X143519341Y-86989999D01*
X143519341Y-86990000D01*
X143539936Y-87225403D01*
X143539938Y-87225413D01*
X143601094Y-87453655D01*
X143601096Y-87453659D01*
X143601097Y-87453663D01*
X143689665Y-87643598D01*
X143700965Y-87667830D01*
X143700967Y-87667834D01*
X143771640Y-87768764D01*
X143836501Y-87861396D01*
X143836506Y-87861402D01*
X144003597Y-88028493D01*
X144003603Y-88028498D01*
X144189158Y-88158425D01*
X144232783Y-88213002D01*
X144239977Y-88282500D01*
X144208454Y-88344855D01*
X144189158Y-88361575D01*
X144003597Y-88491505D01*
X143836505Y-88658597D01*
X143700965Y-88852169D01*
X143700964Y-88852171D01*
X143601098Y-89066335D01*
X143601094Y-89066344D01*
X143539938Y-89294586D01*
X143539936Y-89294596D01*
X143519341Y-89529999D01*
X143519341Y-89530000D01*
X143539936Y-89765403D01*
X143539938Y-89765413D01*
X143601094Y-89993655D01*
X143601096Y-89993659D01*
X143601097Y-89993663D01*
X143650043Y-90098627D01*
X143700965Y-90207830D01*
X143700967Y-90207834D01*
X143797928Y-90346307D01*
X143826012Y-90386416D01*
X143836501Y-90401395D01*
X143836506Y-90401402D01*
X144003597Y-90568493D01*
X144003603Y-90568498D01*
X144189158Y-90698425D01*
X144232783Y-90753002D01*
X144239977Y-90822500D01*
X144208454Y-90884855D01*
X144189158Y-90901575D01*
X144003597Y-91031505D01*
X143836505Y-91198597D01*
X143700965Y-91392169D01*
X143700964Y-91392171D01*
X143601098Y-91606335D01*
X143601094Y-91606344D01*
X143539938Y-91834586D01*
X143539936Y-91834596D01*
X143519341Y-92069999D01*
X143519341Y-92070000D01*
X143539936Y-92305403D01*
X143539938Y-92305413D01*
X143601094Y-92533655D01*
X143601096Y-92533659D01*
X143601097Y-92533663D01*
X143685743Y-92715186D01*
X143700965Y-92747830D01*
X143700967Y-92747834D01*
X143788532Y-92872889D01*
X143829723Y-92931716D01*
X143836501Y-92941395D01*
X143836506Y-92941402D01*
X144003597Y-93108493D01*
X144003603Y-93108498D01*
X144189594Y-93238730D01*
X144233219Y-93293307D01*
X144240413Y-93362805D01*
X144208890Y-93425160D01*
X144189595Y-93441880D01*
X144003922Y-93571890D01*
X144003920Y-93571891D01*
X143836891Y-93738920D01*
X143836886Y-93738926D01*
X143701400Y-93932420D01*
X143701399Y-93932422D01*
X143601570Y-94146507D01*
X143601567Y-94146513D01*
X143544364Y-94359999D01*
X143544364Y-94360000D01*
X144441314Y-94360000D01*
X144415507Y-94400156D01*
X144375000Y-94538111D01*
X144375000Y-94681889D01*
X144415507Y-94819844D01*
X144441314Y-94860000D01*
X143544364Y-94860000D01*
X143601567Y-95073486D01*
X143601570Y-95073492D01*
X143701399Y-95287578D01*
X143836894Y-95481082D01*
X143958946Y-95603134D01*
X143992431Y-95664457D01*
X143987447Y-95734149D01*
X143945575Y-95790082D01*
X143914598Y-95806997D01*
X143782671Y-95856202D01*
X143782664Y-95856206D01*
X143667455Y-95942452D01*
X143667452Y-95942455D01*
X143581206Y-96057664D01*
X143581202Y-96057671D01*
X143530908Y-96192517D01*
X143524501Y-96252116D01*
X143524500Y-96252135D01*
X143524500Y-96275500D01*
X143504815Y-96342539D01*
X143452011Y-96388294D01*
X143400500Y-96399500D01*
X143212229Y-96399500D01*
X143145190Y-96379815D01*
X143124553Y-96363185D01*
X142986817Y-96225449D01*
X142953334Y-96164128D01*
X142950500Y-96137770D01*
X142950500Y-82862228D01*
X142970185Y-82795189D01*
X142986814Y-82774552D01*
X143174548Y-82586818D01*
X143235871Y-82553334D01*
X143262229Y-82550500D01*
X144137770Y-82550500D01*
X144204809Y-82570185D01*
G37*
%TD.AperFunction*%
%TA.AperFunction,Conductor*%
G36*
X162216821Y-82870185D02*
G01*
X162255319Y-82909401D01*
X162307288Y-82993656D01*
X162431344Y-83117712D01*
X162580666Y-83209814D01*
X162580667Y-83209814D01*
X162586813Y-83213605D01*
X162585706Y-83215399D01*
X162630337Y-83254687D01*
X162649500Y-83320908D01*
X162649500Y-83336294D01*
X162648191Y-83354263D01*
X162644710Y-83378025D01*
X162648577Y-83422215D01*
X162648864Y-83425499D01*
X162649264Y-83430064D01*
X162649500Y-83435470D01*
X162649500Y-83443709D01*
X162653306Y-83476274D01*
X162660000Y-83552791D01*
X162661461Y-83559867D01*
X162661403Y-83559878D01*
X162663034Y-83567237D01*
X162663092Y-83567224D01*
X162664757Y-83574250D01*
X162691025Y-83646424D01*
X162715185Y-83719331D01*
X162718236Y-83725874D01*
X162718182Y-83725898D01*
X162721470Y-83732688D01*
X162721521Y-83732663D01*
X162724761Y-83739113D01*
X162724762Y-83739114D01*
X162724763Y-83739117D01*
X162746503Y-83772171D01*
X162766965Y-83803283D01*
X162807287Y-83868655D01*
X162811766Y-83874319D01*
X162811719Y-83874356D01*
X162816482Y-83880202D01*
X162816528Y-83880164D01*
X162821173Y-83885700D01*
X162877018Y-83938386D01*
X162877019Y-83938387D01*
X163153228Y-84214596D01*
X163424268Y-84485635D01*
X163436049Y-84499267D01*
X163450390Y-84518530D01*
X163490420Y-84552119D01*
X163494392Y-84555759D01*
X163500223Y-84561590D01*
X163500222Y-84561590D01*
X163524264Y-84580599D01*
X163525944Y-84581927D01*
X163584786Y-84631302D01*
X163584794Y-84631306D01*
X163590824Y-84635273D01*
X163590790Y-84635323D01*
X163597137Y-84639366D01*
X163597169Y-84639316D01*
X163603318Y-84643108D01*
X163603320Y-84643109D01*
X163603323Y-84643111D01*
X163672930Y-84675569D01*
X163741567Y-84710040D01*
X163741576Y-84710042D01*
X163748355Y-84712510D01*
X163748334Y-84712567D01*
X163755451Y-84715040D01*
X163755470Y-84714984D01*
X163762330Y-84717257D01*
X163830335Y-84731298D01*
X163837532Y-84732784D01*
X163912279Y-84750500D01*
X163912288Y-84750500D01*
X163919452Y-84751338D01*
X163919445Y-84751397D01*
X163926946Y-84752163D01*
X163926952Y-84752104D01*
X163934140Y-84752733D01*
X163934143Y-84752732D01*
X163934144Y-84752733D01*
X164010898Y-84750500D01*
X166537770Y-84750500D01*
X166604809Y-84770185D01*
X166625451Y-84786819D01*
X167949270Y-86110638D01*
X167961051Y-86124270D01*
X167975388Y-86143528D01*
X168015409Y-86177111D01*
X168019397Y-86180766D01*
X168025216Y-86186585D01*
X168025220Y-86186588D01*
X168025223Y-86186591D01*
X168050959Y-86206940D01*
X168109786Y-86256302D01*
X168109787Y-86256302D01*
X168109789Y-86256304D01*
X168115818Y-86260270D01*
X168115785Y-86260319D01*
X168122147Y-86264372D01*
X168122179Y-86264321D01*
X168128319Y-86268108D01*
X168128323Y-86268111D01*
X168155241Y-86280663D01*
X168197941Y-86300575D01*
X168219940Y-86311623D01*
X168266567Y-86335040D01*
X168266569Y-86335040D01*
X168273357Y-86337511D01*
X168273336Y-86337567D01*
X168280457Y-86340043D01*
X168280476Y-86339986D01*
X168287322Y-86342254D01*
X168287327Y-86342257D01*
X168287332Y-86342258D01*
X168287335Y-86342259D01*
X168342146Y-86353576D01*
X168362565Y-86357792D01*
X168437279Y-86375500D01*
X168437282Y-86375500D01*
X168437286Y-86375501D01*
X168444453Y-86376339D01*
X168444446Y-86376398D01*
X168451944Y-86377164D01*
X168451950Y-86377105D01*
X168459139Y-86377734D01*
X168459143Y-86377733D01*
X168459144Y-86377734D01*
X168535917Y-86375500D01*
X168730500Y-86375500D01*
X168797539Y-86395185D01*
X168843294Y-86447989D01*
X168854500Y-86499500D01*
X168854500Y-86515696D01*
X168857401Y-86552567D01*
X168857402Y-86552573D01*
X168899576Y-86697733D01*
X168904500Y-86732328D01*
X168904500Y-87088751D01*
X168884815Y-87155790D01*
X168832011Y-87201545D01*
X168819508Y-87206456D01*
X168793161Y-87215187D01*
X168786623Y-87218236D01*
X168786598Y-87218184D01*
X168779810Y-87221470D01*
X168779836Y-87221521D01*
X168773385Y-87224761D01*
X168709223Y-87266961D01*
X168643846Y-87307285D01*
X168638182Y-87311765D01*
X168638146Y-87311719D01*
X168632298Y-87316484D01*
X168632335Y-87316528D01*
X168626810Y-87321164D01*
X168574114Y-87377017D01*
X166687949Y-89263181D01*
X166626626Y-89296666D01*
X166600268Y-89299500D01*
X166199998Y-89299500D01*
X166199980Y-89299501D01*
X166097203Y-89310000D01*
X166097200Y-89310001D01*
X165930668Y-89365185D01*
X165930663Y-89365187D01*
X165781342Y-89457289D01*
X165687681Y-89550951D01*
X165626358Y-89584436D01*
X165556666Y-89579452D01*
X165512319Y-89550951D01*
X165418657Y-89457289D01*
X165418656Y-89457289D01*
X165418656Y-89457288D01*
X165302320Y-89385532D01*
X165269336Y-89365187D01*
X165269331Y-89365185D01*
X165266681Y-89364307D01*
X165102797Y-89310001D01*
X165102795Y-89310000D01*
X165000010Y-89299500D01*
X164374998Y-89299500D01*
X164374980Y-89299501D01*
X164272203Y-89310000D01*
X164272200Y-89310001D01*
X164188504Y-89337736D01*
X164118676Y-89340138D01*
X164058634Y-89304406D01*
X164027441Y-89241886D01*
X164025500Y-89220030D01*
X164025500Y-87602980D01*
X164045185Y-87535941D01*
X164084402Y-87497441D01*
X164171003Y-87444026D01*
X164294026Y-87321003D01*
X164294755Y-87319821D01*
X164295466Y-87319181D01*
X164298507Y-87315336D01*
X164299163Y-87315855D01*
X164346701Y-87273097D01*
X164415664Y-87261873D01*
X164479746Y-87289715D01*
X164501761Y-87315123D01*
X164501888Y-87315023D01*
X164504113Y-87317838D01*
X164505833Y-87319822D01*
X164506365Y-87320685D01*
X164506369Y-87320690D01*
X164629308Y-87443629D01*
X164777285Y-87534903D01*
X164777290Y-87534905D01*
X164942326Y-87589592D01*
X165044184Y-87599999D01*
X165044197Y-87600000D01*
X165087500Y-87600000D01*
X165087500Y-86650000D01*
X165587500Y-86650000D01*
X165587500Y-87600000D01*
X165630803Y-87600000D01*
X165630815Y-87599999D01*
X165732673Y-87589592D01*
X165897709Y-87534905D01*
X165897714Y-87534903D01*
X166045691Y-87443629D01*
X166168629Y-87320691D01*
X166259903Y-87172714D01*
X166259905Y-87172709D01*
X166314592Y-87007673D01*
X166324999Y-86905815D01*
X166325000Y-86905802D01*
X166325000Y-86650000D01*
X165587500Y-86650000D01*
X165087500Y-86650000D01*
X165087500Y-85200000D01*
X165587500Y-85200000D01*
X165587500Y-86150000D01*
X166325000Y-86150000D01*
X166325000Y-85894197D01*
X166324999Y-85894184D01*
X166314592Y-85792326D01*
X166259905Y-85627290D01*
X166259903Y-85627285D01*
X166168629Y-85479308D01*
X166045691Y-85356370D01*
X165897714Y-85265096D01*
X165897709Y-85265094D01*
X165732673Y-85210407D01*
X165630815Y-85200000D01*
X165587500Y-85200000D01*
X165087500Y-85200000D01*
X165044184Y-85200000D01*
X164942326Y-85210407D01*
X164777290Y-85265094D01*
X164777285Y-85265096D01*
X164629308Y-85356370D01*
X164506369Y-85479309D01*
X164506364Y-85479315D01*
X164505829Y-85480184D01*
X164505306Y-85480654D01*
X164501888Y-85484977D01*
X164501149Y-85484392D01*
X164453879Y-85526906D01*
X164384916Y-85538125D01*
X164320835Y-85510278D01*
X164298586Y-85484601D01*
X164298507Y-85484664D01*
X164297111Y-85482898D01*
X164294758Y-85480183D01*
X164294028Y-85478999D01*
X164171003Y-85355974D01*
X164170999Y-85355971D01*
X164022933Y-85264642D01*
X164022927Y-85264639D01*
X164022925Y-85264638D01*
X164006701Y-85259262D01*
X163857776Y-85209913D01*
X163755855Y-85199500D01*
X163755848Y-85199500D01*
X163169152Y-85199500D01*
X163169144Y-85199500D01*
X163067223Y-85209913D01*
X162902077Y-85264637D01*
X162902066Y-85264642D01*
X162754000Y-85355971D01*
X162753996Y-85355974D01*
X162630974Y-85478996D01*
X162630971Y-85479000D01*
X162539642Y-85627066D01*
X162539637Y-85627077D01*
X162484913Y-85792223D01*
X162474500Y-85894144D01*
X162474500Y-86905855D01*
X162484913Y-87007776D01*
X162539637Y-87172922D01*
X162539642Y-87172933D01*
X162630971Y-87320999D01*
X162630974Y-87321003D01*
X162738181Y-87428210D01*
X162771666Y-87489533D01*
X162774500Y-87515891D01*
X162774500Y-89917255D01*
X162772775Y-89932872D01*
X162773061Y-89932899D01*
X162772326Y-89940665D01*
X162774500Y-90009814D01*
X162774500Y-90039343D01*
X162774501Y-90039360D01*
X162775368Y-90046231D01*
X162775826Y-90052050D01*
X162777290Y-90098624D01*
X162777291Y-90098627D01*
X162782880Y-90117867D01*
X162786824Y-90136911D01*
X162789336Y-90156791D01*
X162806490Y-90200119D01*
X162808382Y-90205647D01*
X162821381Y-90250388D01*
X162831580Y-90267634D01*
X162840138Y-90285103D01*
X162847514Y-90303732D01*
X162874898Y-90341423D01*
X162878106Y-90346307D01*
X162901827Y-90386416D01*
X162901833Y-90386424D01*
X162915990Y-90400580D01*
X162928628Y-90415376D01*
X162940405Y-90431586D01*
X162940406Y-90431587D01*
X162976309Y-90461288D01*
X162980620Y-90465210D01*
X163213835Y-90698425D01*
X163399194Y-90883784D01*
X163409019Y-90896048D01*
X163409240Y-90895866D01*
X163414210Y-90901873D01*
X163414213Y-90901876D01*
X163414214Y-90901877D01*
X163464651Y-90949241D01*
X163482823Y-90967413D01*
X163485529Y-90970119D01*
X163491004Y-90974366D01*
X163495446Y-90978160D01*
X163529415Y-91010060D01*
X163529417Y-91010061D01*
X163529418Y-91010062D01*
X163546976Y-91019714D01*
X163563235Y-91030395D01*
X163564667Y-91031505D01*
X163579064Y-91042673D01*
X163621823Y-91061176D01*
X163627073Y-91063748D01*
X163639424Y-91070538D01*
X163688688Y-91120083D01*
X163697393Y-91140195D01*
X163740186Y-91269333D01*
X163740187Y-91269336D01*
X163749325Y-91284151D01*
X163791181Y-91352011D01*
X163811778Y-91385403D01*
X163830218Y-91452796D01*
X163809295Y-91519459D01*
X163755653Y-91564229D01*
X163706239Y-91574500D01*
X163322952Y-91574500D01*
X163255913Y-91554815D01*
X163235271Y-91538181D01*
X162361818Y-90664727D01*
X162328333Y-90603404D01*
X162325499Y-90577046D01*
X162325499Y-89999998D01*
X162325498Y-89999981D01*
X162314999Y-89897203D01*
X162314998Y-89897200D01*
X162293532Y-89832421D01*
X162259814Y-89730666D01*
X162167712Y-89581344D01*
X162043656Y-89457288D01*
X161927320Y-89385532D01*
X161894336Y-89365187D01*
X161894331Y-89365185D01*
X161891681Y-89364307D01*
X161727797Y-89310001D01*
X161727795Y-89310000D01*
X161625010Y-89299500D01*
X160999998Y-89299500D01*
X160999977Y-89299502D01*
X160920491Y-89307621D01*
X160851798Y-89294851D01*
X160828851Y-89279807D01*
X160823694Y-89275541D01*
X160819381Y-89271617D01*
X159463976Y-87916211D01*
X159454153Y-87903950D01*
X159453932Y-87904134D01*
X159448959Y-87898123D01*
X159448958Y-87898122D01*
X159398537Y-87850773D01*
X159392547Y-87844783D01*
X159386559Y-87838794D01*
X159353077Y-87777469D01*
X159358064Y-87707778D01*
X159386564Y-87663435D01*
X159400000Y-87649999D01*
X159400000Y-86650000D01*
X159900000Y-86650000D01*
X159900000Y-87650000D01*
X160697828Y-87650000D01*
X160697844Y-87649999D01*
X160757372Y-87643598D01*
X160757379Y-87643596D01*
X160892086Y-87593354D01*
X160892093Y-87593350D01*
X161007187Y-87507190D01*
X161007190Y-87507187D01*
X161093350Y-87392093D01*
X161093354Y-87392086D01*
X161143596Y-87257379D01*
X161143598Y-87257372D01*
X161149999Y-87197844D01*
X161150000Y-87197827D01*
X161150000Y-86650000D01*
X159900000Y-86650000D01*
X159400000Y-86650000D01*
X158150000Y-86650000D01*
X158150000Y-87197844D01*
X158156401Y-87257372D01*
X158156403Y-87257379D01*
X158206645Y-87392086D01*
X158206647Y-87392089D01*
X158269604Y-87476188D01*
X158294022Y-87541653D01*
X158279171Y-87609926D01*
X158229766Y-87659332D01*
X158170338Y-87674500D01*
X147910452Y-87674500D01*
X147843413Y-87654815D01*
X147822771Y-87638181D01*
X146790803Y-86606212D01*
X146780980Y-86593950D01*
X146780759Y-86594134D01*
X146775786Y-86588123D01*
X146755549Y-86569119D01*
X146725364Y-86540773D01*
X146710926Y-86526335D01*
X146704475Y-86519883D01*
X146698986Y-86515625D01*
X146694561Y-86511847D01*
X146660582Y-86479938D01*
X146660580Y-86479936D01*
X146660577Y-86479935D01*
X146643029Y-86470288D01*
X146626763Y-86459604D01*
X146610933Y-86447325D01*
X146568168Y-86428818D01*
X146562922Y-86426248D01*
X146522093Y-86403803D01*
X146522092Y-86403802D01*
X146502693Y-86398822D01*
X146484281Y-86392518D01*
X146465898Y-86384562D01*
X146465892Y-86384560D01*
X146419874Y-86377272D01*
X146414152Y-86376087D01*
X146369021Y-86364500D01*
X146369019Y-86364500D01*
X146348984Y-86364500D01*
X146329586Y-86362973D01*
X146322162Y-86361797D01*
X146309805Y-86359840D01*
X146309804Y-86359840D01*
X146263416Y-86364225D01*
X146257578Y-86364500D01*
X146150227Y-86364500D01*
X146083188Y-86344815D01*
X146048652Y-86311623D01*
X146005503Y-86250000D01*
X149275001Y-86250000D01*
X149275001Y-86299986D01*
X149285494Y-86402697D01*
X149340641Y-86569119D01*
X149340643Y-86569124D01*
X149432684Y-86718345D01*
X149556654Y-86842315D01*
X149705875Y-86934356D01*
X149705880Y-86934358D01*
X149872302Y-86989505D01*
X149872309Y-86989506D01*
X149975019Y-86999999D01*
X150249999Y-86999999D01*
X150250000Y-86999998D01*
X150250000Y-86250000D01*
X149275001Y-86250000D01*
X146005503Y-86250000D01*
X145913494Y-86118597D01*
X145746402Y-85951506D01*
X145746396Y-85951501D01*
X145560842Y-85821575D01*
X145517217Y-85766998D01*
X145510023Y-85697500D01*
X145541546Y-85635145D01*
X145560842Y-85618425D01*
X145608423Y-85585108D01*
X145746401Y-85488495D01*
X145913495Y-85321401D01*
X146049035Y-85127830D01*
X146148903Y-84913663D01*
X146181719Y-84791187D01*
X146218083Y-84731529D01*
X146280930Y-84700999D01*
X146350306Y-84709293D01*
X146381200Y-84728293D01*
X146384786Y-84731302D01*
X146384794Y-84731306D01*
X146390824Y-84735273D01*
X146390790Y-84735323D01*
X146397137Y-84739366D01*
X146397169Y-84739316D01*
X146403318Y-84743108D01*
X146403320Y-84743109D01*
X146403323Y-84743111D01*
X146472930Y-84775569D01*
X146541567Y-84810040D01*
X146541576Y-84810042D01*
X146548355Y-84812510D01*
X146548334Y-84812567D01*
X146555451Y-84815040D01*
X146555470Y-84814984D01*
X146562330Y-84817257D01*
X146637531Y-84832784D01*
X146637532Y-84832784D01*
X146712279Y-84850500D01*
X146712288Y-84850500D01*
X146719452Y-84851338D01*
X146719445Y-84851397D01*
X146726946Y-84852163D01*
X146726952Y-84852104D01*
X146734140Y-84852733D01*
X146734143Y-84852732D01*
X146734144Y-84852733D01*
X146810898Y-84850500D01*
X149412770Y-84850500D01*
X149479809Y-84870185D01*
X149500451Y-84886819D01*
X149556344Y-84942712D01*
X149558327Y-84943935D01*
X149559653Y-84944753D01*
X149561445Y-84946746D01*
X149562011Y-84947193D01*
X149561934Y-84947289D01*
X149606379Y-84996699D01*
X149617603Y-85065661D01*
X149589761Y-85129744D01*
X149559665Y-85155826D01*
X149556660Y-85157679D01*
X149556655Y-85157683D01*
X149432684Y-85281654D01*
X149340643Y-85430875D01*
X149340641Y-85430880D01*
X149285494Y-85597302D01*
X149285493Y-85597309D01*
X149275000Y-85700013D01*
X149275000Y-85750000D01*
X150626000Y-85750000D01*
X150693039Y-85769685D01*
X150738794Y-85822489D01*
X150750000Y-85874000D01*
X150750000Y-86999999D01*
X151024972Y-86999999D01*
X151024986Y-86999998D01*
X151127697Y-86989505D01*
X151294119Y-86934358D01*
X151294124Y-86934356D01*
X151443345Y-86842315D01*
X151567315Y-86718345D01*
X151659356Y-86569124D01*
X151659358Y-86569119D01*
X151714505Y-86402697D01*
X151714506Y-86402689D01*
X151719661Y-86352238D01*
X151746057Y-86287546D01*
X151803238Y-86247394D01*
X151873049Y-86244531D01*
X151933326Y-86279865D01*
X151942277Y-86290518D01*
X151992454Y-86357546D01*
X151992455Y-86357546D01*
X151992456Y-86357548D01*
X152107664Y-86443793D01*
X152107671Y-86443797D01*
X152242517Y-86494091D01*
X152242516Y-86494091D01*
X152249444Y-86494835D01*
X152302127Y-86500500D01*
X154397872Y-86500499D01*
X154457483Y-86494091D01*
X154592331Y-86443796D01*
X154707546Y-86357546D01*
X154793796Y-86242331D01*
X154844091Y-86107483D01*
X154850500Y-86047873D01*
X154850500Y-85724500D01*
X154870185Y-85657461D01*
X154922989Y-85611706D01*
X154974500Y-85600500D01*
X158026000Y-85600500D01*
X158093039Y-85620185D01*
X158138794Y-85672989D01*
X158150000Y-85724500D01*
X158150000Y-86150000D01*
X161150000Y-86150000D01*
X161150000Y-85602172D01*
X161149999Y-85602155D01*
X161143598Y-85542627D01*
X161143596Y-85542620D01*
X161093354Y-85407913D01*
X161093352Y-85407910D01*
X161031082Y-85324727D01*
X161006665Y-85259262D01*
X161021517Y-85190989D01*
X161031083Y-85176104D01*
X161044873Y-85157683D01*
X161093796Y-85092331D01*
X161144091Y-84957483D01*
X161150500Y-84897873D01*
X161150500Y-84100729D01*
X161150500Y-83975665D01*
X161150500Y-83971501D01*
X161150499Y-83971483D01*
X161150499Y-83302129D01*
X161150498Y-83302123D01*
X161147686Y-83275965D01*
X161144091Y-83242517D01*
X161144091Y-83242516D01*
X161093796Y-83107667D01*
X161091121Y-83102769D01*
X161076269Y-83034496D01*
X161100686Y-82969032D01*
X161156619Y-82927160D01*
X161226311Y-82922176D01*
X161250385Y-82930061D01*
X161320197Y-82961144D01*
X161505354Y-83000500D01*
X161505355Y-83000500D01*
X161694644Y-83000500D01*
X161694646Y-83000500D01*
X161879803Y-82961144D01*
X162052730Y-82884151D01*
X162054776Y-82882664D01*
X162066452Y-82874182D01*
X162132258Y-82850702D01*
X162139337Y-82850500D01*
X162149782Y-82850500D01*
X162216821Y-82870185D01*
G37*
%TD.AperFunction*%
%TA.AperFunction,Conductor*%
G36*
X175063085Y-88670185D02*
G01*
X175108840Y-88722989D01*
X175118784Y-88792147D01*
X175115382Y-88806772D01*
X175114327Y-88811738D01*
X175114326Y-88811742D01*
X175114326Y-88811744D01*
X175111449Y-88839117D01*
X175095614Y-88989778D01*
X175069029Y-89054393D01*
X175011732Y-89094377D01*
X174962566Y-89100434D01*
X174950697Y-89099500D01*
X174950694Y-89099500D01*
X174519306Y-89099500D01*
X174519304Y-89099500D01*
X174482432Y-89102401D01*
X174482426Y-89102402D01*
X174324606Y-89148254D01*
X174324603Y-89148255D01*
X174183137Y-89231917D01*
X174176969Y-89236702D01*
X174175078Y-89234265D01*
X174126295Y-89260871D01*
X174056606Y-89255850D01*
X174024300Y-89235065D01*
X174023031Y-89236702D01*
X174016862Y-89231917D01*
X173902432Y-89164244D01*
X173875398Y-89148256D01*
X173875397Y-89148255D01*
X173875396Y-89148255D01*
X173875393Y-89148254D01*
X173717573Y-89102402D01*
X173717567Y-89102401D01*
X173680696Y-89099500D01*
X173680694Y-89099500D01*
X173249306Y-89099500D01*
X173249304Y-89099500D01*
X173212432Y-89102401D01*
X173212426Y-89102402D01*
X173054606Y-89148254D01*
X173054603Y-89148255D01*
X172913137Y-89231917D01*
X172906969Y-89236702D01*
X172905072Y-89234256D01*
X172856358Y-89260857D01*
X172786666Y-89255873D01*
X172754296Y-89235069D01*
X172753031Y-89236702D01*
X172746862Y-89231917D01*
X172632432Y-89164244D01*
X172605398Y-89148256D01*
X172605397Y-89148255D01*
X172605396Y-89148255D01*
X172605393Y-89148254D01*
X172447573Y-89102402D01*
X172447567Y-89102401D01*
X172410696Y-89099500D01*
X172410694Y-89099500D01*
X171979306Y-89099500D01*
X171979304Y-89099500D01*
X171942432Y-89102401D01*
X171942426Y-89102402D01*
X171784606Y-89148254D01*
X171784603Y-89148255D01*
X171643137Y-89231917D01*
X171636969Y-89236702D01*
X171635072Y-89234256D01*
X171586358Y-89260857D01*
X171516666Y-89255873D01*
X171484296Y-89235069D01*
X171483031Y-89236702D01*
X171476862Y-89231917D01*
X171362432Y-89164244D01*
X171335398Y-89148256D01*
X171335397Y-89148255D01*
X171335396Y-89148255D01*
X171335393Y-89148254D01*
X171177573Y-89102402D01*
X171177567Y-89102401D01*
X171140696Y-89099500D01*
X171140694Y-89099500D01*
X170709306Y-89099500D01*
X170709304Y-89099500D01*
X170672432Y-89102401D01*
X170672426Y-89102402D01*
X170514606Y-89148254D01*
X170514603Y-89148255D01*
X170373140Y-89231915D01*
X170366974Y-89236699D01*
X170365174Y-89234379D01*
X170315913Y-89261230D01*
X170246225Y-89256193D01*
X170213992Y-89235461D01*
X170212722Y-89237100D01*
X170206552Y-89232314D01*
X170065196Y-89148717D01*
X170065193Y-89148716D01*
X169907494Y-89102900D01*
X169907497Y-89102900D01*
X169905000Y-89102703D01*
X169905000Y-90701000D01*
X169885315Y-90768039D01*
X169832511Y-90813794D01*
X169781000Y-90825000D01*
X168855000Y-90825000D01*
X168855000Y-91450500D01*
X168835315Y-91517539D01*
X168782511Y-91563294D01*
X168731000Y-91574500D01*
X167493761Y-91574500D01*
X167426722Y-91554815D01*
X167380967Y-91502011D01*
X167371023Y-91432853D01*
X167388222Y-91385403D01*
X167404803Y-91358521D01*
X167459814Y-91269334D01*
X167514999Y-91102797D01*
X167525500Y-91000009D01*
X167525499Y-90599728D01*
X167545183Y-90532690D01*
X167561813Y-90512053D01*
X168693121Y-89380745D01*
X168754442Y-89347262D01*
X168824134Y-89352246D01*
X168880067Y-89394118D01*
X168904484Y-89459582D01*
X168899877Y-89503022D01*
X168857899Y-89647510D01*
X168855000Y-89684356D01*
X168855000Y-90325000D01*
X169405000Y-90325000D01*
X169405000Y-89102703D01*
X169402508Y-89102900D01*
X169258023Y-89144877D01*
X169188153Y-89144677D01*
X169129483Y-89106735D01*
X169100640Y-89043096D01*
X169110781Y-88973966D01*
X169135744Y-88938122D01*
X169387048Y-88686818D01*
X169448371Y-88653334D01*
X169474729Y-88650500D01*
X170612279Y-88650500D01*
X174996046Y-88650500D01*
X175063085Y-88670185D01*
G37*
%TD.AperFunction*%
%TD*%
M02*
