M48
; DRILL file {KiCad 7.0.6} date Tue Apr 30 21:30:09 2024
; FORMAT={-:-/ absolute / inch / decimal}
; #@! TF.CreationDate,2024-04-30T21:30:09+02:00
; #@! TF.GenerationSoftware,Kicad,Pcbnew,7.0.6
; #@! TF.FileFunction,MixedPlating,1,2
FMAT,2
INCH
; #@! TA.AperFunction,Plated,PTH,ViaDrill
T1C0.0157
; #@! TA.AperFunction,Plated,PTH,ComponentDrill
T2C0.0228
; #@! TA.AperFunction,Plated,PTH,ComponentDrill
T3C0.0315
; #@! TA.AperFunction,Plated,PTH,ComponentDrill
T4C0.0394
%
G90
G05
T1
X5.7008Y-4.0354
X5.8898Y-3.622
X5.9291Y-3.7795
X6.0079Y-3.563
X6.0276Y-3.6732
X6.3622Y-3.2323
X6.4213Y-3.3386
X6.5709Y-3.7008
X6.5984Y-3.4055
X6.626Y-3.5709
X6.7165Y-3.2992
X6.878Y-3.6299
X6.8858Y-3.2953
X6.9291Y-3.5039
X7.0984Y-3.4646
T2
X7.1981Y-3.3856
X7.1981Y-3.4289
X7.1981Y-3.4722
X7.1981Y-3.5155
X7.1981Y-3.5746
X7.1981Y-3.6474
X7.1981Y-3.7065
X7.1981Y-3.7498
X7.1981Y-3.7931
X7.1981Y-3.8364
X7.2296Y-3.545
X7.2296Y-3.6769
X7.2503Y-3.4161
X7.2503Y-3.4594
X7.2503Y-3.5027
X7.2503Y-3.7193
X7.2503Y-3.7626
X7.2503Y-3.8059
X7.271Y-3.5598
X7.271Y-3.6622
X7.3025Y-3.4004
X7.3025Y-3.4437
X7.3025Y-3.487
X7.3025Y-3.5303
X7.3025Y-3.5893
X7.3025Y-3.6326
X7.3025Y-3.6917
X7.3025Y-3.735
X7.3025Y-3.7783
X7.3025Y-3.8216
T3
X6.737Y-3.9291
X6.9291Y-3.9291
T4
X5.7037Y-3.3248
X5.7037Y-3.4248
X5.7037Y-3.5248
X5.7037Y-3.6248
X5.7037Y-3.7248
X5.7037Y-3.8248
X5.9547Y-3.7185
X5.9547Y-3.9744
X6.1319Y-3.7185
X6.1319Y-3.9744
X6.2854Y-3.7185
X6.2854Y-3.9744
X6.4626Y-3.7185
X6.4626Y-3.9744
T4
G00X7.208Y-3.2606
M15
G01X7.2926Y-3.2606
M16
G05
G00X7.208Y-3.9614
M15
G01X7.2926Y-3.9614
M16
G05
T0
M30
