%TF.GenerationSoftware,KiCad,Pcbnew,7.0.6*%
%TF.CreationDate,2024-04-30T21:30:12+02:00*%
%TF.ProjectId,F_Board_V1.1,465f426f-6172-4645-9f56-312e312e6b69,rev?*%
%TF.SameCoordinates,Original*%
%TF.FileFunction,Copper,L2,Bot*%
%TF.FilePolarity,Positive*%
%FSLAX46Y46*%
G04 Gerber Fmt 4.6, Leading zero omitted, Abs format (unit mm)*
G04 Created by KiCad (PCBNEW 7.0.6) date 2024-04-30 21:30:12*
%MOMM*%
%LPD*%
G01*
G04 APERTURE LIST*
%ADD10C,0.125000*%
%TA.AperFunction,NonConductor*%
%ADD11C,0.125000*%
%TD*%
%TA.AperFunction,ComponentPad*%
%ADD12R,1.700000X1.700000*%
%TD*%
%TA.AperFunction,ComponentPad*%
%ADD13C,1.700000*%
%TD*%
%TA.AperFunction,ComponentPad*%
%ADD14C,1.500000*%
%TD*%
%TA.AperFunction,ComponentPad*%
%ADD15R,0.930000X0.930000*%
%TD*%
%TA.AperFunction,ComponentPad*%
%ADD16C,0.930000*%
%TD*%
%TA.AperFunction,ComponentPad*%
%ADD17O,4.150000X2.075000*%
%TD*%
%TA.AperFunction,ComponentPad*%
%ADD18O,1.700000X1.700000*%
%TD*%
%TA.AperFunction,ViaPad*%
%ADD19C,0.800000*%
%TD*%
%TA.AperFunction,Conductor*%
%ADD20C,0.500000*%
%TD*%
%TA.AperFunction,Conductor*%
%ADD21C,0.250000*%
%TD*%
G04 APERTURE END LIST*
D10*
D11*
X178574906Y-96239785D02*
X178774906Y-96239785D01*
X178774906Y-96554071D02*
X178774906Y-95954071D01*
X178774906Y-95954071D02*
X178489192Y-95954071D01*
X178403478Y-96611214D02*
X177946335Y-96611214D01*
X177603477Y-96239785D02*
X177517763Y-96268357D01*
X177517763Y-96268357D02*
X177489192Y-96296928D01*
X177489192Y-96296928D02*
X177460620Y-96354071D01*
X177460620Y-96354071D02*
X177460620Y-96439785D01*
X177460620Y-96439785D02*
X177489192Y-96496928D01*
X177489192Y-96496928D02*
X177517763Y-96525500D01*
X177517763Y-96525500D02*
X177574906Y-96554071D01*
X177574906Y-96554071D02*
X177803477Y-96554071D01*
X177803477Y-96554071D02*
X177803477Y-95954071D01*
X177803477Y-95954071D02*
X177603477Y-95954071D01*
X177603477Y-95954071D02*
X177546335Y-95982642D01*
X177546335Y-95982642D02*
X177517763Y-96011214D01*
X177517763Y-96011214D02*
X177489192Y-96068357D01*
X177489192Y-96068357D02*
X177489192Y-96125500D01*
X177489192Y-96125500D02*
X177517763Y-96182642D01*
X177517763Y-96182642D02*
X177546335Y-96211214D01*
X177546335Y-96211214D02*
X177603477Y-96239785D01*
X177603477Y-96239785D02*
X177803477Y-96239785D01*
X177117763Y-96554071D02*
X177174906Y-96525500D01*
X177174906Y-96525500D02*
X177203477Y-96496928D01*
X177203477Y-96496928D02*
X177232049Y-96439785D01*
X177232049Y-96439785D02*
X177232049Y-96268357D01*
X177232049Y-96268357D02*
X177203477Y-96211214D01*
X177203477Y-96211214D02*
X177174906Y-96182642D01*
X177174906Y-96182642D02*
X177117763Y-96154071D01*
X177117763Y-96154071D02*
X177032049Y-96154071D01*
X177032049Y-96154071D02*
X176974906Y-96182642D01*
X176974906Y-96182642D02*
X176946335Y-96211214D01*
X176946335Y-96211214D02*
X176917763Y-96268357D01*
X176917763Y-96268357D02*
X176917763Y-96439785D01*
X176917763Y-96439785D02*
X176946335Y-96496928D01*
X176946335Y-96496928D02*
X176974906Y-96525500D01*
X176974906Y-96525500D02*
X177032049Y-96554071D01*
X177032049Y-96554071D02*
X177117763Y-96554071D01*
X176403478Y-96554071D02*
X176403478Y-96239785D01*
X176403478Y-96239785D02*
X176432049Y-96182642D01*
X176432049Y-96182642D02*
X176489192Y-96154071D01*
X176489192Y-96154071D02*
X176603478Y-96154071D01*
X176603478Y-96154071D02*
X176660620Y-96182642D01*
X176403478Y-96525500D02*
X176460620Y-96554071D01*
X176460620Y-96554071D02*
X176603478Y-96554071D01*
X176603478Y-96554071D02*
X176660620Y-96525500D01*
X176660620Y-96525500D02*
X176689192Y-96468357D01*
X176689192Y-96468357D02*
X176689192Y-96411214D01*
X176689192Y-96411214D02*
X176660620Y-96354071D01*
X176660620Y-96354071D02*
X176603478Y-96325500D01*
X176603478Y-96325500D02*
X176460620Y-96325500D01*
X176460620Y-96325500D02*
X176403478Y-96296928D01*
X176117763Y-96554071D02*
X176117763Y-96154071D01*
X176117763Y-96268357D02*
X176089192Y-96211214D01*
X176089192Y-96211214D02*
X176060621Y-96182642D01*
X176060621Y-96182642D02*
X176003478Y-96154071D01*
X176003478Y-96154071D02*
X175946335Y-96154071D01*
X175489192Y-96554071D02*
X175489192Y-95954071D01*
X175489192Y-96525500D02*
X175546334Y-96554071D01*
X175546334Y-96554071D02*
X175660620Y-96554071D01*
X175660620Y-96554071D02*
X175717763Y-96525500D01*
X175717763Y-96525500D02*
X175746334Y-96496928D01*
X175746334Y-96496928D02*
X175774906Y-96439785D01*
X175774906Y-96439785D02*
X175774906Y-96268357D01*
X175774906Y-96268357D02*
X175746334Y-96211214D01*
X175746334Y-96211214D02*
X175717763Y-96182642D01*
X175717763Y-96182642D02*
X175660620Y-96154071D01*
X175660620Y-96154071D02*
X175546334Y-96154071D01*
X175546334Y-96154071D02*
X175489192Y-96182642D01*
X174832049Y-95954071D02*
X174632049Y-96554071D01*
X174632049Y-96554071D02*
X174432049Y-95954071D01*
X173917763Y-96554071D02*
X174260620Y-96554071D01*
X174089191Y-96554071D02*
X174089191Y-95954071D01*
X174089191Y-95954071D02*
X174146334Y-96039785D01*
X174146334Y-96039785D02*
X174203477Y-96096928D01*
X174203477Y-96096928D02*
X174260620Y-96125500D01*
X173660619Y-96496928D02*
X173632048Y-96525500D01*
X173632048Y-96525500D02*
X173660619Y-96554071D01*
X173660619Y-96554071D02*
X173689191Y-96525500D01*
X173689191Y-96525500D02*
X173660619Y-96496928D01*
X173660619Y-96496928D02*
X173660619Y-96554071D01*
X173060620Y-96554071D02*
X173403477Y-96554071D01*
X173232048Y-96554071D02*
X173232048Y-95954071D01*
X173232048Y-95954071D02*
X173289191Y-96039785D01*
X173289191Y-96039785D02*
X173346334Y-96096928D01*
X173346334Y-96096928D02*
X173403477Y-96125500D01*
X178289192Y-97062928D02*
X178346335Y-97034357D01*
X178346335Y-97034357D02*
X178460621Y-97034357D01*
X178460621Y-97034357D02*
X178517764Y-97062928D01*
X178517764Y-97062928D02*
X178574906Y-97120071D01*
X178574906Y-97120071D02*
X178603478Y-97177214D01*
X178603478Y-97177214D02*
X178603478Y-97291500D01*
X178603478Y-97291500D02*
X178574906Y-97348642D01*
X178574906Y-97348642D02*
X178517764Y-97405785D01*
X178517764Y-97405785D02*
X178460621Y-97434357D01*
X178460621Y-97434357D02*
X178346335Y-97434357D01*
X178346335Y-97434357D02*
X178289192Y-97405785D01*
X178403478Y-96834357D02*
X178546335Y-96862928D01*
X178546335Y-96862928D02*
X178689192Y-96948642D01*
X178689192Y-96948642D02*
X178774906Y-97091500D01*
X178774906Y-97091500D02*
X178803478Y-97234357D01*
X178803478Y-97234357D02*
X178774906Y-97377214D01*
X178774906Y-97377214D02*
X178689192Y-97520071D01*
X178689192Y-97520071D02*
X178546335Y-97605785D01*
X178546335Y-97605785D02*
X178403478Y-97634357D01*
X178403478Y-97634357D02*
X178260621Y-97605785D01*
X178260621Y-97605785D02*
X178117764Y-97520071D01*
X178117764Y-97520071D02*
X178032049Y-97377214D01*
X178032049Y-97377214D02*
X178003478Y-97234357D01*
X178003478Y-97234357D02*
X178032049Y-97091500D01*
X178032049Y-97091500D02*
X178117764Y-96948642D01*
X178117764Y-96948642D02*
X178260621Y-96862928D01*
X178260621Y-96862928D02*
X178403478Y-96834357D01*
X177289192Y-97520071D02*
X177289192Y-96920071D01*
X177289192Y-96920071D02*
X177146335Y-96920071D01*
X177146335Y-96920071D02*
X177060621Y-96948642D01*
X177060621Y-96948642D02*
X177003478Y-97005785D01*
X177003478Y-97005785D02*
X176974907Y-97062928D01*
X176974907Y-97062928D02*
X176946335Y-97177214D01*
X176946335Y-97177214D02*
X176946335Y-97262928D01*
X176946335Y-97262928D02*
X176974907Y-97377214D01*
X176974907Y-97377214D02*
X177003478Y-97434357D01*
X177003478Y-97434357D02*
X177060621Y-97491500D01*
X177060621Y-97491500D02*
X177146335Y-97520071D01*
X177146335Y-97520071D02*
X177289192Y-97520071D01*
X176689192Y-97462928D02*
X176660621Y-97491500D01*
X176660621Y-97491500D02*
X176689192Y-97520071D01*
X176689192Y-97520071D02*
X176717764Y-97491500D01*
X176717764Y-97491500D02*
X176689192Y-97462928D01*
X176689192Y-97462928D02*
X176689192Y-97520071D01*
X175946335Y-97520071D02*
X175946335Y-96920071D01*
X175946335Y-96920071D02*
X175603478Y-97520071D01*
X175603478Y-97520071D02*
X175603478Y-96920071D01*
X175232050Y-97520071D02*
X175289193Y-97491500D01*
X175289193Y-97491500D02*
X175317764Y-97462928D01*
X175317764Y-97462928D02*
X175346336Y-97405785D01*
X175346336Y-97405785D02*
X175346336Y-97234357D01*
X175346336Y-97234357D02*
X175317764Y-97177214D01*
X175317764Y-97177214D02*
X175289193Y-97148642D01*
X175289193Y-97148642D02*
X175232050Y-97120071D01*
X175232050Y-97120071D02*
X175146336Y-97120071D01*
X175146336Y-97120071D02*
X175089193Y-97148642D01*
X175089193Y-97148642D02*
X175060622Y-97177214D01*
X175060622Y-97177214D02*
X175032050Y-97234357D01*
X175032050Y-97234357D02*
X175032050Y-97405785D01*
X175032050Y-97405785D02*
X175060622Y-97462928D01*
X175060622Y-97462928D02*
X175089193Y-97491500D01*
X175089193Y-97491500D02*
X175146336Y-97520071D01*
X175146336Y-97520071D02*
X175232050Y-97520071D01*
X174832050Y-97120071D02*
X174689193Y-97520071D01*
X174689193Y-97520071D02*
X174546336Y-97120071D01*
X174060622Y-97520071D02*
X174060622Y-97205785D01*
X174060622Y-97205785D02*
X174089193Y-97148642D01*
X174089193Y-97148642D02*
X174146336Y-97120071D01*
X174146336Y-97120071D02*
X174260622Y-97120071D01*
X174260622Y-97120071D02*
X174317764Y-97148642D01*
X174060622Y-97491500D02*
X174117764Y-97520071D01*
X174117764Y-97520071D02*
X174260622Y-97520071D01*
X174260622Y-97520071D02*
X174317764Y-97491500D01*
X174317764Y-97491500D02*
X174346336Y-97434357D01*
X174346336Y-97434357D02*
X174346336Y-97377214D01*
X174346336Y-97377214D02*
X174317764Y-97320071D01*
X174317764Y-97320071D02*
X174260622Y-97291500D01*
X174260622Y-97291500D02*
X174117764Y-97291500D01*
X174117764Y-97291500D02*
X174060622Y-97262928D01*
X173774907Y-97520071D02*
X173774907Y-96920071D01*
X173717765Y-97291500D02*
X173546336Y-97520071D01*
X173546336Y-97120071D02*
X173774907Y-97348642D01*
X172860622Y-96977214D02*
X172832050Y-96948642D01*
X172832050Y-96948642D02*
X172774908Y-96920071D01*
X172774908Y-96920071D02*
X172632050Y-96920071D01*
X172632050Y-96920071D02*
X172574908Y-96948642D01*
X172574908Y-96948642D02*
X172546336Y-96977214D01*
X172546336Y-96977214D02*
X172517765Y-97034357D01*
X172517765Y-97034357D02*
X172517765Y-97091500D01*
X172517765Y-97091500D02*
X172546336Y-97177214D01*
X172546336Y-97177214D02*
X172889193Y-97520071D01*
X172889193Y-97520071D02*
X172517765Y-97520071D01*
X172146336Y-96920071D02*
X172089193Y-96920071D01*
X172089193Y-96920071D02*
X172032050Y-96948642D01*
X172032050Y-96948642D02*
X172003479Y-96977214D01*
X172003479Y-96977214D02*
X171974907Y-97034357D01*
X171974907Y-97034357D02*
X171946336Y-97148642D01*
X171946336Y-97148642D02*
X171946336Y-97291500D01*
X171946336Y-97291500D02*
X171974907Y-97405785D01*
X171974907Y-97405785D02*
X172003479Y-97462928D01*
X172003479Y-97462928D02*
X172032050Y-97491500D01*
X172032050Y-97491500D02*
X172089193Y-97520071D01*
X172089193Y-97520071D02*
X172146336Y-97520071D01*
X172146336Y-97520071D02*
X172203479Y-97491500D01*
X172203479Y-97491500D02*
X172232050Y-97462928D01*
X172232050Y-97462928D02*
X172260621Y-97405785D01*
X172260621Y-97405785D02*
X172289193Y-97291500D01*
X172289193Y-97291500D02*
X172289193Y-97148642D01*
X172289193Y-97148642D02*
X172260621Y-97034357D01*
X172260621Y-97034357D02*
X172232050Y-96977214D01*
X172232050Y-96977214D02*
X172203479Y-96948642D01*
X172203479Y-96948642D02*
X172146336Y-96920071D01*
X171717764Y-96977214D02*
X171689192Y-96948642D01*
X171689192Y-96948642D02*
X171632050Y-96920071D01*
X171632050Y-96920071D02*
X171489192Y-96920071D01*
X171489192Y-96920071D02*
X171432050Y-96948642D01*
X171432050Y-96948642D02*
X171403478Y-96977214D01*
X171403478Y-96977214D02*
X171374907Y-97034357D01*
X171374907Y-97034357D02*
X171374907Y-97091500D01*
X171374907Y-97091500D02*
X171403478Y-97177214D01*
X171403478Y-97177214D02*
X171746335Y-97520071D01*
X171746335Y-97520071D02*
X171374907Y-97520071D01*
X171174906Y-96920071D02*
X170803478Y-96920071D01*
X170803478Y-96920071D02*
X171003478Y-97148642D01*
X171003478Y-97148642D02*
X170917763Y-97148642D01*
X170917763Y-97148642D02*
X170860621Y-97177214D01*
X170860621Y-97177214D02*
X170832049Y-97205785D01*
X170832049Y-97205785D02*
X170803478Y-97262928D01*
X170803478Y-97262928D02*
X170803478Y-97405785D01*
X170803478Y-97405785D02*
X170832049Y-97462928D01*
X170832049Y-97462928D02*
X170860621Y-97491500D01*
X170860621Y-97491500D02*
X170917763Y-97520071D01*
X170917763Y-97520071D02*
X171089192Y-97520071D01*
X171089192Y-97520071D02*
X171146335Y-97491500D01*
X171146335Y-97491500D02*
X171174906Y-97462928D01*
D12*
%TO.P,SW2,1,1*%
%TO.N,/GND*%
X151250000Y-100950000D03*
D13*
X151250000Y-94450000D03*
%TO.P,SW2,2,2*%
%TO.N,Net-(J1-Pin_6)*%
X155750000Y-100950000D03*
X155750000Y-94450000D03*
%TD*%
D12*
%TO.P,SW1,1,1*%
%TO.N,/GND*%
X164150000Y-94450000D03*
D13*
X164150000Y-100950000D03*
%TO.P,SW1,2,2*%
%TO.N,Net-(J1-Pin_5)*%
X159650000Y-94450000D03*
X159650000Y-100950000D03*
%TD*%
D14*
%TO.P,Y1,1,1*%
%TO.N,Net-(U1-XI)*%
X171120000Y-99800000D03*
%TO.P,Y1,2,2*%
%TO.N,Net-(U1-XO)*%
X176000000Y-99800000D03*
%TD*%
D15*
%TO.P,J2,A1,A1*%
%TO.N,/GND*%
X182832500Y-97444250D03*
D16*
%TO.P,J2,A2,A2*%
%TO.N,unconnected-(J2-PadA2)*%
X182832500Y-96344250D03*
%TO.P,J2,A3,A3*%
%TO.N,unconnected-(J2-PadA3)*%
X182832500Y-95244250D03*
%TO.P,J2,A4,A4*%
%TO.N,/+5V*%
X182832500Y-94144250D03*
%TO.P,J2,A5,A5*%
%TO.N,Net-(J2-PadA5)*%
X183632500Y-93394250D03*
%TO.P,J2,A6,A6*%
%TO.N,Net-(U1-UD+)*%
X182832500Y-92644250D03*
%TO.P,J2,A7,A7*%
%TO.N,Net-(U1-UD-)*%
X182832500Y-90794250D03*
%TO.P,J2,A8,A8*%
%TO.N,unconnected-(J2-PadA8)*%
X183632500Y-90044250D03*
%TO.P,J2,A9,A9*%
%TO.N,/+5V*%
X182832500Y-89294250D03*
%TO.P,J2,A10,A10*%
%TO.N,unconnected-(J2-PadA10)*%
X182832500Y-88194250D03*
%TO.P,J2,A11,A11*%
%TO.N,unconnected-(J2-PadA11)*%
X182832500Y-87094250D03*
%TO.P,J2,A12,A12*%
%TO.N,/GND*%
X182832500Y-85994250D03*
%TO.P,J2,B1,B1*%
%TO.N,Net-(J2-GND-PadG1)*%
X185482500Y-86369250D03*
%TO.P,J2,B2,B2*%
%TO.N,unconnected-(J2-PadB2)*%
X185482500Y-87469250D03*
%TO.P,J2,B3,B3*%
%TO.N,unconnected-(J2-PadB3)*%
X185482500Y-88569250D03*
%TO.P,J2,B4,B4*%
%TO.N,/+5V*%
X185482500Y-89669250D03*
%TO.P,J2,B5,B5*%
%TO.N,Net-(J2-PadB5)*%
X184682500Y-90419250D03*
%TO.P,J2,B6,B6*%
%TO.N,Net-(U1-UD+)*%
X185482500Y-91169250D03*
%TO.P,J2,B7,B7*%
%TO.N,Net-(U1-UD-)*%
X185482500Y-92269250D03*
%TO.P,J2,B8,B8*%
%TO.N,unconnected-(J2-PadB8)*%
X184682500Y-93019250D03*
%TO.P,J2,B9,B9*%
%TO.N,/+5V*%
X185482500Y-93769250D03*
%TO.P,J2,B10,B10*%
%TO.N,unconnected-(J2-PadB10)*%
X185482500Y-94869250D03*
%TO.P,J2,B11,B11*%
%TO.N,unconnected-(J2-PadB11)*%
X185482500Y-95969250D03*
%TO.P,J2,B12,B12*%
%TO.N,Net-(J2-GND-PadG1)*%
X185482500Y-97069250D03*
%TO.P,J2,G1,GND*%
X184157500Y-96669250D03*
%TO.P,J2,G2,GND*%
X184157500Y-95569250D03*
%TO.P,J2,G3,GND*%
X184157500Y-94469250D03*
%TO.P,J2,G4,GND*%
X184157500Y-88969250D03*
%TO.P,J2,G5,GND*%
X184157500Y-87869250D03*
%TO.P,J2,G6,GND*%
X184157500Y-86769250D03*
D17*
%TO.P,J2,S1,SHIELD*%
%TO.N,/GND*%
X184157500Y-100619250D03*
%TO.P,J2,S2,SHIELD*%
X184157500Y-82819250D03*
%TD*%
D12*
%TO.P,J1,1,Pin_1*%
%TO.N,/3V3*%
X144875000Y-97150000D03*
D18*
%TO.P,J1,2,Pin_2*%
%TO.N,/GND*%
X144875000Y-94610000D03*
%TO.P,J1,3,Pin_3*%
%TO.N,Net-(D2-K)*%
X144875000Y-92070000D03*
%TO.P,J1,4,Pin_4*%
%TO.N,Net-(D1-K)*%
X144875000Y-89530000D03*
%TO.P,J1,5,Pin_5*%
%TO.N,Net-(J1-Pin_5)*%
X144875000Y-86990000D03*
%TO.P,J1,6,Pin_6*%
%TO.N,Net-(J1-Pin_6)*%
X144875000Y-84450000D03*
%TD*%
D19*
%TO.N,/GND*%
X163100000Y-84800000D03*
X168300000Y-90700000D03*
X150600000Y-96000000D03*
X166900000Y-94000000D03*
X167600000Y-86500000D03*
%TO.N,/+5V*%
X152600000Y-90500000D03*
X161600000Y-82100000D03*
%TO.N,Net-(D1-K)*%
X144800000Y-102500000D03*
%TO.N,Net-(D2-K)*%
X149600000Y-92000000D03*
%TO.N,Net-(J1-Pin_6)*%
X153100000Y-93300000D03*
%TO.N,Net-(J2-PadA5)*%
X170600000Y-83800000D03*
%TO.N,Net-(U1-UD+)*%
X174700000Y-92200000D03*
%TO.N,Net-(U1-UD-)*%
X176000000Y-89000000D03*
%TO.N,Net-(J2-PadB5)*%
X180300000Y-88000000D03*
X174900000Y-83700000D03*
%TD*%
D20*
%TO.N,/+5V*%
X161600000Y-82100000D02*
X161600000Y-88500000D01*
X161100000Y-89000000D02*
X153700000Y-89000000D01*
X153700000Y-89000000D02*
X152600000Y-90100000D01*
X152600000Y-90100000D02*
X152600000Y-90500000D01*
X161600000Y-88500000D02*
X161100000Y-89000000D01*
D21*
%TO.N,Net-(D1-K)*%
X143170000Y-89530000D02*
X144875000Y-89530000D01*
X142000000Y-90700000D02*
X143170000Y-89530000D01*
X144800000Y-102500000D02*
X144300000Y-102500000D01*
X144300000Y-102500000D02*
X142000000Y-100200000D01*
X142000000Y-100200000D02*
X142000000Y-90700000D01*
%TO.N,Net-(D2-K)*%
X149530000Y-92070000D02*
X144875000Y-92070000D01*
X149600000Y-92000000D02*
X149530000Y-92070000D01*
%TO.N,Net-(J1-Pin_6)*%
X153100000Y-93000000D02*
X151800000Y-91700000D01*
X147450000Y-84450000D02*
X144875000Y-84450000D01*
X151800000Y-91700000D02*
X151800000Y-88800000D01*
X153100000Y-93300000D02*
X153100000Y-93000000D01*
X151800000Y-88800000D02*
X147450000Y-84450000D01*
%TO.N,Net-(J2-PadA5)*%
X170600000Y-83800000D02*
X171200000Y-83800000D01*
X174500000Y-89400000D02*
X175700000Y-90600000D01*
X181084250Y-91584250D02*
X182889729Y-91584250D01*
X171200000Y-83800000D02*
X174500000Y-87100000D01*
X175700000Y-90600000D02*
X180100000Y-90600000D01*
X183632500Y-92327021D02*
X183632500Y-93394250D01*
X180100000Y-90600000D02*
X181084250Y-91584250D01*
X182889729Y-91584250D02*
X183632500Y-92327021D01*
X174500000Y-87100000D02*
X174500000Y-89400000D01*
%TO.N,Net-(U1-UD+)*%
X182832500Y-92644250D02*
X174944250Y-92644250D01*
X174944250Y-92644250D02*
X174700000Y-92200000D01*
%TO.N,Net-(U1-UD-)*%
X184039729Y-91259250D02*
X183297500Y-91259250D01*
X182832500Y-90794250D02*
X180838250Y-88800000D01*
X185482500Y-92269250D02*
X185049729Y-92269250D01*
X176200000Y-88800000D02*
X176000000Y-89000000D01*
X185049729Y-92269250D02*
X184039729Y-91259250D01*
X180838250Y-88800000D02*
X176200000Y-88800000D01*
X183297500Y-91259250D02*
X182832500Y-90794250D01*
%TO.N,Net-(J2-PadB5)*%
X180300000Y-84700000D02*
X180300000Y-88000000D01*
X174900000Y-83700000D02*
X179300000Y-83700000D01*
X179300000Y-83700000D02*
X180300000Y-84700000D01*
%TO.N,Net-(J2-GND-PadG1)*%
X185482500Y-86369250D02*
X186140109Y-86369250D01*
X186900000Y-96300000D02*
X186130750Y-97069250D01*
X186130750Y-97069250D02*
X185482500Y-97069250D01*
X186140109Y-86369250D02*
X186900000Y-87129141D01*
X186900000Y-87129141D02*
X186900000Y-96300000D01*
%TD*%
%TA.AperFunction,Conductor*%
%TO.N,/GND*%
G36*
X191142539Y-79620185D02*
G01*
X191188294Y-79672989D01*
X191199500Y-79724500D01*
X191199500Y-103675500D01*
X191179815Y-103742539D01*
X191127011Y-103788294D01*
X191075500Y-103799500D01*
X140524500Y-103799500D01*
X140457461Y-103779815D01*
X140411706Y-103727011D01*
X140400500Y-103675500D01*
X140400500Y-90680195D01*
X141369840Y-90680195D01*
X141374225Y-90726583D01*
X141374500Y-90732421D01*
X141374500Y-100117255D01*
X141372775Y-100132872D01*
X141373061Y-100132899D01*
X141372326Y-100140665D01*
X141374500Y-100209814D01*
X141374500Y-100239343D01*
X141374501Y-100239360D01*
X141375368Y-100246231D01*
X141375826Y-100252050D01*
X141377290Y-100298624D01*
X141377291Y-100298627D01*
X141382880Y-100317867D01*
X141386824Y-100336911D01*
X141389336Y-100356792D01*
X141406490Y-100400119D01*
X141408382Y-100405647D01*
X141421268Y-100450000D01*
X141421382Y-100450390D01*
X141430211Y-100465320D01*
X141431580Y-100467634D01*
X141440136Y-100485100D01*
X141440629Y-100486344D01*
X141447514Y-100503732D01*
X141474898Y-100541423D01*
X141478106Y-100546307D01*
X141501827Y-100586416D01*
X141501833Y-100586424D01*
X141515990Y-100600580D01*
X141528628Y-100615376D01*
X141540405Y-100631586D01*
X141540406Y-100631587D01*
X141576309Y-100661288D01*
X141580620Y-100665210D01*
X143415408Y-102499999D01*
X143799197Y-102883788D01*
X143809022Y-102896051D01*
X143809243Y-102895869D01*
X143814214Y-102901878D01*
X143840217Y-102926295D01*
X143864635Y-102949226D01*
X143885529Y-102970120D01*
X143891011Y-102974373D01*
X143895443Y-102978157D01*
X143929418Y-103010062D01*
X143946976Y-103019714D01*
X143963235Y-103030395D01*
X143979064Y-103042673D01*
X144021838Y-103061182D01*
X144027056Y-103063738D01*
X144067908Y-103086197D01*
X144087316Y-103091180D01*
X144105714Y-103097479D01*
X144114511Y-103101285D01*
X144157419Y-103132117D01*
X144194124Y-103172884D01*
X144194130Y-103172889D01*
X144347265Y-103284148D01*
X144347270Y-103284151D01*
X144520192Y-103361142D01*
X144520197Y-103361144D01*
X144705354Y-103400500D01*
X144705355Y-103400500D01*
X144894644Y-103400500D01*
X144894646Y-103400500D01*
X145079803Y-103361144D01*
X145252730Y-103284151D01*
X145405871Y-103172888D01*
X145532533Y-103032216D01*
X145627179Y-102868284D01*
X145685674Y-102688256D01*
X145705460Y-102500000D01*
X145685674Y-102311744D01*
X145627179Y-102131716D01*
X145532533Y-101967784D01*
X145424538Y-101847844D01*
X149900000Y-101847844D01*
X149906401Y-101907372D01*
X149906403Y-101907379D01*
X149956645Y-102042086D01*
X149956649Y-102042093D01*
X150042809Y-102157187D01*
X150042812Y-102157190D01*
X150157906Y-102243350D01*
X150157913Y-102243354D01*
X150292620Y-102293596D01*
X150292627Y-102293598D01*
X150352155Y-102299999D01*
X150352172Y-102300000D01*
X151000000Y-102300000D01*
X151000000Y-101385501D01*
X151107685Y-101434680D01*
X151214237Y-101450000D01*
X151285763Y-101450000D01*
X151392315Y-101434680D01*
X151500000Y-101385501D01*
X151500000Y-102300000D01*
X152147828Y-102300000D01*
X152147844Y-102299999D01*
X152207372Y-102293598D01*
X152207379Y-102293596D01*
X152342086Y-102243354D01*
X152342093Y-102243350D01*
X152457187Y-102157190D01*
X152457190Y-102157187D01*
X152543350Y-102042093D01*
X152543354Y-102042086D01*
X152593596Y-101907379D01*
X152593598Y-101907372D01*
X152599999Y-101847844D01*
X152600000Y-101847827D01*
X152600000Y-101200000D01*
X151683686Y-101200000D01*
X151709493Y-101159844D01*
X151750000Y-101021889D01*
X151750000Y-100950000D01*
X154394341Y-100950000D01*
X154414936Y-101185403D01*
X154414938Y-101185413D01*
X154476094Y-101413655D01*
X154476096Y-101413659D01*
X154476097Y-101413663D01*
X154575847Y-101627578D01*
X154575965Y-101627830D01*
X154575967Y-101627834D01*
X154637598Y-101715851D01*
X154711505Y-101821401D01*
X154878599Y-101988495D01*
X154955135Y-102042086D01*
X155072165Y-102124032D01*
X155072167Y-102124033D01*
X155072170Y-102124035D01*
X155286337Y-102223903D01*
X155514592Y-102285063D01*
X155685319Y-102300000D01*
X155749999Y-102305659D01*
X155750000Y-102305659D01*
X155750001Y-102305659D01*
X155814681Y-102300000D01*
X155985408Y-102285063D01*
X156213663Y-102223903D01*
X156427830Y-102124035D01*
X156621401Y-101988495D01*
X156788495Y-101821401D01*
X156924035Y-101627830D01*
X157023903Y-101413663D01*
X157085063Y-101185408D01*
X157105659Y-100950000D01*
X158294341Y-100950000D01*
X158314936Y-101185403D01*
X158314938Y-101185413D01*
X158376094Y-101413655D01*
X158376096Y-101413659D01*
X158376097Y-101413663D01*
X158475847Y-101627578D01*
X158475965Y-101627830D01*
X158475967Y-101627834D01*
X158537598Y-101715851D01*
X158611505Y-101821401D01*
X158778599Y-101988495D01*
X158855135Y-102042086D01*
X158972165Y-102124032D01*
X158972167Y-102124033D01*
X158972170Y-102124035D01*
X159186337Y-102223903D01*
X159414592Y-102285063D01*
X159585319Y-102300000D01*
X159649999Y-102305659D01*
X159650000Y-102305659D01*
X159650001Y-102305659D01*
X159714681Y-102300000D01*
X159885408Y-102285063D01*
X160113663Y-102223903D01*
X160327830Y-102124035D01*
X160521401Y-101988495D01*
X160688495Y-101821401D01*
X160824035Y-101627830D01*
X160923903Y-101413663D01*
X160985063Y-101185408D01*
X161005659Y-100950001D01*
X162794843Y-100950001D01*
X162815430Y-101185315D01*
X162815432Y-101185326D01*
X162876566Y-101413483D01*
X162876570Y-101413492D01*
X162976400Y-101627579D01*
X162976402Y-101627583D01*
X163035072Y-101711373D01*
X163035073Y-101711373D01*
X163666923Y-101079523D01*
X163690507Y-101159844D01*
X163768239Y-101280798D01*
X163876900Y-101374952D01*
X164007685Y-101434680D01*
X164017466Y-101436086D01*
X163388625Y-102064925D01*
X163472421Y-102123599D01*
X163686507Y-102223429D01*
X163686516Y-102223433D01*
X163914673Y-102284567D01*
X163914684Y-102284569D01*
X164149998Y-102305157D01*
X164150002Y-102305157D01*
X164385315Y-102284569D01*
X164385326Y-102284567D01*
X164613483Y-102223433D01*
X164613492Y-102223429D01*
X164827578Y-102123600D01*
X164827582Y-102123598D01*
X164911373Y-102064926D01*
X164911373Y-102064925D01*
X164282533Y-101436086D01*
X164292315Y-101434680D01*
X164423100Y-101374952D01*
X164531761Y-101280798D01*
X164609493Y-101159844D01*
X164633076Y-101079524D01*
X165264925Y-101711373D01*
X165264926Y-101711373D01*
X165323598Y-101627582D01*
X165323600Y-101627578D01*
X165423429Y-101413492D01*
X165423433Y-101413483D01*
X165484567Y-101185326D01*
X165484569Y-101185315D01*
X165505157Y-100950001D01*
X165505157Y-100949998D01*
X165484569Y-100714684D01*
X165484567Y-100714673D01*
X165423433Y-100486516D01*
X165423429Y-100486507D01*
X165323600Y-100272423D01*
X165323599Y-100272421D01*
X165264925Y-100188626D01*
X165264925Y-100188625D01*
X164633076Y-100820475D01*
X164609493Y-100740156D01*
X164531761Y-100619202D01*
X164423100Y-100525048D01*
X164292315Y-100465320D01*
X164282531Y-100463913D01*
X164911373Y-99835073D01*
X164911373Y-99835072D01*
X164861288Y-99800002D01*
X169864723Y-99800002D01*
X169883793Y-100017975D01*
X169883793Y-100017979D01*
X169940422Y-100229322D01*
X169940424Y-100229326D01*
X169940425Y-100229330D01*
X169949658Y-100249130D01*
X170032897Y-100427638D01*
X170032898Y-100427639D01*
X170158402Y-100606877D01*
X170313123Y-100761598D01*
X170492361Y-100887102D01*
X170690670Y-100979575D01*
X170902023Y-101036207D01*
X171084926Y-101052208D01*
X171119998Y-101055277D01*
X171120000Y-101055277D01*
X171120002Y-101055277D01*
X171148254Y-101052805D01*
X171337977Y-101036207D01*
X171549330Y-100979575D01*
X171747639Y-100887102D01*
X171926877Y-100761598D01*
X172081598Y-100606877D01*
X172207102Y-100427639D01*
X172299575Y-100229330D01*
X172356207Y-100017977D01*
X172375277Y-99800002D01*
X174744723Y-99800002D01*
X174763793Y-100017975D01*
X174763793Y-100017979D01*
X174820422Y-100229322D01*
X174820424Y-100229326D01*
X174820425Y-100229330D01*
X174829658Y-100249130D01*
X174912897Y-100427638D01*
X174912898Y-100427639D01*
X175038402Y-100606877D01*
X175193123Y-100761598D01*
X175372361Y-100887102D01*
X175570670Y-100979575D01*
X175782023Y-101036207D01*
X175964926Y-101052208D01*
X175999998Y-101055277D01*
X176000000Y-101055277D01*
X176000002Y-101055277D01*
X176028254Y-101052805D01*
X176217977Y-101036207D01*
X176429330Y-100979575D01*
X176627639Y-100887102D01*
X176653134Y-100869250D01*
X181601563Y-100869250D01*
X181608669Y-100927782D01*
X181608671Y-100927789D01*
X181677734Y-101166223D01*
X181677735Y-101166226D01*
X181784155Y-101390504D01*
X181925170Y-101594798D01*
X181925171Y-101594799D01*
X182097133Y-101773829D01*
X182295579Y-101922953D01*
X182295590Y-101922959D01*
X182515388Y-102038319D01*
X182515392Y-102038320D01*
X182750854Y-102116930D01*
X182995877Y-102156750D01*
X183907500Y-102156750D01*
X183907500Y-101119250D01*
X184407500Y-101119250D01*
X184407500Y-102156750D01*
X185256962Y-102156750D01*
X185442434Y-102141777D01*
X185683458Y-102082369D01*
X185911832Y-101985068D01*
X186121646Y-101852390D01*
X186307457Y-101687778D01*
X186464455Y-101495488D01*
X186464460Y-101495481D01*
X186588573Y-101280510D01*
X186676599Y-101048404D01*
X186713175Y-100869250D01*
X185666186Y-100869250D01*
X185691993Y-100829094D01*
X185732500Y-100691139D01*
X185732500Y-100547361D01*
X185691993Y-100409406D01*
X185666186Y-100369250D01*
X186713437Y-100369250D01*
X186706330Y-100310717D01*
X186706328Y-100310710D01*
X186637265Y-100072276D01*
X186637264Y-100072273D01*
X186530844Y-99847995D01*
X186389829Y-99643701D01*
X186389828Y-99643700D01*
X186217866Y-99464670D01*
X186019420Y-99315546D01*
X186019409Y-99315540D01*
X185799611Y-99200180D01*
X185799607Y-99200179D01*
X185564145Y-99121569D01*
X185319123Y-99081750D01*
X184407500Y-99081750D01*
X184407500Y-100119250D01*
X183907500Y-100119250D01*
X183907500Y-99081750D01*
X183058038Y-99081750D01*
X182872565Y-99096722D01*
X182631541Y-99156130D01*
X182403167Y-99253431D01*
X182193353Y-99386109D01*
X182007542Y-99550721D01*
X181850544Y-99743011D01*
X181850539Y-99743018D01*
X181726426Y-99957989D01*
X181638400Y-100190095D01*
X181601825Y-100369250D01*
X182648814Y-100369250D01*
X182623007Y-100409406D01*
X182582500Y-100547361D01*
X182582500Y-100691139D01*
X182623007Y-100829094D01*
X182648814Y-100869250D01*
X181601563Y-100869250D01*
X176653134Y-100869250D01*
X176806877Y-100761598D01*
X176961598Y-100606877D01*
X177087102Y-100427639D01*
X177179575Y-100229330D01*
X177236207Y-100017977D01*
X177255277Y-99800000D01*
X177253212Y-99776402D01*
X177250274Y-99742812D01*
X177236207Y-99582023D01*
X177179575Y-99370670D01*
X177087102Y-99172362D01*
X177087100Y-99172359D01*
X177087099Y-99172357D01*
X176961599Y-98993124D01*
X176961596Y-98993121D01*
X176806877Y-98838402D01*
X176627639Y-98712898D01*
X176627640Y-98712898D01*
X176627638Y-98712897D01*
X176528484Y-98666661D01*
X176429330Y-98620425D01*
X176429326Y-98620424D01*
X176429322Y-98620422D01*
X176217977Y-98563793D01*
X176000002Y-98544723D01*
X175999998Y-98544723D01*
X175854681Y-98557436D01*
X175782023Y-98563793D01*
X175782020Y-98563793D01*
X175570677Y-98620422D01*
X175570668Y-98620426D01*
X175372361Y-98712898D01*
X175372357Y-98712900D01*
X175193121Y-98838402D01*
X175038402Y-98993121D01*
X174912900Y-99172357D01*
X174912898Y-99172361D01*
X174820426Y-99370668D01*
X174820422Y-99370677D01*
X174763793Y-99582020D01*
X174763793Y-99582023D01*
X174760913Y-99614938D01*
X174744723Y-99799997D01*
X174744723Y-99800002D01*
X172375277Y-99800002D01*
X172375277Y-99800000D01*
X172373212Y-99776402D01*
X172370274Y-99742812D01*
X172356207Y-99582023D01*
X172299575Y-99370670D01*
X172207102Y-99172362D01*
X172207100Y-99172359D01*
X172207099Y-99172357D01*
X172081599Y-98993124D01*
X172081596Y-98993121D01*
X171926877Y-98838402D01*
X171747639Y-98712898D01*
X171747640Y-98712898D01*
X171747638Y-98712897D01*
X171648484Y-98666661D01*
X171549330Y-98620425D01*
X171549326Y-98620424D01*
X171549322Y-98620422D01*
X171337977Y-98563793D01*
X171120002Y-98544723D01*
X171119998Y-98544723D01*
X170974682Y-98557436D01*
X170902023Y-98563793D01*
X170902020Y-98563793D01*
X170690677Y-98620422D01*
X170690668Y-98620426D01*
X170492361Y-98712898D01*
X170492357Y-98712900D01*
X170313121Y-98838402D01*
X170158402Y-98993121D01*
X170032900Y-99172357D01*
X170032898Y-99172361D01*
X169940426Y-99370668D01*
X169940422Y-99370677D01*
X169883793Y-99582020D01*
X169883793Y-99582023D01*
X169880913Y-99614938D01*
X169864723Y-99799997D01*
X169864723Y-99800002D01*
X164861288Y-99800002D01*
X164827583Y-99776402D01*
X164827579Y-99776400D01*
X164613492Y-99676570D01*
X164613483Y-99676566D01*
X164385326Y-99615432D01*
X164385315Y-99615430D01*
X164150002Y-99594843D01*
X164149998Y-99594843D01*
X163914684Y-99615430D01*
X163914673Y-99615432D01*
X163686516Y-99676566D01*
X163686507Y-99676570D01*
X163472419Y-99776401D01*
X163388626Y-99835072D01*
X163388625Y-99835073D01*
X164017466Y-100463913D01*
X164007685Y-100465320D01*
X163876900Y-100525048D01*
X163768239Y-100619202D01*
X163690507Y-100740156D01*
X163666923Y-100820474D01*
X163035073Y-100188625D01*
X163035072Y-100188625D01*
X162976401Y-100272419D01*
X162876570Y-100486507D01*
X162876566Y-100486516D01*
X162815432Y-100714673D01*
X162815430Y-100714684D01*
X162794843Y-100949998D01*
X162794843Y-100950001D01*
X161005659Y-100950001D01*
X161005659Y-100950000D01*
X160985063Y-100714592D01*
X160923903Y-100486337D01*
X160824035Y-100272171D01*
X160809947Y-100252050D01*
X160688494Y-100078597D01*
X160521402Y-99911506D01*
X160521395Y-99911501D01*
X160327834Y-99775967D01*
X160327830Y-99775965D01*
X160256727Y-99742809D01*
X160113663Y-99676097D01*
X160113659Y-99676096D01*
X160113655Y-99676094D01*
X159885413Y-99614938D01*
X159885403Y-99614936D01*
X159650001Y-99594341D01*
X159649999Y-99594341D01*
X159414596Y-99614936D01*
X159414586Y-99614938D01*
X159186344Y-99676094D01*
X159186335Y-99676098D01*
X158972171Y-99775964D01*
X158972169Y-99775965D01*
X158778597Y-99911505D01*
X158611505Y-100078597D01*
X158475965Y-100272169D01*
X158475964Y-100272171D01*
X158376098Y-100486335D01*
X158376094Y-100486344D01*
X158314938Y-100714586D01*
X158314936Y-100714596D01*
X158294341Y-100949999D01*
X158294341Y-100950000D01*
X157105659Y-100950000D01*
X157085063Y-100714592D01*
X157023903Y-100486337D01*
X156924035Y-100272171D01*
X156909947Y-100252050D01*
X156788494Y-100078597D01*
X156621402Y-99911506D01*
X156621395Y-99911501D01*
X156427834Y-99775967D01*
X156427830Y-99775965D01*
X156356727Y-99742809D01*
X156213663Y-99676097D01*
X156213659Y-99676096D01*
X156213655Y-99676094D01*
X155985413Y-99614938D01*
X155985403Y-99614936D01*
X155750001Y-99594341D01*
X155749999Y-99594341D01*
X155514596Y-99614936D01*
X155514586Y-99614938D01*
X155286344Y-99676094D01*
X155286335Y-99676098D01*
X155072171Y-99775964D01*
X155072169Y-99775965D01*
X154878597Y-99911505D01*
X154711505Y-100078597D01*
X154575965Y-100272169D01*
X154575964Y-100272171D01*
X154476098Y-100486335D01*
X154476094Y-100486344D01*
X154414938Y-100714586D01*
X154414936Y-100714596D01*
X154394341Y-100949999D01*
X154394341Y-100950000D01*
X151750000Y-100950000D01*
X151750000Y-100878111D01*
X151709493Y-100740156D01*
X151683686Y-100700000D01*
X152600000Y-100700000D01*
X152600000Y-100052172D01*
X152599999Y-100052155D01*
X152593598Y-99992627D01*
X152593596Y-99992620D01*
X152543354Y-99857913D01*
X152543350Y-99857906D01*
X152457190Y-99742812D01*
X152457187Y-99742809D01*
X152342093Y-99656649D01*
X152342086Y-99656645D01*
X152207379Y-99606403D01*
X152207372Y-99606401D01*
X152147844Y-99600000D01*
X151500000Y-99600000D01*
X151500000Y-100514498D01*
X151392315Y-100465320D01*
X151285763Y-100450000D01*
X151214237Y-100450000D01*
X151107685Y-100465320D01*
X151000000Y-100514498D01*
X151000000Y-99600000D01*
X150352155Y-99600000D01*
X150292627Y-99606401D01*
X150292620Y-99606403D01*
X150157913Y-99656645D01*
X150157906Y-99656649D01*
X150042812Y-99742809D01*
X150042809Y-99742812D01*
X149956649Y-99857906D01*
X149956645Y-99857913D01*
X149906403Y-99992620D01*
X149906401Y-99992627D01*
X149900000Y-100052155D01*
X149900000Y-100700000D01*
X150816314Y-100700000D01*
X150790507Y-100740156D01*
X150750000Y-100878111D01*
X150750000Y-101021889D01*
X150790507Y-101159844D01*
X150816314Y-101200000D01*
X149900000Y-101200000D01*
X149900000Y-101847844D01*
X145424538Y-101847844D01*
X145405871Y-101827112D01*
X145398012Y-101821402D01*
X145252734Y-101715851D01*
X145252729Y-101715848D01*
X145079807Y-101638857D01*
X145079802Y-101638855D01*
X144934001Y-101607865D01*
X144894646Y-101599500D01*
X144705354Y-101599500D01*
X144665998Y-101607865D01*
X144520198Y-101638855D01*
X144520193Y-101638857D01*
X144461912Y-101664805D01*
X144392662Y-101674089D01*
X144329386Y-101644460D01*
X144323797Y-101639206D01*
X142661819Y-99977227D01*
X142628334Y-99915904D01*
X142625500Y-99889546D01*
X142625500Y-91010452D01*
X142645185Y-90943413D01*
X142661819Y-90922771D01*
X143392772Y-90191819D01*
X143454095Y-90158334D01*
X143480453Y-90155500D01*
X143599773Y-90155500D01*
X143666812Y-90175185D01*
X143701348Y-90208377D01*
X143836501Y-90401396D01*
X143836506Y-90401402D01*
X144003597Y-90568493D01*
X144003603Y-90568498D01*
X144189158Y-90698425D01*
X144232783Y-90753002D01*
X144239977Y-90822500D01*
X144208454Y-90884855D01*
X144189158Y-90901575D01*
X144003597Y-91031505D01*
X143836505Y-91198597D01*
X143700965Y-91392169D01*
X143700964Y-91392171D01*
X143601098Y-91606335D01*
X143601094Y-91606344D01*
X143539938Y-91834586D01*
X143539936Y-91834596D01*
X143519341Y-92069999D01*
X143519341Y-92070000D01*
X143539936Y-92305403D01*
X143539938Y-92305413D01*
X143601094Y-92533655D01*
X143601096Y-92533659D01*
X143601097Y-92533663D01*
X143644673Y-92627111D01*
X143700965Y-92747830D01*
X143700967Y-92747834D01*
X143807866Y-92900500D01*
X143836501Y-92941396D01*
X143836506Y-92941402D01*
X144003597Y-93108493D01*
X144003603Y-93108498D01*
X144069032Y-93154312D01*
X144184832Y-93235396D01*
X144189594Y-93238730D01*
X144233219Y-93293307D01*
X144240413Y-93362805D01*
X144208890Y-93425160D01*
X144189595Y-93441880D01*
X144003922Y-93571890D01*
X144003920Y-93571891D01*
X143836891Y-93738920D01*
X143836886Y-93738926D01*
X143701400Y-93932420D01*
X143701399Y-93932422D01*
X143601570Y-94146507D01*
X143601567Y-94146513D01*
X143544364Y-94359999D01*
X143544364Y-94360000D01*
X144441314Y-94360000D01*
X144415507Y-94400156D01*
X144375000Y-94538111D01*
X144375000Y-94681889D01*
X144415507Y-94819844D01*
X144441314Y-94860000D01*
X143544364Y-94860000D01*
X143601567Y-95073486D01*
X143601570Y-95073492D01*
X143701399Y-95287578D01*
X143836894Y-95481082D01*
X143958946Y-95603134D01*
X143992431Y-95664457D01*
X143987447Y-95734149D01*
X143945575Y-95790082D01*
X143914598Y-95806997D01*
X143782671Y-95856202D01*
X143782664Y-95856206D01*
X143667455Y-95942452D01*
X143667452Y-95942455D01*
X143581206Y-96057664D01*
X143581202Y-96057671D01*
X143530908Y-96192517D01*
X143524501Y-96252116D01*
X143524501Y-96252123D01*
X143524500Y-96252135D01*
X143524500Y-98047870D01*
X143524501Y-98047876D01*
X143530908Y-98107483D01*
X143581202Y-98242328D01*
X143581206Y-98242335D01*
X143667452Y-98357544D01*
X143667455Y-98357547D01*
X143782664Y-98443793D01*
X143782671Y-98443797D01*
X143917517Y-98494091D01*
X143917516Y-98494091D01*
X143924444Y-98494835D01*
X143977127Y-98500500D01*
X145772872Y-98500499D01*
X145832483Y-98494091D01*
X145967331Y-98443796D01*
X146082546Y-98357546D01*
X146168796Y-98242331D01*
X146219091Y-98107483D01*
X146225500Y-98047873D01*
X146225499Y-96252128D01*
X146219091Y-96192517D01*
X146205090Y-96154979D01*
X146168797Y-96057671D01*
X146168793Y-96057664D01*
X146082547Y-95942455D01*
X146082544Y-95942452D01*
X145967335Y-95856206D01*
X145967328Y-95856202D01*
X145835401Y-95806997D01*
X145779467Y-95765126D01*
X145755050Y-95699662D01*
X145769902Y-95631389D01*
X145791053Y-95603133D01*
X145913108Y-95481078D01*
X146048600Y-95287578D01*
X146148429Y-95073492D01*
X146148432Y-95073486D01*
X146205636Y-94860000D01*
X145308686Y-94860000D01*
X145334493Y-94819844D01*
X145375000Y-94681889D01*
X145375000Y-94538111D01*
X145334493Y-94400156D01*
X145308686Y-94360000D01*
X146205636Y-94360000D01*
X146205635Y-94359999D01*
X146148432Y-94146513D01*
X146148429Y-94146507D01*
X146048600Y-93932422D01*
X146048599Y-93932420D01*
X145913113Y-93738926D01*
X145913108Y-93738920D01*
X145746078Y-93571890D01*
X145560405Y-93441879D01*
X145516780Y-93387302D01*
X145509588Y-93317804D01*
X145541110Y-93255449D01*
X145560406Y-93238730D01*
X145746401Y-93108495D01*
X145913495Y-92941401D01*
X146048651Y-92748377D01*
X146103229Y-92704752D01*
X146150227Y-92695500D01*
X148984962Y-92695500D01*
X149052001Y-92715185D01*
X149057847Y-92719182D01*
X149147265Y-92784148D01*
X149147270Y-92784151D01*
X149320192Y-92861142D01*
X149320197Y-92861144D01*
X149505354Y-92900500D01*
X149505355Y-92900500D01*
X149694644Y-92900500D01*
X149694646Y-92900500D01*
X149879803Y-92861144D01*
X150052730Y-92784151D01*
X150205871Y-92672888D01*
X150332533Y-92532216D01*
X150427179Y-92368284D01*
X150485674Y-92188256D01*
X150505460Y-92000000D01*
X150485674Y-91811744D01*
X150427179Y-91631716D01*
X150332533Y-91467784D01*
X150205871Y-91327112D01*
X150205870Y-91327111D01*
X150052734Y-91215851D01*
X150052729Y-91215848D01*
X149879807Y-91138857D01*
X149879802Y-91138855D01*
X149734001Y-91107865D01*
X149694646Y-91099500D01*
X149505354Y-91099500D01*
X149472897Y-91106398D01*
X149320197Y-91138855D01*
X149320192Y-91138857D01*
X149147270Y-91215848D01*
X149147265Y-91215851D01*
X148994129Y-91327111D01*
X148925374Y-91403472D01*
X148865887Y-91440121D01*
X148833224Y-91444500D01*
X146150227Y-91444500D01*
X146083188Y-91424815D01*
X146048652Y-91391623D01*
X145913494Y-91198597D01*
X145746402Y-91031506D01*
X145746396Y-91031501D01*
X145560842Y-90901575D01*
X145517217Y-90846998D01*
X145510023Y-90777500D01*
X145541546Y-90715145D01*
X145560842Y-90698425D01*
X145642830Y-90641016D01*
X145746401Y-90568495D01*
X145913495Y-90401401D01*
X146049035Y-90207830D01*
X146148903Y-89993663D01*
X146210063Y-89765408D01*
X146230659Y-89530000D01*
X146210063Y-89294592D01*
X146148903Y-89066337D01*
X146049035Y-88852171D01*
X146048652Y-88851623D01*
X145913494Y-88658597D01*
X145746402Y-88491506D01*
X145746396Y-88491501D01*
X145560842Y-88361575D01*
X145517217Y-88306998D01*
X145510023Y-88237500D01*
X145541546Y-88175145D01*
X145560842Y-88158425D01*
X145733486Y-88037538D01*
X145746401Y-88028495D01*
X145913495Y-87861401D01*
X146049035Y-87667830D01*
X146148903Y-87453663D01*
X146210063Y-87225408D01*
X146230659Y-86990000D01*
X146210063Y-86754592D01*
X146148903Y-86526337D01*
X146049035Y-86312171D01*
X146019053Y-86269351D01*
X145913494Y-86118597D01*
X145746402Y-85951506D01*
X145746396Y-85951501D01*
X145560842Y-85821575D01*
X145517217Y-85766998D01*
X145510023Y-85697500D01*
X145541546Y-85635145D01*
X145560842Y-85618425D01*
X145713419Y-85511589D01*
X145746401Y-85488495D01*
X145913495Y-85321401D01*
X146048651Y-85128377D01*
X146103229Y-85084752D01*
X146150227Y-85075500D01*
X147139548Y-85075500D01*
X147206587Y-85095185D01*
X147227229Y-85111819D01*
X151138181Y-89022771D01*
X151171666Y-89084094D01*
X151174500Y-89110452D01*
X151174500Y-91617255D01*
X151172775Y-91632872D01*
X151173061Y-91632899D01*
X151172326Y-91640665D01*
X151174500Y-91709814D01*
X151174500Y-91739343D01*
X151174501Y-91739360D01*
X151175368Y-91746231D01*
X151175826Y-91752050D01*
X151177290Y-91798624D01*
X151177291Y-91798627D01*
X151182880Y-91817867D01*
X151186824Y-91836911D01*
X151189336Y-91856791D01*
X151206490Y-91900119D01*
X151208382Y-91905647D01*
X151221381Y-91950388D01*
X151231580Y-91967634D01*
X151240138Y-91985103D01*
X151247514Y-92003732D01*
X151274898Y-92041423D01*
X151278106Y-92046307D01*
X151301827Y-92086416D01*
X151301833Y-92086424D01*
X151315990Y-92100580D01*
X151328628Y-92115376D01*
X151340405Y-92131586D01*
X151340406Y-92131587D01*
X151376309Y-92161288D01*
X151380620Y-92165210D01*
X151842521Y-92627111D01*
X152188264Y-92972854D01*
X152221749Y-93034177D01*
X152218516Y-93098848D01*
X152214325Y-93111746D01*
X152214325Y-93111747D01*
X152200554Y-93242774D01*
X152173970Y-93307389D01*
X152116672Y-93347374D01*
X152046853Y-93350034D01*
X152006109Y-93331388D01*
X151927578Y-93276399D01*
X151713492Y-93176570D01*
X151713483Y-93176566D01*
X151485326Y-93115432D01*
X151485315Y-93115430D01*
X151250002Y-93094843D01*
X151249998Y-93094843D01*
X151014684Y-93115430D01*
X151014673Y-93115432D01*
X150786516Y-93176566D01*
X150786507Y-93176570D01*
X150572419Y-93276401D01*
X150488625Y-93335072D01*
X151117466Y-93963913D01*
X151107685Y-93965320D01*
X150976900Y-94025048D01*
X150868239Y-94119202D01*
X150790507Y-94240156D01*
X150766923Y-94320475D01*
X150135073Y-93688625D01*
X150135072Y-93688625D01*
X150076401Y-93772419D01*
X149976570Y-93986507D01*
X149976566Y-93986516D01*
X149915432Y-94214673D01*
X149915430Y-94214684D01*
X149894843Y-94449998D01*
X149894843Y-94450001D01*
X149915430Y-94685315D01*
X149915432Y-94685326D01*
X149976566Y-94913483D01*
X149976570Y-94913492D01*
X150076400Y-95127579D01*
X150076402Y-95127583D01*
X150135072Y-95211373D01*
X150135073Y-95211373D01*
X150766923Y-94579523D01*
X150790507Y-94659844D01*
X150868239Y-94780798D01*
X150976900Y-94874952D01*
X151107685Y-94934680D01*
X151117466Y-94936086D01*
X150488625Y-95564925D01*
X150572421Y-95623599D01*
X150786507Y-95723429D01*
X150786516Y-95723433D01*
X151014673Y-95784567D01*
X151014684Y-95784569D01*
X151249998Y-95805157D01*
X151250002Y-95805157D01*
X151485315Y-95784569D01*
X151485326Y-95784567D01*
X151713483Y-95723433D01*
X151713492Y-95723429D01*
X151927578Y-95623600D01*
X151927582Y-95623598D01*
X152011373Y-95564926D01*
X152011373Y-95564925D01*
X151382533Y-94936086D01*
X151392315Y-94934680D01*
X151523100Y-94874952D01*
X151631761Y-94780798D01*
X151709493Y-94659844D01*
X151733076Y-94579524D01*
X152364925Y-95211373D01*
X152364926Y-95211373D01*
X152423598Y-95127582D01*
X152423600Y-95127578D01*
X152523429Y-94913492D01*
X152523433Y-94913483D01*
X152584567Y-94685326D01*
X152584569Y-94685315D01*
X152605157Y-94450001D01*
X152605157Y-94450000D01*
X154394341Y-94450000D01*
X154414936Y-94685403D01*
X154414938Y-94685413D01*
X154476094Y-94913655D01*
X154476096Y-94913659D01*
X154476097Y-94913663D01*
X154550624Y-95073486D01*
X154575965Y-95127830D01*
X154575967Y-95127834D01*
X154634462Y-95211373D01*
X154711505Y-95321401D01*
X154878599Y-95488495D01*
X154955135Y-95542086D01*
X155072165Y-95624032D01*
X155072167Y-95624033D01*
X155072170Y-95624035D01*
X155286337Y-95723903D01*
X155286343Y-95723904D01*
X155286344Y-95723905D01*
X155341285Y-95738626D01*
X155514592Y-95785063D01*
X155685319Y-95800000D01*
X155749999Y-95805659D01*
X155750000Y-95805659D01*
X155750001Y-95805659D01*
X155814681Y-95800000D01*
X155985408Y-95785063D01*
X156213663Y-95723903D01*
X156427830Y-95624035D01*
X156621401Y-95488495D01*
X156788495Y-95321401D01*
X156924035Y-95127830D01*
X157023903Y-94913663D01*
X157085063Y-94685408D01*
X157105659Y-94450000D01*
X158294341Y-94450000D01*
X158314936Y-94685403D01*
X158314938Y-94685413D01*
X158376094Y-94913655D01*
X158376096Y-94913659D01*
X158376097Y-94913663D01*
X158450624Y-95073486D01*
X158475965Y-95127830D01*
X158475967Y-95127834D01*
X158534462Y-95211373D01*
X158611505Y-95321401D01*
X158778599Y-95488495D01*
X158855135Y-95542086D01*
X158972165Y-95624032D01*
X158972167Y-95624033D01*
X158972170Y-95624035D01*
X159186337Y-95723903D01*
X159186343Y-95723904D01*
X159186344Y-95723905D01*
X159241285Y-95738626D01*
X159414592Y-95785063D01*
X159585319Y-95800000D01*
X159649999Y-95805659D01*
X159650000Y-95805659D01*
X159650001Y-95805659D01*
X159714681Y-95800000D01*
X159885408Y-95785063D01*
X160113663Y-95723903D01*
X160327830Y-95624035D01*
X160521401Y-95488495D01*
X160662052Y-95347844D01*
X162800000Y-95347844D01*
X162806401Y-95407372D01*
X162806403Y-95407379D01*
X162856645Y-95542086D01*
X162856649Y-95542093D01*
X162942809Y-95657187D01*
X162942812Y-95657190D01*
X163057906Y-95743350D01*
X163057913Y-95743354D01*
X163192620Y-95793596D01*
X163192627Y-95793598D01*
X163252155Y-95799999D01*
X163252172Y-95800000D01*
X163900000Y-95800000D01*
X163900000Y-94885501D01*
X164007685Y-94934680D01*
X164114237Y-94950000D01*
X164185763Y-94950000D01*
X164292315Y-94934680D01*
X164400000Y-94885501D01*
X164400000Y-95800000D01*
X165047828Y-95800000D01*
X165047844Y-95799999D01*
X165107372Y-95793598D01*
X165107379Y-95793596D01*
X165242086Y-95743354D01*
X165242093Y-95743350D01*
X165357187Y-95657190D01*
X165357190Y-95657187D01*
X165443350Y-95542093D01*
X165443354Y-95542086D01*
X165493596Y-95407379D01*
X165493598Y-95407372D01*
X165495905Y-95385921D01*
X170235328Y-95385921D01*
X170235328Y-98198582D01*
X179367703Y-98198582D01*
X179367703Y-97694250D01*
X181867500Y-97694250D01*
X181867500Y-97957094D01*
X181873901Y-98016622D01*
X181873903Y-98016629D01*
X181924145Y-98151336D01*
X181924149Y-98151343D01*
X182010309Y-98266437D01*
X182010312Y-98266440D01*
X182125406Y-98352600D01*
X182125413Y-98352604D01*
X182260120Y-98402846D01*
X182260127Y-98402848D01*
X182319655Y-98409249D01*
X182319672Y-98409250D01*
X182582500Y-98409250D01*
X182582500Y-97694250D01*
X181867500Y-97694250D01*
X179367703Y-97694250D01*
X179367703Y-95385921D01*
X170235328Y-95385921D01*
X165495905Y-95385921D01*
X165499999Y-95347844D01*
X165500000Y-95347827D01*
X165500000Y-94700000D01*
X164583686Y-94700000D01*
X164609493Y-94659844D01*
X164650000Y-94521889D01*
X164650000Y-94378111D01*
X164609493Y-94240156D01*
X164583686Y-94200000D01*
X165500000Y-94200000D01*
X165500000Y-93552172D01*
X165499999Y-93552155D01*
X165493598Y-93492627D01*
X165493596Y-93492620D01*
X165443354Y-93357913D01*
X165443350Y-93357906D01*
X165357190Y-93242812D01*
X165357187Y-93242809D01*
X165242093Y-93156649D01*
X165242086Y-93156645D01*
X165107379Y-93106403D01*
X165107372Y-93106401D01*
X165047844Y-93100000D01*
X164400000Y-93100000D01*
X164400000Y-94014498D01*
X164292315Y-93965320D01*
X164185763Y-93950000D01*
X164114237Y-93950000D01*
X164007685Y-93965320D01*
X163900000Y-94014498D01*
X163900000Y-93100000D01*
X163252155Y-93100000D01*
X163192627Y-93106401D01*
X163192620Y-93106403D01*
X163057913Y-93156645D01*
X163057906Y-93156649D01*
X162942812Y-93242809D01*
X162942809Y-93242812D01*
X162856649Y-93357906D01*
X162856645Y-93357913D01*
X162806403Y-93492620D01*
X162806401Y-93492627D01*
X162800000Y-93552155D01*
X162800000Y-94200000D01*
X163716314Y-94200000D01*
X163690507Y-94240156D01*
X163650000Y-94378111D01*
X163650000Y-94521889D01*
X163690507Y-94659844D01*
X163716314Y-94700000D01*
X162800000Y-94700000D01*
X162800000Y-95347844D01*
X160662052Y-95347844D01*
X160688495Y-95321401D01*
X160824035Y-95127830D01*
X160923903Y-94913663D01*
X160985063Y-94685408D01*
X161005659Y-94450000D01*
X160985063Y-94214592D01*
X160923903Y-93986337D01*
X160824035Y-93772171D01*
X160800753Y-93738920D01*
X160688494Y-93578597D01*
X160521402Y-93411506D01*
X160521395Y-93411501D01*
X160327834Y-93275967D01*
X160327830Y-93275965D01*
X160319209Y-93271945D01*
X160113663Y-93176097D01*
X160113659Y-93176096D01*
X160113655Y-93176094D01*
X159885413Y-93114938D01*
X159885403Y-93114936D01*
X159650001Y-93094341D01*
X159649999Y-93094341D01*
X159414596Y-93114936D01*
X159414586Y-93114938D01*
X159186344Y-93176094D01*
X159186335Y-93176098D01*
X158972171Y-93275964D01*
X158972169Y-93275965D01*
X158778597Y-93411505D01*
X158611505Y-93578597D01*
X158475965Y-93772169D01*
X158475964Y-93772171D01*
X158376098Y-93986335D01*
X158376094Y-93986344D01*
X158314938Y-94214586D01*
X158314936Y-94214596D01*
X158294341Y-94449999D01*
X158294341Y-94450000D01*
X157105659Y-94450000D01*
X157085063Y-94214592D01*
X157023903Y-93986337D01*
X156924035Y-93772171D01*
X156900753Y-93738920D01*
X156788494Y-93578597D01*
X156621402Y-93411506D01*
X156621395Y-93411501D01*
X156427834Y-93275967D01*
X156427830Y-93275965D01*
X156419209Y-93271945D01*
X156213663Y-93176097D01*
X156213659Y-93176096D01*
X156213655Y-93176094D01*
X155985413Y-93114938D01*
X155985403Y-93114936D01*
X155750001Y-93094341D01*
X155749999Y-93094341D01*
X155514596Y-93114936D01*
X155514586Y-93114938D01*
X155286344Y-93176094D01*
X155286335Y-93176098D01*
X155072171Y-93275964D01*
X155072169Y-93275965D01*
X154878597Y-93411505D01*
X154711505Y-93578597D01*
X154575965Y-93772169D01*
X154575964Y-93772171D01*
X154476098Y-93986335D01*
X154476094Y-93986344D01*
X154414938Y-94214586D01*
X154414936Y-94214596D01*
X154394341Y-94449999D01*
X154394341Y-94450000D01*
X152605157Y-94450000D01*
X152605157Y-94449999D01*
X152588492Y-94259523D01*
X152602258Y-94191023D01*
X152650874Y-94140840D01*
X152718902Y-94124906D01*
X152762456Y-94135436D01*
X152782253Y-94144250D01*
X152820197Y-94161144D01*
X153005354Y-94200500D01*
X153005355Y-94200500D01*
X153194644Y-94200500D01*
X153194646Y-94200500D01*
X153379803Y-94161144D01*
X153552730Y-94084151D01*
X153705871Y-93972888D01*
X153832533Y-93832216D01*
X153927179Y-93668284D01*
X153985674Y-93488256D01*
X154005460Y-93300000D01*
X153985674Y-93111744D01*
X153927179Y-92931716D01*
X153832533Y-92767784D01*
X153705871Y-92627112D01*
X153705870Y-92627111D01*
X153552734Y-92515851D01*
X153552729Y-92515848D01*
X153479466Y-92483229D01*
X153442221Y-92457631D01*
X152596772Y-91612181D01*
X152563287Y-91550858D01*
X152568271Y-91481166D01*
X152610143Y-91425233D01*
X152675607Y-91400816D01*
X152684453Y-91400500D01*
X152694644Y-91400500D01*
X152694646Y-91400500D01*
X152879803Y-91361144D01*
X153052730Y-91284151D01*
X153205871Y-91172888D01*
X153332533Y-91032216D01*
X153427179Y-90868284D01*
X153485674Y-90688256D01*
X153505460Y-90500000D01*
X153488426Y-90337937D01*
X153500995Y-90269213D01*
X153524063Y-90237303D01*
X153974548Y-89786819D01*
X154035872Y-89753334D01*
X154062230Y-89750500D01*
X161036295Y-89750500D01*
X161054265Y-89751809D01*
X161078023Y-89755289D01*
X161130068Y-89750735D01*
X161135470Y-89750500D01*
X161143704Y-89750500D01*
X161143709Y-89750500D01*
X161155327Y-89749141D01*
X161176276Y-89746693D01*
X161189028Y-89745577D01*
X161252797Y-89739999D01*
X161252805Y-89739996D01*
X161259866Y-89738539D01*
X161259878Y-89738598D01*
X161267243Y-89736965D01*
X161267229Y-89736906D01*
X161274246Y-89735241D01*
X161274255Y-89735241D01*
X161346423Y-89708974D01*
X161419334Y-89684814D01*
X161419343Y-89684807D01*
X161425882Y-89681760D01*
X161425908Y-89681816D01*
X161432690Y-89678532D01*
X161432663Y-89678478D01*
X161439106Y-89675240D01*
X161439117Y-89675237D01*
X161503283Y-89633034D01*
X161568656Y-89592712D01*
X161568662Y-89592705D01*
X161574325Y-89588229D01*
X161574363Y-89588277D01*
X161580200Y-89583522D01*
X161580161Y-89583475D01*
X161585696Y-89578830D01*
X161638385Y-89522983D01*
X161948235Y-89213132D01*
X162085642Y-89075724D01*
X162099271Y-89063947D01*
X162118530Y-89049610D01*
X162152101Y-89009601D01*
X162155761Y-89005606D01*
X162161590Y-88999778D01*
X162181941Y-88974039D01*
X162192396Y-88961579D01*
X162231302Y-88915214D01*
X162231306Y-88915205D01*
X162235274Y-88909175D01*
X162235325Y-88909208D01*
X162239372Y-88902856D01*
X162239320Y-88902824D01*
X162243112Y-88896675D01*
X162275575Y-88827058D01*
X162300537Y-88777354D01*
X162310040Y-88758433D01*
X162310042Y-88758421D01*
X162312509Y-88751646D01*
X162312567Y-88751667D01*
X162315043Y-88744546D01*
X162314986Y-88744528D01*
X162317257Y-88737673D01*
X162332792Y-88662434D01*
X162337350Y-88643204D01*
X162350500Y-88587721D01*
X162350500Y-88587710D01*
X162351338Y-88580548D01*
X162351398Y-88580555D01*
X162352164Y-88573055D01*
X162352105Y-88573050D01*
X162352734Y-88565860D01*
X162350500Y-88489082D01*
X162350500Y-83800000D01*
X169694540Y-83800000D01*
X169714326Y-83988256D01*
X169714327Y-83988259D01*
X169772818Y-84168277D01*
X169772821Y-84168284D01*
X169867467Y-84332216D01*
X169994129Y-84472888D01*
X170147265Y-84584148D01*
X170147270Y-84584151D01*
X170320192Y-84661142D01*
X170320197Y-84661144D01*
X170505354Y-84700500D01*
X170505355Y-84700500D01*
X170694644Y-84700500D01*
X170694646Y-84700500D01*
X170879803Y-84661144D01*
X171007280Y-84604386D01*
X171076527Y-84595101D01*
X171139804Y-84624729D01*
X171145395Y-84629985D01*
X173838181Y-87322771D01*
X173871666Y-87384094D01*
X173874500Y-87410452D01*
X173874500Y-89317255D01*
X173872775Y-89332872D01*
X173873061Y-89332899D01*
X173872326Y-89340665D01*
X173874500Y-89409814D01*
X173874500Y-89439343D01*
X173874501Y-89439360D01*
X173875368Y-89446231D01*
X173875826Y-89452050D01*
X173877290Y-89498624D01*
X173877291Y-89498627D01*
X173882880Y-89517867D01*
X173886824Y-89536911D01*
X173889336Y-89556792D01*
X173903557Y-89592712D01*
X173906490Y-89600119D01*
X173908382Y-89605647D01*
X173921381Y-89650388D01*
X173931580Y-89667634D01*
X173940136Y-89685100D01*
X173947514Y-89703732D01*
X173972845Y-89738598D01*
X173974898Y-89741423D01*
X173978106Y-89746307D01*
X174001827Y-89786416D01*
X174001833Y-89786424D01*
X174015990Y-89800580D01*
X174028628Y-89815376D01*
X174040405Y-89831586D01*
X174040406Y-89831587D01*
X174076309Y-89861288D01*
X174080620Y-89865210D01*
X174930554Y-90715145D01*
X175199197Y-90983788D01*
X175209022Y-90996051D01*
X175209243Y-90995869D01*
X175214214Y-91001878D01*
X175223345Y-91010452D01*
X175264635Y-91049226D01*
X175285529Y-91070120D01*
X175291011Y-91074373D01*
X175295443Y-91078157D01*
X175329418Y-91110062D01*
X175346976Y-91119714D01*
X175363235Y-91130395D01*
X175379064Y-91142673D01*
X175421838Y-91161182D01*
X175427056Y-91163738D01*
X175467908Y-91186197D01*
X175487316Y-91191180D01*
X175505717Y-91197480D01*
X175524104Y-91205437D01*
X175567488Y-91212308D01*
X175570119Y-91212725D01*
X175575839Y-91213909D01*
X175620981Y-91225500D01*
X175641016Y-91225500D01*
X175660414Y-91227026D01*
X175680194Y-91230159D01*
X175680195Y-91230160D01*
X175680195Y-91230159D01*
X175680196Y-91230160D01*
X175726583Y-91225775D01*
X175732422Y-91225500D01*
X179789548Y-91225500D01*
X179856587Y-91245185D01*
X179877229Y-91261819D01*
X180422479Y-91807069D01*
X180455964Y-91868392D01*
X180450980Y-91938084D01*
X180409108Y-91994017D01*
X180343644Y-92018434D01*
X180334798Y-92018750D01*
X175678042Y-92018750D01*
X175611003Y-91999065D01*
X175565248Y-91946261D01*
X175560111Y-91933069D01*
X175527180Y-91831719D01*
X175527179Y-91831718D01*
X175527179Y-91831716D01*
X175432533Y-91667784D01*
X175305871Y-91527112D01*
X175242632Y-91481166D01*
X175152734Y-91415851D01*
X175152729Y-91415848D01*
X174979807Y-91338857D01*
X174979802Y-91338855D01*
X174834001Y-91307865D01*
X174794646Y-91299500D01*
X174605354Y-91299500D01*
X174572897Y-91306398D01*
X174420197Y-91338855D01*
X174420192Y-91338857D01*
X174247270Y-91415848D01*
X174247265Y-91415851D01*
X174094129Y-91527111D01*
X173967466Y-91667785D01*
X173872821Y-91831715D01*
X173872818Y-91831722D01*
X173818142Y-92000000D01*
X173814326Y-92011744D01*
X173794540Y-92200000D01*
X173814326Y-92388256D01*
X173814327Y-92388259D01*
X173872818Y-92568277D01*
X173872821Y-92568284D01*
X173967467Y-92732216D01*
X174083553Y-92861142D01*
X174094129Y-92872888D01*
X174247265Y-92984148D01*
X174247270Y-92984151D01*
X174420191Y-93061142D01*
X174420193Y-93061142D01*
X174420197Y-93061144D01*
X174453247Y-93068168D01*
X174506500Y-93093911D01*
X174528920Y-93112456D01*
X174531828Y-93115021D01*
X174573665Y-93154310D01*
X174573667Y-93154311D01*
X174573668Y-93154312D01*
X174580841Y-93158255D01*
X174600137Y-93171368D01*
X174606445Y-93176586D01*
X174606446Y-93176586D01*
X174606447Y-93176587D01*
X174658395Y-93201029D01*
X174661855Y-93202793D01*
X174712158Y-93230447D01*
X174720080Y-93232481D01*
X174742037Y-93240384D01*
X174749446Y-93243871D01*
X174805833Y-93254624D01*
X174809625Y-93255472D01*
X174823014Y-93258909D01*
X174865231Y-93269750D01*
X174873418Y-93269750D01*
X174896646Y-93271945D01*
X174899740Y-93272534D01*
X174904686Y-93273478D01*
X174961983Y-93269871D01*
X174965862Y-93269750D01*
X182038174Y-93269750D01*
X182105213Y-93289435D01*
X182133981Y-93315029D01*
X182134392Y-93315530D01*
X182161742Y-93379823D01*
X182149990Y-93448698D01*
X182134437Y-93472914D01*
X182025832Y-93605249D01*
X181936178Y-93772981D01*
X181880969Y-93954980D01*
X181862328Y-94144249D01*
X181880969Y-94333519D01*
X181936179Y-94515522D01*
X182000467Y-94635796D01*
X182014709Y-94704199D01*
X182000468Y-94752701D01*
X181964580Y-94819844D01*
X181936178Y-94872981D01*
X181923837Y-94913664D01*
X181880969Y-95054980D01*
X181862328Y-95244250D01*
X181880969Y-95433519D01*
X181880970Y-95433521D01*
X181936178Y-95615519D01*
X181999587Y-95734149D01*
X182000468Y-95735797D01*
X182014709Y-95804200D01*
X182000468Y-95852701D01*
X181936177Y-95972980D01*
X181936178Y-95972981D01*
X181880969Y-96154980D01*
X181862328Y-96344249D01*
X181880969Y-96533519D01*
X181922243Y-96669582D01*
X181922866Y-96739449D01*
X181919764Y-96748910D01*
X181873903Y-96871869D01*
X181873901Y-96871877D01*
X181867500Y-96931405D01*
X181867500Y-97194250D01*
X182343508Y-97194250D01*
X182401958Y-97208890D01*
X182461231Y-97240572D01*
X182592776Y-97280475D01*
X182568406Y-97312747D01*
X182538736Y-97417029D01*
X182548739Y-97524987D01*
X182597067Y-97622041D01*
X182677190Y-97695084D01*
X182778290Y-97734250D01*
X182859371Y-97734250D01*
X182939075Y-97719351D01*
X183031256Y-97662275D01*
X183082500Y-97594416D01*
X183082500Y-98409250D01*
X183345328Y-98409250D01*
X183345344Y-98409249D01*
X183404872Y-98402848D01*
X183404879Y-98402846D01*
X183539586Y-98352604D01*
X183539593Y-98352600D01*
X183654687Y-98266440D01*
X183654690Y-98266437D01*
X183740850Y-98151343D01*
X183740854Y-98151336D01*
X183791096Y-98016629D01*
X183791098Y-98016622D01*
X183797499Y-97957094D01*
X183797500Y-97957077D01*
X183797500Y-97736184D01*
X183817185Y-97669145D01*
X183869989Y-97623390D01*
X183939147Y-97613446D01*
X183957494Y-97617523D01*
X183968229Y-97620780D01*
X183968228Y-97620780D01*
X183981032Y-97622041D01*
X184157500Y-97639422D01*
X184346771Y-97620780D01*
X184528769Y-97565572D01*
X184528771Y-97565570D01*
X184534599Y-97563803D01*
X184535040Y-97565258D01*
X184597058Y-97558585D01*
X184659540Y-97589855D01*
X184671507Y-97603916D01*
X184671966Y-97603540D01*
X184796484Y-97755265D01*
X184898791Y-97839226D01*
X184943501Y-97875919D01*
X185111231Y-97965572D01*
X185293229Y-98020780D01*
X185293228Y-98020780D01*
X185310198Y-98022451D01*
X185482500Y-98039422D01*
X185671771Y-98020780D01*
X185853769Y-97965572D01*
X186021499Y-97875919D01*
X186168515Y-97755265D01*
X186192415Y-97726142D01*
X186250160Y-97686808D01*
X186272728Y-97681784D01*
X186287542Y-97679914D01*
X186330872Y-97662757D01*
X186336396Y-97660867D01*
X186340146Y-97659777D01*
X186381140Y-97647868D01*
X186398379Y-97637672D01*
X186415853Y-97629112D01*
X186434477Y-97621738D01*
X186434477Y-97621737D01*
X186434482Y-97621736D01*
X186472199Y-97594332D01*
X186477055Y-97591142D01*
X186517170Y-97567420D01*
X186531339Y-97553249D01*
X186546129Y-97540618D01*
X186562337Y-97528844D01*
X186592049Y-97492926D01*
X186595962Y-97488626D01*
X187283786Y-96800802D01*
X187296048Y-96790980D01*
X187295865Y-96790759D01*
X187301867Y-96785792D01*
X187301877Y-96785786D01*
X187349241Y-96735348D01*
X187370120Y-96714470D01*
X187374370Y-96708989D01*
X187378151Y-96704561D01*
X187410062Y-96670582D01*
X187419713Y-96653024D01*
X187430396Y-96636761D01*
X187442673Y-96620936D01*
X187461183Y-96578158D01*
X187463743Y-96572932D01*
X187486197Y-96532092D01*
X187491178Y-96512687D01*
X187497482Y-96494279D01*
X187505438Y-96475895D01*
X187512729Y-96429853D01*
X187513908Y-96424162D01*
X187525500Y-96379019D01*
X187525500Y-96358974D01*
X187527025Y-96339591D01*
X187530160Y-96319804D01*
X187525775Y-96273415D01*
X187525500Y-96267577D01*
X187525500Y-87211879D01*
X187527224Y-87196265D01*
X187526938Y-87196238D01*
X187527672Y-87188475D01*
X187525500Y-87119344D01*
X187525500Y-87089792D01*
X187525500Y-87089791D01*
X187524629Y-87082900D01*
X187524172Y-87077086D01*
X187522709Y-87030513D01*
X187517122Y-87011285D01*
X187513174Y-86992225D01*
X187512893Y-86989999D01*
X187510664Y-86972349D01*
X187493507Y-86929016D01*
X187491619Y-86923500D01*
X187478619Y-86878753D01*
X187468418Y-86861504D01*
X187459860Y-86844035D01*
X187452486Y-86825409D01*
X187452483Y-86825405D01*
X187452483Y-86825404D01*
X187425098Y-86787712D01*
X187421890Y-86782828D01*
X187398172Y-86742723D01*
X187398163Y-86742712D01*
X187384005Y-86728554D01*
X187371370Y-86713761D01*
X187359593Y-86697553D01*
X187323693Y-86667854D01*
X187319381Y-86663931D01*
X186640911Y-85985461D01*
X186631089Y-85973200D01*
X186630868Y-85973384D01*
X186625895Y-85967373D01*
X186620792Y-85962581D01*
X186575473Y-85920023D01*
X186565028Y-85909578D01*
X186554584Y-85899133D01*
X186549095Y-85894875D01*
X186544670Y-85891097D01*
X186510691Y-85859188D01*
X186510689Y-85859186D01*
X186510686Y-85859185D01*
X186493138Y-85849538D01*
X186476872Y-85838854D01*
X186468793Y-85832587D01*
X186461045Y-85826577D01*
X186461044Y-85826576D01*
X186461042Y-85826575D01*
X186418277Y-85808068D01*
X186413031Y-85805498D01*
X186372202Y-85783053D01*
X186372201Y-85783052D01*
X186352802Y-85778072D01*
X186334390Y-85771768D01*
X186316007Y-85763812D01*
X186316001Y-85763810D01*
X186269981Y-85756522D01*
X186264255Y-85755336D01*
X186257202Y-85753525D01*
X186197166Y-85717783D01*
X186192201Y-85712096D01*
X186168515Y-85683235D01*
X186168513Y-85683233D01*
X186168512Y-85683232D01*
X186021500Y-85562582D01*
X186021499Y-85562581D01*
X185853769Y-85472928D01*
X185671771Y-85417720D01*
X185671769Y-85417719D01*
X185671771Y-85417719D01*
X185499469Y-85400749D01*
X185482500Y-85399078D01*
X185482499Y-85399078D01*
X185293230Y-85417719D01*
X185111231Y-85472928D01*
X184943499Y-85562582D01*
X184796484Y-85683234D01*
X184671966Y-85834960D01*
X184670150Y-85833470D01*
X184624512Y-85871591D01*
X184555185Y-85880280D01*
X184534671Y-85874454D01*
X184534598Y-85874697D01*
X184528772Y-85872929D01*
X184528769Y-85872928D01*
X184346771Y-85817720D01*
X184346769Y-85817719D01*
X184346771Y-85817719D01*
X184157500Y-85799078D01*
X183968229Y-85817719D01*
X183921271Y-85831964D01*
X183851404Y-85832587D01*
X183792292Y-85795338D01*
X183766616Y-85749298D01*
X183728355Y-85623171D01*
X183668712Y-85511588D01*
X183113313Y-86066987D01*
X183126264Y-86021471D01*
X183116261Y-85913513D01*
X183067933Y-85816459D01*
X182987810Y-85743416D01*
X182886710Y-85704250D01*
X182805629Y-85704250D01*
X182725925Y-85719149D01*
X182633744Y-85776225D01*
X182568406Y-85862747D01*
X182538736Y-85967029D01*
X182547621Y-86062924D01*
X181996286Y-85511589D01*
X181996285Y-85511589D01*
X181936643Y-85623172D01*
X181881463Y-85805074D01*
X181881462Y-85805076D01*
X181862831Y-85994250D01*
X181881462Y-86183423D01*
X181881463Y-86183425D01*
X181936643Y-86365327D01*
X182000751Y-86485265D01*
X182014993Y-86553668D01*
X182000752Y-86602170D01*
X181936178Y-86722981D01*
X181918024Y-86782828D01*
X181880969Y-86904980D01*
X181862328Y-87094250D01*
X181880969Y-87283519D01*
X181892876Y-87322771D01*
X181936178Y-87465519D01*
X182000468Y-87585797D01*
X182014709Y-87654200D01*
X182000468Y-87702703D01*
X181936178Y-87822981D01*
X181880969Y-88004980D01*
X181862328Y-88194250D01*
X181880969Y-88383519D01*
X181936179Y-88565522D01*
X182000467Y-88685796D01*
X182014709Y-88754199D01*
X182000466Y-88802704D01*
X181983517Y-88834412D01*
X181934554Y-88884256D01*
X181866416Y-88899715D01*
X181800737Y-88875882D01*
X181786479Y-88863638D01*
X181339053Y-88416212D01*
X181329230Y-88403950D01*
X181329009Y-88404134D01*
X181324036Y-88398123D01*
X181309656Y-88384619D01*
X181273614Y-88350773D01*
X181259688Y-88336847D01*
X181252725Y-88329883D01*
X181247235Y-88325624D01*
X181242798Y-88321834D01*
X181232768Y-88312415D01*
X181222440Y-88302716D01*
X181187047Y-88242473D01*
X181186187Y-88194844D01*
X181184994Y-88194719D01*
X181185672Y-88188259D01*
X181185674Y-88188256D01*
X181205460Y-88000000D01*
X181185674Y-87811744D01*
X181127179Y-87631716D01*
X181032533Y-87467784D01*
X181019819Y-87453664D01*
X180957350Y-87384284D01*
X180927120Y-87321292D01*
X180925500Y-87301312D01*
X180925500Y-85158036D01*
X182349839Y-85158036D01*
X182832500Y-85640697D01*
X182832501Y-85640697D01*
X183315160Y-85158036D01*
X183315160Y-85158035D01*
X183203577Y-85098393D01*
X183021675Y-85043213D01*
X183021673Y-85043212D01*
X182832500Y-85024581D01*
X182643326Y-85043212D01*
X182643324Y-85043213D01*
X182461422Y-85098393D01*
X182349839Y-85158035D01*
X182349839Y-85158036D01*
X180925500Y-85158036D01*
X180925500Y-84782742D01*
X180927224Y-84767122D01*
X180926939Y-84767095D01*
X180927673Y-84759333D01*
X180927672Y-84759332D01*
X180925500Y-84690171D01*
X180925500Y-84660650D01*
X180924631Y-84653779D01*
X180924173Y-84647952D01*
X180922710Y-84601373D01*
X180917119Y-84582130D01*
X180913173Y-84563078D01*
X180910664Y-84543208D01*
X180893504Y-84499867D01*
X180891624Y-84494379D01*
X180878618Y-84449610D01*
X180868422Y-84432370D01*
X180859861Y-84414894D01*
X180852487Y-84396270D01*
X180852486Y-84396268D01*
X180825079Y-84358545D01*
X180821888Y-84353686D01*
X180814845Y-84341777D01*
X180798170Y-84313580D01*
X180798168Y-84313578D01*
X180798165Y-84313574D01*
X180784006Y-84299415D01*
X180771368Y-84284619D01*
X180759594Y-84268413D01*
X180723688Y-84238709D01*
X180719376Y-84234786D01*
X179800803Y-83316212D01*
X179790980Y-83303950D01*
X179790759Y-83304134D01*
X179785786Y-83298123D01*
X179766794Y-83280288D01*
X179735364Y-83250773D01*
X179720839Y-83236248D01*
X179714475Y-83229883D01*
X179708986Y-83225625D01*
X179704561Y-83221847D01*
X179670582Y-83189938D01*
X179670580Y-83189936D01*
X179670577Y-83189935D01*
X179653029Y-83180288D01*
X179636763Y-83169604D01*
X179620933Y-83157325D01*
X179578168Y-83138818D01*
X179572922Y-83136248D01*
X179532093Y-83113803D01*
X179532092Y-83113802D01*
X179512693Y-83108822D01*
X179494281Y-83102518D01*
X179475898Y-83094562D01*
X179475892Y-83094560D01*
X179429874Y-83087272D01*
X179424152Y-83086087D01*
X179379021Y-83074500D01*
X179379019Y-83074500D01*
X179358984Y-83074500D01*
X179339586Y-83072973D01*
X179332162Y-83071797D01*
X179319805Y-83069840D01*
X179319804Y-83069840D01*
X179273416Y-83074225D01*
X179267578Y-83074500D01*
X175603748Y-83074500D01*
X175585869Y-83069250D01*
X181601563Y-83069250D01*
X181608669Y-83127782D01*
X181608671Y-83127789D01*
X181677734Y-83366223D01*
X181677735Y-83366226D01*
X181784155Y-83590504D01*
X181925170Y-83794798D01*
X181925171Y-83794799D01*
X182097133Y-83973829D01*
X182295579Y-84122953D01*
X182295590Y-84122959D01*
X182515388Y-84238319D01*
X182515392Y-84238320D01*
X182750854Y-84316930D01*
X182995877Y-84356750D01*
X183907500Y-84356750D01*
X183907500Y-83319250D01*
X184407500Y-83319250D01*
X184407500Y-84356750D01*
X185256962Y-84356750D01*
X185442434Y-84341777D01*
X185683458Y-84282369D01*
X185911832Y-84185068D01*
X186121646Y-84052390D01*
X186307457Y-83887778D01*
X186464455Y-83695488D01*
X186464460Y-83695481D01*
X186588573Y-83480510D01*
X186676599Y-83248404D01*
X186713175Y-83069250D01*
X185666186Y-83069250D01*
X185691993Y-83029094D01*
X185732500Y-82891139D01*
X185732500Y-82747361D01*
X185691993Y-82609406D01*
X185666186Y-82569250D01*
X186713437Y-82569250D01*
X186706330Y-82510717D01*
X186706328Y-82510710D01*
X186637265Y-82272276D01*
X186637264Y-82272273D01*
X186530844Y-82047995D01*
X186389829Y-81843701D01*
X186389828Y-81843700D01*
X186217866Y-81664670D01*
X186019420Y-81515546D01*
X186019409Y-81515540D01*
X185799611Y-81400180D01*
X185799607Y-81400179D01*
X185564145Y-81321569D01*
X185319123Y-81281750D01*
X184407500Y-81281750D01*
X184407500Y-82319250D01*
X183907500Y-82319250D01*
X183907500Y-81281750D01*
X183058038Y-81281750D01*
X182872565Y-81296722D01*
X182631541Y-81356130D01*
X182403167Y-81453431D01*
X182193353Y-81586109D01*
X182007542Y-81750721D01*
X181850544Y-81943011D01*
X181850539Y-81943018D01*
X181726426Y-82157989D01*
X181638400Y-82390095D01*
X181601825Y-82569250D01*
X182648814Y-82569250D01*
X182623007Y-82609406D01*
X182582500Y-82747361D01*
X182582500Y-82891139D01*
X182623007Y-83029094D01*
X182648814Y-83069250D01*
X181601563Y-83069250D01*
X175585869Y-83069250D01*
X175536709Y-83054815D01*
X175511600Y-83033474D01*
X175505873Y-83027114D01*
X175505869Y-83027110D01*
X175352734Y-82915851D01*
X175352729Y-82915848D01*
X175179807Y-82838857D01*
X175179802Y-82838855D01*
X175034000Y-82807865D01*
X174994646Y-82799500D01*
X174805354Y-82799500D01*
X174772897Y-82806398D01*
X174620197Y-82838855D01*
X174620192Y-82838857D01*
X174447270Y-82915848D01*
X174447265Y-82915851D01*
X174294129Y-83027111D01*
X174167466Y-83167785D01*
X174072821Y-83331715D01*
X174072818Y-83331722D01*
X174014327Y-83511740D01*
X174014326Y-83511744D01*
X173994540Y-83700000D01*
X174014326Y-83888256D01*
X174014327Y-83888259D01*
X174072818Y-84068277D01*
X174072821Y-84068284D01*
X174167467Y-84232216D01*
X174279106Y-84356203D01*
X174294129Y-84372888D01*
X174447265Y-84484148D01*
X174447270Y-84484151D01*
X174620192Y-84561142D01*
X174620197Y-84561144D01*
X174805354Y-84600500D01*
X174805355Y-84600500D01*
X174994644Y-84600500D01*
X174994646Y-84600500D01*
X175179803Y-84561144D01*
X175352730Y-84484151D01*
X175505871Y-84372888D01*
X175508788Y-84369647D01*
X175511600Y-84366526D01*
X175571087Y-84329879D01*
X175603748Y-84325500D01*
X178989548Y-84325500D01*
X179056587Y-84345185D01*
X179077229Y-84361819D01*
X179638180Y-84922770D01*
X179671665Y-84984093D01*
X179674499Y-85010451D01*
X179674499Y-87301312D01*
X179654814Y-87368351D01*
X179642650Y-87384283D01*
X179567466Y-87467785D01*
X179472821Y-87631715D01*
X179472818Y-87631722D01*
X179414327Y-87811740D01*
X179414326Y-87811744D01*
X179394540Y-88000000D01*
X179398485Y-88037540D01*
X179385917Y-88106268D01*
X179338185Y-88157292D01*
X179275165Y-88174500D01*
X176386217Y-88174500D01*
X176335781Y-88163779D01*
X176279806Y-88138857D01*
X176279802Y-88138855D01*
X176126487Y-88106268D01*
X176094646Y-88099500D01*
X175905354Y-88099500D01*
X175873513Y-88106268D01*
X175720197Y-88138855D01*
X175720192Y-88138857D01*
X175547270Y-88215848D01*
X175547265Y-88215851D01*
X175394129Y-88327111D01*
X175394128Y-88327112D01*
X175341649Y-88385396D01*
X175282162Y-88422044D01*
X175212305Y-88420713D01*
X175154257Y-88381826D01*
X175126448Y-88317729D01*
X175125500Y-88302423D01*
X175125500Y-87182742D01*
X175127224Y-87167122D01*
X175126939Y-87167095D01*
X175127673Y-87159333D01*
X175125500Y-87090172D01*
X175125500Y-87060656D01*
X175125500Y-87060650D01*
X175124631Y-87053779D01*
X175124173Y-87047952D01*
X175123021Y-87011285D01*
X175122710Y-87001373D01*
X175117119Y-86982130D01*
X175113173Y-86963078D01*
X175110664Y-86943208D01*
X175093504Y-86899867D01*
X175091624Y-86894379D01*
X175078618Y-86849610D01*
X175075316Y-86844027D01*
X175068423Y-86832371D01*
X175059861Y-86814894D01*
X175052487Y-86796270D01*
X175052486Y-86796268D01*
X175025079Y-86758545D01*
X175021888Y-86753686D01*
X174998172Y-86713583D01*
X174998165Y-86713574D01*
X174984006Y-86699415D01*
X174971368Y-86684619D01*
X174959594Y-86668413D01*
X174958918Y-86667854D01*
X174923688Y-86638709D01*
X174919376Y-86634786D01*
X171700803Y-83416212D01*
X171690980Y-83403950D01*
X171690759Y-83404134D01*
X171685786Y-83398123D01*
X171635364Y-83350773D01*
X171624919Y-83340328D01*
X171614475Y-83329883D01*
X171608986Y-83325625D01*
X171604561Y-83321847D01*
X171570582Y-83289938D01*
X171570580Y-83289936D01*
X171570577Y-83289935D01*
X171553029Y-83280288D01*
X171536763Y-83269604D01*
X171520933Y-83257325D01*
X171478168Y-83238818D01*
X171472922Y-83236248D01*
X171432093Y-83213803D01*
X171432092Y-83213802D01*
X171412693Y-83208822D01*
X171394281Y-83202518D01*
X171375898Y-83194562D01*
X171375892Y-83194560D01*
X171329873Y-83187272D01*
X171324151Y-83186087D01*
X171275635Y-83173630D01*
X171215597Y-83137892D01*
X171214323Y-83136498D01*
X171205875Y-83127116D01*
X171205869Y-83127110D01*
X171052734Y-83015851D01*
X171052729Y-83015848D01*
X170879807Y-82938857D01*
X170879802Y-82938855D01*
X170734001Y-82907865D01*
X170694646Y-82899500D01*
X170505354Y-82899500D01*
X170472897Y-82906398D01*
X170320197Y-82938855D01*
X170320192Y-82938857D01*
X170147270Y-83015848D01*
X170147265Y-83015851D01*
X169994129Y-83127111D01*
X169867466Y-83267785D01*
X169772821Y-83431715D01*
X169772818Y-83431722D01*
X169721227Y-83590504D01*
X169714326Y-83611744D01*
X169694540Y-83800000D01*
X162350500Y-83800000D01*
X162350500Y-82634321D01*
X162367113Y-82572321D01*
X162402684Y-82510710D01*
X162427179Y-82468284D01*
X162485674Y-82288256D01*
X162505460Y-82100000D01*
X162485674Y-81911744D01*
X162427179Y-81731716D01*
X162332533Y-81567784D01*
X162205871Y-81427112D01*
X162205870Y-81427111D01*
X162052734Y-81315851D01*
X162052729Y-81315848D01*
X161879807Y-81238857D01*
X161879802Y-81238855D01*
X161734001Y-81207865D01*
X161694646Y-81199500D01*
X161505354Y-81199500D01*
X161472897Y-81206398D01*
X161320197Y-81238855D01*
X161320192Y-81238857D01*
X161147270Y-81315848D01*
X161147265Y-81315851D01*
X160994129Y-81427111D01*
X160867466Y-81567785D01*
X160772821Y-81731715D01*
X160772818Y-81731722D01*
X160714327Y-81911740D01*
X160714326Y-81911744D01*
X160694540Y-82100000D01*
X160714326Y-82288256D01*
X160714327Y-82288259D01*
X160772818Y-82468277D01*
X160772821Y-82468284D01*
X160832887Y-82572321D01*
X160849500Y-82634321D01*
X160849500Y-88125500D01*
X160829815Y-88192539D01*
X160777011Y-88238294D01*
X160725500Y-88249500D01*
X153763705Y-88249500D01*
X153745735Y-88248191D01*
X153721972Y-88244710D01*
X153676533Y-88248686D01*
X153669931Y-88249264D01*
X153664530Y-88249500D01*
X153656289Y-88249500D01*
X153634579Y-88252037D01*
X153623724Y-88253306D01*
X153608419Y-88254645D01*
X153547199Y-88260001D01*
X153540132Y-88261460D01*
X153540120Y-88261404D01*
X153532763Y-88263035D01*
X153532777Y-88263092D01*
X153525743Y-88264759D01*
X153453575Y-88291025D01*
X153380675Y-88315181D01*
X153374126Y-88318236D01*
X153374101Y-88318183D01*
X153367308Y-88321471D01*
X153367334Y-88321523D01*
X153360880Y-88324764D01*
X153296708Y-88366971D01*
X153231347Y-88407285D01*
X153225683Y-88411765D01*
X153225647Y-88411719D01*
X153219798Y-88416484D01*
X153219835Y-88416528D01*
X153214310Y-88421164D01*
X153214304Y-88421169D01*
X153214304Y-88421170D01*
X153170325Y-88467784D01*
X153161598Y-88477034D01*
X152637181Y-89001450D01*
X152575858Y-89034935D01*
X152506166Y-89029951D01*
X152450233Y-88988079D01*
X152425816Y-88922615D01*
X152425500Y-88913769D01*
X152425500Y-88882742D01*
X152427224Y-88867122D01*
X152426939Y-88867096D01*
X152427671Y-88859340D01*
X152427673Y-88859333D01*
X152425500Y-88790185D01*
X152425500Y-88760650D01*
X152424631Y-88753772D01*
X152424172Y-88747943D01*
X152422709Y-88701372D01*
X152417122Y-88682144D01*
X152413174Y-88663084D01*
X152412608Y-88658599D01*
X152410664Y-88643208D01*
X152410663Y-88643206D01*
X152410663Y-88643204D01*
X152393512Y-88599887D01*
X152391619Y-88594358D01*
X152378618Y-88549609D01*
X152378616Y-88549606D01*
X152368423Y-88532371D01*
X152359861Y-88514894D01*
X152352487Y-88496270D01*
X152349025Y-88491505D01*
X152325079Y-88458545D01*
X152321888Y-88453686D01*
X152298172Y-88413583D01*
X152298165Y-88413574D01*
X152284006Y-88399415D01*
X152271368Y-88384619D01*
X152259594Y-88368413D01*
X152251328Y-88361575D01*
X152223688Y-88338709D01*
X152219376Y-88334786D01*
X147950803Y-84066212D01*
X147940980Y-84053950D01*
X147940759Y-84054134D01*
X147935786Y-84048123D01*
X147935785Y-84048122D01*
X147885364Y-84000773D01*
X147870926Y-83986335D01*
X147864475Y-83979883D01*
X147858986Y-83975625D01*
X147854561Y-83971847D01*
X147820582Y-83939938D01*
X147820580Y-83939936D01*
X147820577Y-83939935D01*
X147803029Y-83930288D01*
X147786763Y-83919604D01*
X147770933Y-83907325D01*
X147728168Y-83888818D01*
X147722922Y-83886248D01*
X147682093Y-83863803D01*
X147682092Y-83863802D01*
X147662693Y-83858822D01*
X147644281Y-83852518D01*
X147625898Y-83844562D01*
X147625892Y-83844560D01*
X147579874Y-83837272D01*
X147574152Y-83836087D01*
X147529021Y-83824500D01*
X147529019Y-83824500D01*
X147508984Y-83824500D01*
X147489586Y-83822973D01*
X147482162Y-83821797D01*
X147469805Y-83819840D01*
X147469804Y-83819840D01*
X147423416Y-83824225D01*
X147417578Y-83824500D01*
X146150227Y-83824500D01*
X146083188Y-83804815D01*
X146048652Y-83771623D01*
X145913494Y-83578597D01*
X145746402Y-83411506D01*
X145746395Y-83411501D01*
X145727289Y-83398123D01*
X145659667Y-83350773D01*
X145552834Y-83275967D01*
X145552830Y-83275965D01*
X145512861Y-83257327D01*
X145338663Y-83176097D01*
X145338659Y-83176096D01*
X145338655Y-83176094D01*
X145110413Y-83114938D01*
X145110403Y-83114936D01*
X144875001Y-83094341D01*
X144874999Y-83094341D01*
X144639596Y-83114936D01*
X144639586Y-83114938D01*
X144411344Y-83176094D01*
X144411335Y-83176098D01*
X144197171Y-83275964D01*
X144197169Y-83275965D01*
X144003597Y-83411505D01*
X143836505Y-83578597D01*
X143700965Y-83772169D01*
X143700964Y-83772171D01*
X143601098Y-83986335D01*
X143601094Y-83986344D01*
X143539938Y-84214586D01*
X143539936Y-84214596D01*
X143519341Y-84449999D01*
X143519341Y-84450000D01*
X143539936Y-84685403D01*
X143539938Y-84685413D01*
X143601094Y-84913655D01*
X143601096Y-84913659D01*
X143601097Y-84913663D01*
X143676563Y-85075500D01*
X143700965Y-85127830D01*
X143700967Y-85127834D01*
X143722115Y-85158036D01*
X143836501Y-85321396D01*
X143836506Y-85321402D01*
X144003597Y-85488493D01*
X144003603Y-85488498D01*
X144189158Y-85618425D01*
X144232783Y-85673002D01*
X144239977Y-85742500D01*
X144208454Y-85804855D01*
X144189158Y-85821575D01*
X144003597Y-85951505D01*
X143836505Y-86118597D01*
X143700965Y-86312169D01*
X143700964Y-86312171D01*
X143601098Y-86526335D01*
X143601094Y-86526344D01*
X143539938Y-86754586D01*
X143539936Y-86754596D01*
X143519341Y-86989999D01*
X143519341Y-86990000D01*
X143539936Y-87225403D01*
X143539938Y-87225413D01*
X143601094Y-87453655D01*
X143601096Y-87453659D01*
X143601097Y-87453663D01*
X143662712Y-87585797D01*
X143700965Y-87667830D01*
X143700967Y-87667834D01*
X143836501Y-87861395D01*
X143836506Y-87861402D01*
X144003597Y-88028493D01*
X144003603Y-88028498D01*
X144189158Y-88158425D01*
X144232783Y-88213002D01*
X144239977Y-88282500D01*
X144208454Y-88344855D01*
X144189158Y-88361575D01*
X144003597Y-88491505D01*
X143836505Y-88658597D01*
X143701348Y-88851623D01*
X143646771Y-88895248D01*
X143599773Y-88904500D01*
X143252743Y-88904500D01*
X143237122Y-88902775D01*
X143237096Y-88903061D01*
X143229334Y-88902327D01*
X143229333Y-88902327D01*
X143160186Y-88904500D01*
X143130649Y-88904500D01*
X143123766Y-88905369D01*
X143117949Y-88905826D01*
X143071373Y-88907290D01*
X143052129Y-88912881D01*
X143033079Y-88916825D01*
X143013211Y-88919334D01*
X142969884Y-88936488D01*
X142964358Y-88938379D01*
X142919614Y-88951379D01*
X142919610Y-88951381D01*
X142902366Y-88961579D01*
X142884905Y-88970133D01*
X142866274Y-88977510D01*
X142866262Y-88977517D01*
X142828570Y-89004902D01*
X142823687Y-89008109D01*
X142783580Y-89031829D01*
X142769414Y-89045995D01*
X142754624Y-89058627D01*
X142738414Y-89070404D01*
X142738411Y-89070407D01*
X142708710Y-89106309D01*
X142704777Y-89110631D01*
X141616208Y-90199199D01*
X141603951Y-90209020D01*
X141604134Y-90209241D01*
X141598123Y-90214213D01*
X141550772Y-90264636D01*
X141529889Y-90285519D01*
X141529877Y-90285532D01*
X141525621Y-90291017D01*
X141521837Y-90295447D01*
X141489937Y-90329418D01*
X141489936Y-90329420D01*
X141480284Y-90346976D01*
X141469610Y-90363226D01*
X141457329Y-90379061D01*
X141457324Y-90379068D01*
X141438815Y-90421838D01*
X141436245Y-90427084D01*
X141413803Y-90467906D01*
X141408822Y-90487307D01*
X141402521Y-90505710D01*
X141394562Y-90524102D01*
X141394561Y-90524105D01*
X141387271Y-90570127D01*
X141386087Y-90575846D01*
X141374501Y-90620972D01*
X141374500Y-90620982D01*
X141374500Y-90641016D01*
X141372973Y-90660415D01*
X141369840Y-90680194D01*
X141369840Y-90680195D01*
X140400500Y-90680195D01*
X140400500Y-79724500D01*
X140420185Y-79657461D01*
X140472989Y-79611706D01*
X140524500Y-79600500D01*
X191075500Y-79600500D01*
X191142539Y-79620185D01*
G37*
%TD.AperFunction*%
%TD*%
M02*
