%TF.GenerationSoftware,KiCad,Pcbnew,7.0.6*%
%TF.CreationDate,2024-04-30T21:30:09+02:00*%
%TF.ProjectId,F_Board_V1.1,465f426f-6172-4645-9f56-312e312e6b69,rev?*%
%TF.SameCoordinates,Original*%
%TF.FileFunction,Drillmap*%
%TF.FilePolarity,Positive*%
%FSLAX45Y45*%
G04 Gerber Fmt 4.5, Leading zero omitted, Abs format (unit mm)*
G04 Created by KiCad (PCBNEW 7.0.6) date 2024-04-30 21:30:09*
%MOMM*%
%LPD*%
G01*
G04 APERTURE LIST*
%ADD10C,0.100000*%
%ADD11C,0.200000*%
%ADD12C,0.040000*%
%ADD13C,0.058000*%
%ADD14C,0.080000*%
G04 APERTURE END LIST*
D10*
X14040000Y-7960000D02*
X19120000Y-7960000D01*
X19120000Y-10380000D01*
X14040000Y-10380000D01*
X14040000Y-7960000D01*
D11*
D12*
X14460000Y-10230000D02*
X14500000Y-10270000D01*
X14500000Y-10230000D02*
X14460000Y-10270000D01*
X14940000Y-9180000D02*
X14980000Y-9220000D01*
X14980000Y-9180000D02*
X14940000Y-9220000D01*
X15040000Y-9580000D02*
X15080000Y-9620000D01*
X15080000Y-9580000D02*
X15040000Y-9620000D01*
X15240000Y-9030000D02*
X15280000Y-9070000D01*
X15280000Y-9030000D02*
X15240000Y-9070000D01*
X15290000Y-9310000D02*
X15330000Y-9350000D01*
X15330000Y-9310000D02*
X15290000Y-9350000D01*
X16140000Y-8190000D02*
X16180000Y-8230000D01*
X16180000Y-8190000D02*
X16140000Y-8230000D01*
X16290000Y-8460000D02*
X16330000Y-8500000D01*
X16330000Y-8460000D02*
X16290000Y-8500000D01*
X16670000Y-9380000D02*
X16710000Y-9420000D01*
X16710000Y-9380000D02*
X16670000Y-9420000D01*
X16740000Y-8630000D02*
X16780000Y-8670000D01*
X16780000Y-8630000D02*
X16740000Y-8670000D01*
X16810000Y-9050000D02*
X16850000Y-9090000D01*
X16850000Y-9050000D02*
X16810000Y-9090000D01*
X17040000Y-8360000D02*
X17080000Y-8400000D01*
X17080000Y-8360000D02*
X17040000Y-8400000D01*
X17450000Y-9200000D02*
X17490000Y-9240000D01*
X17490000Y-9200000D02*
X17450000Y-9240000D01*
X17470000Y-8350000D02*
X17510000Y-8390000D01*
X17510000Y-8350000D02*
X17470000Y-8390000D01*
X17580000Y-8880000D02*
X17620000Y-8920000D01*
X17620000Y-8880000D02*
X17580000Y-8920000D01*
X18010000Y-8780000D02*
X18050000Y-8820000D01*
X18050000Y-8780000D02*
X18010000Y-8820000D01*
D13*
X18312250Y-8599425D02*
G75*
G03*
X18312250Y-8599425I-29000J0D01*
G01*
X18312250Y-8709425D02*
G75*
G03*
X18312250Y-8709425I-29000J0D01*
G01*
X18312250Y-8819425D02*
G75*
G03*
X18312250Y-8819425I-29000J0D01*
G01*
X18312250Y-8929425D02*
G75*
G03*
X18312250Y-8929425I-29000J0D01*
G01*
X18312250Y-9079425D02*
G75*
G03*
X18312250Y-9079425I-29000J0D01*
G01*
X18312250Y-9264425D02*
G75*
G03*
X18312250Y-9264425I-29000J0D01*
G01*
X18312250Y-9414425D02*
G75*
G03*
X18312250Y-9414425I-29000J0D01*
G01*
X18312250Y-9524425D02*
G75*
G03*
X18312250Y-9524425I-29000J0D01*
G01*
X18312250Y-9634425D02*
G75*
G03*
X18312250Y-9634425I-29000J0D01*
G01*
X18312250Y-9744425D02*
G75*
G03*
X18312250Y-9744425I-29000J0D01*
G01*
X18392250Y-9004425D02*
G75*
G03*
X18392250Y-9004425I-29000J0D01*
G01*
X18392250Y-9339425D02*
G75*
G03*
X18392250Y-9339425I-29000J0D01*
G01*
X18444750Y-8676925D02*
G75*
G03*
X18444750Y-8676925I-29000J0D01*
G01*
X18444750Y-8786925D02*
G75*
G03*
X18444750Y-8786925I-29000J0D01*
G01*
X18444750Y-8896925D02*
G75*
G03*
X18444750Y-8896925I-29000J0D01*
G01*
X18444750Y-9446925D02*
G75*
G03*
X18444750Y-9446925I-29000J0D01*
G01*
X18444750Y-9556925D02*
G75*
G03*
X18444750Y-9556925I-29000J0D01*
G01*
X18444750Y-9666925D02*
G75*
G03*
X18444750Y-9666925I-29000J0D01*
G01*
X18497250Y-9041925D02*
G75*
G03*
X18497250Y-9041925I-29000J0D01*
G01*
X18497250Y-9301925D02*
G75*
G03*
X18497250Y-9301925I-29000J0D01*
G01*
X18577250Y-8636925D02*
G75*
G03*
X18577250Y-8636925I-29000J0D01*
G01*
X18577250Y-8746925D02*
G75*
G03*
X18577250Y-8746925I-29000J0D01*
G01*
X18577250Y-8856925D02*
G75*
G03*
X18577250Y-8856925I-29000J0D01*
G01*
X18577250Y-8966925D02*
G75*
G03*
X18577250Y-8966925I-29000J0D01*
G01*
X18577250Y-9116925D02*
G75*
G03*
X18577250Y-9116925I-29000J0D01*
G01*
X18577250Y-9226925D02*
G75*
G03*
X18577250Y-9226925I-29000J0D01*
G01*
X18577250Y-9376925D02*
G75*
G03*
X18577250Y-9376925I-29000J0D01*
G01*
X18577250Y-9486925D02*
G75*
G03*
X18577250Y-9486925I-29000J0D01*
G01*
X18577250Y-9596925D02*
G75*
G03*
X18577250Y-9596925I-29000J0D01*
G01*
X18577250Y-9706925D02*
G75*
G03*
X18577250Y-9706925I-29000J0D01*
G01*
D14*
X17112000Y-9940000D02*
X17112000Y-10020000D01*
X17072000Y-9980000D02*
X17152000Y-9980000D01*
X17600000Y-9940000D02*
X17600000Y-10020000D01*
X17560000Y-9980000D02*
X17640000Y-9980000D01*
D10*
X14522856Y-8480356D02*
X14522856Y-8409644D01*
X14452144Y-8409644D01*
X14452144Y-8480356D01*
X14522856Y-8480356D01*
X14522856Y-8734356D02*
X14522856Y-8663644D01*
X14452144Y-8663644D01*
X14452144Y-8734356D01*
X14522856Y-8734356D01*
X14522856Y-8988356D02*
X14522856Y-8917644D01*
X14452144Y-8917644D01*
X14452144Y-8988356D01*
X14522856Y-8988356D01*
X14522856Y-9242356D02*
X14522856Y-9171644D01*
X14452144Y-9171644D01*
X14452144Y-9242356D01*
X14522856Y-9242356D01*
X14522856Y-9496356D02*
X14522856Y-9425644D01*
X14452144Y-9425644D01*
X14452144Y-9496356D01*
X14522856Y-9496356D01*
X14522856Y-9750356D02*
X14522856Y-9679644D01*
X14452144Y-9679644D01*
X14452144Y-9750356D01*
X14522856Y-9750356D01*
X15160356Y-9480356D02*
X15160356Y-9409644D01*
X15089644Y-9409644D01*
X15089644Y-9480356D01*
X15160356Y-9480356D01*
X15160356Y-10130356D02*
X15160356Y-10059644D01*
X15089644Y-10059644D01*
X15089644Y-10130356D01*
X15160356Y-10130356D01*
X15610356Y-9480356D02*
X15610356Y-9409644D01*
X15539644Y-9409644D01*
X15539644Y-9480356D01*
X15610356Y-9480356D01*
X15610356Y-10130356D02*
X15610356Y-10059644D01*
X15539644Y-10059644D01*
X15539644Y-10130356D01*
X15610356Y-10130356D01*
X16000356Y-9480356D02*
X16000356Y-9409644D01*
X15929644Y-9409644D01*
X15929644Y-9480356D01*
X16000356Y-9480356D01*
X16000356Y-10130356D02*
X16000356Y-10059644D01*
X15929644Y-10059644D01*
X15929644Y-10130356D01*
X16000356Y-10130356D01*
X16450356Y-9480356D02*
X16450356Y-9409644D01*
X16379644Y-9409644D01*
X16379644Y-9480356D01*
X16450356Y-9480356D01*
X16450356Y-10130356D02*
X16450356Y-10059644D01*
X16379644Y-10059644D01*
X16379644Y-10130356D01*
X16450356Y-10130356D01*
X18451106Y-8317281D02*
X18451106Y-8246569D01*
X18380394Y-8246569D01*
X18380394Y-8317281D01*
X18451106Y-8317281D01*
D11*
X18308250Y-8331925D02*
X18523250Y-8331925D01*
X18523250Y-8331925D02*
G75*
G03*
X18523250Y-8231925I0J50000D01*
G01*
X18523250Y-8231925D02*
X18308250Y-8231925D01*
X18308250Y-8231925D02*
G75*
G03*
X18308250Y-8331925I0J-50000D01*
G01*
D10*
X18451106Y-10097281D02*
X18451106Y-10026569D01*
X18380394Y-10026569D01*
X18380394Y-10097281D01*
X18451106Y-10097281D01*
D11*
X18308250Y-10111925D02*
X18523250Y-10111925D01*
X18523250Y-10111925D02*
G75*
G03*
X18523250Y-10011925I0J50000D01*
G01*
X18523250Y-10011925D02*
X18308250Y-10011925D01*
X18308250Y-10011925D02*
G75*
G03*
X18308250Y-10111925I0J-50000D01*
G01*
X14295777Y-10696484D02*
X14295777Y-10496484D01*
X14295777Y-10496484D02*
X14343396Y-10496484D01*
X14343396Y-10496484D02*
X14371967Y-10506008D01*
X14371967Y-10506008D02*
X14391015Y-10525055D01*
X14391015Y-10525055D02*
X14400539Y-10544103D01*
X14400539Y-10544103D02*
X14410062Y-10582198D01*
X14410062Y-10582198D02*
X14410062Y-10610770D01*
X14410062Y-10610770D02*
X14400539Y-10648865D01*
X14400539Y-10648865D02*
X14391015Y-10667912D01*
X14391015Y-10667912D02*
X14371967Y-10686960D01*
X14371967Y-10686960D02*
X14343396Y-10696484D01*
X14343396Y-10696484D02*
X14295777Y-10696484D01*
X14495777Y-10696484D02*
X14495777Y-10563150D01*
X14495777Y-10601246D02*
X14505301Y-10582198D01*
X14505301Y-10582198D02*
X14514824Y-10572674D01*
X14514824Y-10572674D02*
X14533872Y-10563150D01*
X14533872Y-10563150D02*
X14552920Y-10563150D01*
X14619586Y-10696484D02*
X14619586Y-10563150D01*
X14619586Y-10496484D02*
X14610062Y-10506008D01*
X14610062Y-10506008D02*
X14619586Y-10515531D01*
X14619586Y-10515531D02*
X14629110Y-10506008D01*
X14629110Y-10506008D02*
X14619586Y-10496484D01*
X14619586Y-10496484D02*
X14619586Y-10515531D01*
X14743396Y-10696484D02*
X14724348Y-10686960D01*
X14724348Y-10686960D02*
X14714824Y-10667912D01*
X14714824Y-10667912D02*
X14714824Y-10496484D01*
X14848158Y-10696484D02*
X14829110Y-10686960D01*
X14829110Y-10686960D02*
X14819586Y-10667912D01*
X14819586Y-10667912D02*
X14819586Y-10496484D01*
X15076729Y-10696484D02*
X15076729Y-10496484D01*
X15076729Y-10496484D02*
X15143396Y-10639341D01*
X15143396Y-10639341D02*
X15210062Y-10496484D01*
X15210062Y-10496484D02*
X15210062Y-10696484D01*
X15391015Y-10696484D02*
X15391015Y-10591722D01*
X15391015Y-10591722D02*
X15381491Y-10572674D01*
X15381491Y-10572674D02*
X15362443Y-10563150D01*
X15362443Y-10563150D02*
X15324348Y-10563150D01*
X15324348Y-10563150D02*
X15305301Y-10572674D01*
X15391015Y-10686960D02*
X15371967Y-10696484D01*
X15371967Y-10696484D02*
X15324348Y-10696484D01*
X15324348Y-10696484D02*
X15305301Y-10686960D01*
X15305301Y-10686960D02*
X15295777Y-10667912D01*
X15295777Y-10667912D02*
X15295777Y-10648865D01*
X15295777Y-10648865D02*
X15305301Y-10629817D01*
X15305301Y-10629817D02*
X15324348Y-10620293D01*
X15324348Y-10620293D02*
X15371967Y-10620293D01*
X15371967Y-10620293D02*
X15391015Y-10610770D01*
X15486253Y-10563150D02*
X15486253Y-10763150D01*
X15486253Y-10572674D02*
X15505301Y-10563150D01*
X15505301Y-10563150D02*
X15543396Y-10563150D01*
X15543396Y-10563150D02*
X15562443Y-10572674D01*
X15562443Y-10572674D02*
X15571967Y-10582198D01*
X15571967Y-10582198D02*
X15581491Y-10601246D01*
X15581491Y-10601246D02*
X15581491Y-10658389D01*
X15581491Y-10658389D02*
X15571967Y-10677436D01*
X15571967Y-10677436D02*
X15562443Y-10686960D01*
X15562443Y-10686960D02*
X15543396Y-10696484D01*
X15543396Y-10696484D02*
X15505301Y-10696484D01*
X15505301Y-10696484D02*
X15486253Y-10686960D01*
X15667205Y-10677436D02*
X15676729Y-10686960D01*
X15676729Y-10686960D02*
X15667205Y-10696484D01*
X15667205Y-10696484D02*
X15657682Y-10686960D01*
X15657682Y-10686960D02*
X15667205Y-10677436D01*
X15667205Y-10677436D02*
X15667205Y-10696484D01*
X15667205Y-10572674D02*
X15676729Y-10582198D01*
X15676729Y-10582198D02*
X15667205Y-10591722D01*
X15667205Y-10591722D02*
X15657682Y-10582198D01*
X15657682Y-10582198D02*
X15667205Y-10572674D01*
X15667205Y-10572674D02*
X15667205Y-10591722D01*
D12*
X13995000Y-11005000D02*
X14035000Y-11045000D01*
X14035000Y-11005000D02*
X13995000Y-11045000D01*
D11*
X14333872Y-10916484D02*
X14352920Y-10916484D01*
X14352920Y-10916484D02*
X14371967Y-10926008D01*
X14371967Y-10926008D02*
X14381491Y-10935531D01*
X14381491Y-10935531D02*
X14391015Y-10954579D01*
X14391015Y-10954579D02*
X14400539Y-10992674D01*
X14400539Y-10992674D02*
X14400539Y-11040293D01*
X14400539Y-11040293D02*
X14391015Y-11078389D01*
X14391015Y-11078389D02*
X14381491Y-11097436D01*
X14381491Y-11097436D02*
X14371967Y-11106960D01*
X14371967Y-11106960D02*
X14352920Y-11116484D01*
X14352920Y-11116484D02*
X14333872Y-11116484D01*
X14333872Y-11116484D02*
X14314824Y-11106960D01*
X14314824Y-11106960D02*
X14305301Y-11097436D01*
X14305301Y-11097436D02*
X14295777Y-11078389D01*
X14295777Y-11078389D02*
X14286253Y-11040293D01*
X14286253Y-11040293D02*
X14286253Y-10992674D01*
X14286253Y-10992674D02*
X14295777Y-10954579D01*
X14295777Y-10954579D02*
X14305301Y-10935531D01*
X14305301Y-10935531D02*
X14314824Y-10926008D01*
X14314824Y-10926008D02*
X14333872Y-10916484D01*
X14486253Y-11097436D02*
X14495777Y-11106960D01*
X14495777Y-11106960D02*
X14486253Y-11116484D01*
X14486253Y-11116484D02*
X14476729Y-11106960D01*
X14476729Y-11106960D02*
X14486253Y-11097436D01*
X14486253Y-11097436D02*
X14486253Y-11116484D01*
X14667205Y-10983150D02*
X14667205Y-11116484D01*
X14619586Y-10906960D02*
X14571967Y-11049817D01*
X14571967Y-11049817D02*
X14695777Y-11049817D01*
X14810062Y-10916484D02*
X14829110Y-10916484D01*
X14829110Y-10916484D02*
X14848158Y-10926008D01*
X14848158Y-10926008D02*
X14857682Y-10935531D01*
X14857682Y-10935531D02*
X14867205Y-10954579D01*
X14867205Y-10954579D02*
X14876729Y-10992674D01*
X14876729Y-10992674D02*
X14876729Y-11040293D01*
X14876729Y-11040293D02*
X14867205Y-11078389D01*
X14867205Y-11078389D02*
X14857682Y-11097436D01*
X14857682Y-11097436D02*
X14848158Y-11106960D01*
X14848158Y-11106960D02*
X14829110Y-11116484D01*
X14829110Y-11116484D02*
X14810062Y-11116484D01*
X14810062Y-11116484D02*
X14791015Y-11106960D01*
X14791015Y-11106960D02*
X14781491Y-11097436D01*
X14781491Y-11097436D02*
X14771967Y-11078389D01*
X14771967Y-11078389D02*
X14762443Y-11040293D01*
X14762443Y-11040293D02*
X14762443Y-10992674D01*
X14762443Y-10992674D02*
X14771967Y-10954579D01*
X14771967Y-10954579D02*
X14781491Y-10935531D01*
X14781491Y-10935531D02*
X14791015Y-10926008D01*
X14791015Y-10926008D02*
X14810062Y-10916484D01*
X15000539Y-10916484D02*
X15019586Y-10916484D01*
X15019586Y-10916484D02*
X15038634Y-10926008D01*
X15038634Y-10926008D02*
X15048158Y-10935531D01*
X15048158Y-10935531D02*
X15057682Y-10954579D01*
X15057682Y-10954579D02*
X15067205Y-10992674D01*
X15067205Y-10992674D02*
X15067205Y-11040293D01*
X15067205Y-11040293D02*
X15057682Y-11078389D01*
X15057682Y-11078389D02*
X15048158Y-11097436D01*
X15048158Y-11097436D02*
X15038634Y-11106960D01*
X15038634Y-11106960D02*
X15019586Y-11116484D01*
X15019586Y-11116484D02*
X15000539Y-11116484D01*
X15000539Y-11116484D02*
X14981491Y-11106960D01*
X14981491Y-11106960D02*
X14971967Y-11097436D01*
X14971967Y-11097436D02*
X14962443Y-11078389D01*
X14962443Y-11078389D02*
X14952920Y-11040293D01*
X14952920Y-11040293D02*
X14952920Y-10992674D01*
X14952920Y-10992674D02*
X14962443Y-10954579D01*
X14962443Y-10954579D02*
X14971967Y-10935531D01*
X14971967Y-10935531D02*
X14981491Y-10926008D01*
X14981491Y-10926008D02*
X15000539Y-10916484D01*
X15152920Y-11116484D02*
X15152920Y-10983150D01*
X15152920Y-11002198D02*
X15162443Y-10992674D01*
X15162443Y-10992674D02*
X15181491Y-10983150D01*
X15181491Y-10983150D02*
X15210063Y-10983150D01*
X15210063Y-10983150D02*
X15229110Y-10992674D01*
X15229110Y-10992674D02*
X15238634Y-11011722D01*
X15238634Y-11011722D02*
X15238634Y-11116484D01*
X15238634Y-11011722D02*
X15248158Y-10992674D01*
X15248158Y-10992674D02*
X15267205Y-10983150D01*
X15267205Y-10983150D02*
X15295777Y-10983150D01*
X15295777Y-10983150D02*
X15314824Y-10992674D01*
X15314824Y-10992674D02*
X15324348Y-11011722D01*
X15324348Y-11011722D02*
X15324348Y-11116484D01*
X15419586Y-11116484D02*
X15419586Y-10983150D01*
X15419586Y-11002198D02*
X15429110Y-10992674D01*
X15429110Y-10992674D02*
X15448158Y-10983150D01*
X15448158Y-10983150D02*
X15476729Y-10983150D01*
X15476729Y-10983150D02*
X15495777Y-10992674D01*
X15495777Y-10992674D02*
X15505301Y-11011722D01*
X15505301Y-11011722D02*
X15505301Y-11116484D01*
X15505301Y-11011722D02*
X15514824Y-10992674D01*
X15514824Y-10992674D02*
X15533872Y-10983150D01*
X15533872Y-10983150D02*
X15562443Y-10983150D01*
X15562443Y-10983150D02*
X15581491Y-10992674D01*
X15581491Y-10992674D02*
X15591015Y-11011722D01*
X15591015Y-11011722D02*
X15591015Y-11116484D01*
X15981491Y-10906960D02*
X15810063Y-11164103D01*
X16238634Y-10916484D02*
X16257682Y-10916484D01*
X16257682Y-10916484D02*
X16276729Y-10926008D01*
X16276729Y-10926008D02*
X16286253Y-10935531D01*
X16286253Y-10935531D02*
X16295777Y-10954579D01*
X16295777Y-10954579D02*
X16305301Y-10992674D01*
X16305301Y-10992674D02*
X16305301Y-11040293D01*
X16305301Y-11040293D02*
X16295777Y-11078389D01*
X16295777Y-11078389D02*
X16286253Y-11097436D01*
X16286253Y-11097436D02*
X16276729Y-11106960D01*
X16276729Y-11106960D02*
X16257682Y-11116484D01*
X16257682Y-11116484D02*
X16238634Y-11116484D01*
X16238634Y-11116484D02*
X16219586Y-11106960D01*
X16219586Y-11106960D02*
X16210063Y-11097436D01*
X16210063Y-11097436D02*
X16200539Y-11078389D01*
X16200539Y-11078389D02*
X16191015Y-11040293D01*
X16191015Y-11040293D02*
X16191015Y-10992674D01*
X16191015Y-10992674D02*
X16200539Y-10954579D01*
X16200539Y-10954579D02*
X16210063Y-10935531D01*
X16210063Y-10935531D02*
X16219586Y-10926008D01*
X16219586Y-10926008D02*
X16238634Y-10916484D01*
X16391015Y-11097436D02*
X16400539Y-11106960D01*
X16400539Y-11106960D02*
X16391015Y-11116484D01*
X16391015Y-11116484D02*
X16381491Y-11106960D01*
X16381491Y-11106960D02*
X16391015Y-11097436D01*
X16391015Y-11097436D02*
X16391015Y-11116484D01*
X16524348Y-10916484D02*
X16543396Y-10916484D01*
X16543396Y-10916484D02*
X16562444Y-10926008D01*
X16562444Y-10926008D02*
X16571967Y-10935531D01*
X16571967Y-10935531D02*
X16581491Y-10954579D01*
X16581491Y-10954579D02*
X16591015Y-10992674D01*
X16591015Y-10992674D02*
X16591015Y-11040293D01*
X16591015Y-11040293D02*
X16581491Y-11078389D01*
X16581491Y-11078389D02*
X16571967Y-11097436D01*
X16571967Y-11097436D02*
X16562444Y-11106960D01*
X16562444Y-11106960D02*
X16543396Y-11116484D01*
X16543396Y-11116484D02*
X16524348Y-11116484D01*
X16524348Y-11116484D02*
X16505301Y-11106960D01*
X16505301Y-11106960D02*
X16495777Y-11097436D01*
X16495777Y-11097436D02*
X16486253Y-11078389D01*
X16486253Y-11078389D02*
X16476729Y-11040293D01*
X16476729Y-11040293D02*
X16476729Y-10992674D01*
X16476729Y-10992674D02*
X16486253Y-10954579D01*
X16486253Y-10954579D02*
X16495777Y-10935531D01*
X16495777Y-10935531D02*
X16505301Y-10926008D01*
X16505301Y-10926008D02*
X16524348Y-10916484D01*
X16781491Y-11116484D02*
X16667206Y-11116484D01*
X16724348Y-11116484D02*
X16724348Y-10916484D01*
X16724348Y-10916484D02*
X16705301Y-10945055D01*
X16705301Y-10945055D02*
X16686253Y-10964103D01*
X16686253Y-10964103D02*
X16667206Y-10973627D01*
X16962444Y-10916484D02*
X16867206Y-10916484D01*
X16867206Y-10916484D02*
X16857682Y-11011722D01*
X16857682Y-11011722D02*
X16867206Y-11002198D01*
X16867206Y-11002198D02*
X16886253Y-10992674D01*
X16886253Y-10992674D02*
X16933872Y-10992674D01*
X16933872Y-10992674D02*
X16952920Y-11002198D01*
X16952920Y-11002198D02*
X16962444Y-11011722D01*
X16962444Y-11011722D02*
X16971968Y-11030770D01*
X16971968Y-11030770D02*
X16971968Y-11078389D01*
X16971968Y-11078389D02*
X16962444Y-11097436D01*
X16962444Y-11097436D02*
X16952920Y-11106960D01*
X16952920Y-11106960D02*
X16933872Y-11116484D01*
X16933872Y-11116484D02*
X16886253Y-11116484D01*
X16886253Y-11116484D02*
X16867206Y-11106960D01*
X16867206Y-11106960D02*
X16857682Y-11097436D01*
X17038634Y-10916484D02*
X17171968Y-10916484D01*
X17171968Y-10916484D02*
X17086253Y-11116484D01*
X17238634Y-10916484D02*
X17238634Y-10954579D01*
X17314825Y-10916484D02*
X17314825Y-10954579D01*
X17610063Y-11192674D02*
X17600539Y-11183150D01*
X17600539Y-11183150D02*
X17581491Y-11154579D01*
X17581491Y-11154579D02*
X17571968Y-11135531D01*
X17571968Y-11135531D02*
X17562444Y-11106960D01*
X17562444Y-11106960D02*
X17552920Y-11059341D01*
X17552920Y-11059341D02*
X17552920Y-11021246D01*
X17552920Y-11021246D02*
X17562444Y-10973627D01*
X17562444Y-10973627D02*
X17571968Y-10945055D01*
X17571968Y-10945055D02*
X17581491Y-10926008D01*
X17581491Y-10926008D02*
X17600539Y-10897436D01*
X17600539Y-10897436D02*
X17610063Y-10887912D01*
X17791015Y-11116484D02*
X17676730Y-11116484D01*
X17733872Y-11116484D02*
X17733872Y-10916484D01*
X17733872Y-10916484D02*
X17714825Y-10945055D01*
X17714825Y-10945055D02*
X17695777Y-10964103D01*
X17695777Y-10964103D02*
X17676730Y-10973627D01*
X17971968Y-10916484D02*
X17876730Y-10916484D01*
X17876730Y-10916484D02*
X17867206Y-11011722D01*
X17867206Y-11011722D02*
X17876730Y-11002198D01*
X17876730Y-11002198D02*
X17895777Y-10992674D01*
X17895777Y-10992674D02*
X17943396Y-10992674D01*
X17943396Y-10992674D02*
X17962444Y-11002198D01*
X17962444Y-11002198D02*
X17971968Y-11011722D01*
X17971968Y-11011722D02*
X17981491Y-11030770D01*
X17981491Y-11030770D02*
X17981491Y-11078389D01*
X17981491Y-11078389D02*
X17971968Y-11097436D01*
X17971968Y-11097436D02*
X17962444Y-11106960D01*
X17962444Y-11106960D02*
X17943396Y-11116484D01*
X17943396Y-11116484D02*
X17895777Y-11116484D01*
X17895777Y-11116484D02*
X17876730Y-11106960D01*
X17876730Y-11106960D02*
X17867206Y-11097436D01*
X18219587Y-11116484D02*
X18219587Y-10916484D01*
X18305301Y-11116484D02*
X18305301Y-11011722D01*
X18305301Y-11011722D02*
X18295777Y-10992674D01*
X18295777Y-10992674D02*
X18276730Y-10983150D01*
X18276730Y-10983150D02*
X18248158Y-10983150D01*
X18248158Y-10983150D02*
X18229111Y-10992674D01*
X18229111Y-10992674D02*
X18219587Y-11002198D01*
X18429111Y-11116484D02*
X18410063Y-11106960D01*
X18410063Y-11106960D02*
X18400539Y-11097436D01*
X18400539Y-11097436D02*
X18391015Y-11078389D01*
X18391015Y-11078389D02*
X18391015Y-11021246D01*
X18391015Y-11021246D02*
X18400539Y-11002198D01*
X18400539Y-11002198D02*
X18410063Y-10992674D01*
X18410063Y-10992674D02*
X18429111Y-10983150D01*
X18429111Y-10983150D02*
X18457682Y-10983150D01*
X18457682Y-10983150D02*
X18476730Y-10992674D01*
X18476730Y-10992674D02*
X18486253Y-11002198D01*
X18486253Y-11002198D02*
X18495777Y-11021246D01*
X18495777Y-11021246D02*
X18495777Y-11078389D01*
X18495777Y-11078389D02*
X18486253Y-11097436D01*
X18486253Y-11097436D02*
X18476730Y-11106960D01*
X18476730Y-11106960D02*
X18457682Y-11116484D01*
X18457682Y-11116484D02*
X18429111Y-11116484D01*
X18610063Y-11116484D02*
X18591015Y-11106960D01*
X18591015Y-11106960D02*
X18581492Y-11087912D01*
X18581492Y-11087912D02*
X18581492Y-10916484D01*
X18762444Y-11106960D02*
X18743396Y-11116484D01*
X18743396Y-11116484D02*
X18705301Y-11116484D01*
X18705301Y-11116484D02*
X18686253Y-11106960D01*
X18686253Y-11106960D02*
X18676730Y-11087912D01*
X18676730Y-11087912D02*
X18676730Y-11011722D01*
X18676730Y-11011722D02*
X18686253Y-10992674D01*
X18686253Y-10992674D02*
X18705301Y-10983150D01*
X18705301Y-10983150D02*
X18743396Y-10983150D01*
X18743396Y-10983150D02*
X18762444Y-10992674D01*
X18762444Y-10992674D02*
X18771968Y-11011722D01*
X18771968Y-11011722D02*
X18771968Y-11030770D01*
X18771968Y-11030770D02*
X18676730Y-11049817D01*
X18848158Y-11106960D02*
X18867206Y-11116484D01*
X18867206Y-11116484D02*
X18905301Y-11116484D01*
X18905301Y-11116484D02*
X18924349Y-11106960D01*
X18924349Y-11106960D02*
X18933873Y-11087912D01*
X18933873Y-11087912D02*
X18933873Y-11078389D01*
X18933873Y-11078389D02*
X18924349Y-11059341D01*
X18924349Y-11059341D02*
X18905301Y-11049817D01*
X18905301Y-11049817D02*
X18876730Y-11049817D01*
X18876730Y-11049817D02*
X18857682Y-11040293D01*
X18857682Y-11040293D02*
X18848158Y-11021246D01*
X18848158Y-11021246D02*
X18848158Y-11011722D01*
X18848158Y-11011722D02*
X18857682Y-10992674D01*
X18857682Y-10992674D02*
X18876730Y-10983150D01*
X18876730Y-10983150D02*
X18905301Y-10983150D01*
X18905301Y-10983150D02*
X18924349Y-10992674D01*
X19000539Y-11192674D02*
X19010063Y-11183150D01*
X19010063Y-11183150D02*
X19029111Y-11154579D01*
X19029111Y-11154579D02*
X19038634Y-11135531D01*
X19038634Y-11135531D02*
X19048158Y-11106960D01*
X19048158Y-11106960D02*
X19057682Y-11059341D01*
X19057682Y-11059341D02*
X19057682Y-11021246D01*
X19057682Y-11021246D02*
X19048158Y-10973627D01*
X19048158Y-10973627D02*
X19038634Y-10945055D01*
X19038634Y-10945055D02*
X19029111Y-10926008D01*
X19029111Y-10926008D02*
X19010063Y-10897436D01*
X19010063Y-10897436D02*
X19000539Y-10887912D01*
D13*
X14035000Y-11289000D02*
G75*
G03*
X14035000Y-11289000I-29000J0D01*
G01*
D11*
X14333872Y-11180484D02*
X14352920Y-11180484D01*
X14352920Y-11180484D02*
X14371967Y-11190008D01*
X14371967Y-11190008D02*
X14381491Y-11199531D01*
X14381491Y-11199531D02*
X14391015Y-11218579D01*
X14391015Y-11218579D02*
X14400539Y-11256674D01*
X14400539Y-11256674D02*
X14400539Y-11304293D01*
X14400539Y-11304293D02*
X14391015Y-11342388D01*
X14391015Y-11342388D02*
X14381491Y-11361436D01*
X14381491Y-11361436D02*
X14371967Y-11370960D01*
X14371967Y-11370960D02*
X14352920Y-11380484D01*
X14352920Y-11380484D02*
X14333872Y-11380484D01*
X14333872Y-11380484D02*
X14314824Y-11370960D01*
X14314824Y-11370960D02*
X14305301Y-11361436D01*
X14305301Y-11361436D02*
X14295777Y-11342388D01*
X14295777Y-11342388D02*
X14286253Y-11304293D01*
X14286253Y-11304293D02*
X14286253Y-11256674D01*
X14286253Y-11256674D02*
X14295777Y-11218579D01*
X14295777Y-11218579D02*
X14305301Y-11199531D01*
X14305301Y-11199531D02*
X14314824Y-11190008D01*
X14314824Y-11190008D02*
X14333872Y-11180484D01*
X14486253Y-11361436D02*
X14495777Y-11370960D01*
X14495777Y-11370960D02*
X14486253Y-11380484D01*
X14486253Y-11380484D02*
X14476729Y-11370960D01*
X14476729Y-11370960D02*
X14486253Y-11361436D01*
X14486253Y-11361436D02*
X14486253Y-11380484D01*
X14676729Y-11180484D02*
X14581491Y-11180484D01*
X14581491Y-11180484D02*
X14571967Y-11275722D01*
X14571967Y-11275722D02*
X14581491Y-11266198D01*
X14581491Y-11266198D02*
X14600539Y-11256674D01*
X14600539Y-11256674D02*
X14648158Y-11256674D01*
X14648158Y-11256674D02*
X14667205Y-11266198D01*
X14667205Y-11266198D02*
X14676729Y-11275722D01*
X14676729Y-11275722D02*
X14686253Y-11294769D01*
X14686253Y-11294769D02*
X14686253Y-11342388D01*
X14686253Y-11342388D02*
X14676729Y-11361436D01*
X14676729Y-11361436D02*
X14667205Y-11370960D01*
X14667205Y-11370960D02*
X14648158Y-11380484D01*
X14648158Y-11380484D02*
X14600539Y-11380484D01*
X14600539Y-11380484D02*
X14581491Y-11370960D01*
X14581491Y-11370960D02*
X14571967Y-11361436D01*
X14800539Y-11266198D02*
X14781491Y-11256674D01*
X14781491Y-11256674D02*
X14771967Y-11247150D01*
X14771967Y-11247150D02*
X14762443Y-11228103D01*
X14762443Y-11228103D02*
X14762443Y-11218579D01*
X14762443Y-11218579D02*
X14771967Y-11199531D01*
X14771967Y-11199531D02*
X14781491Y-11190008D01*
X14781491Y-11190008D02*
X14800539Y-11180484D01*
X14800539Y-11180484D02*
X14838634Y-11180484D01*
X14838634Y-11180484D02*
X14857682Y-11190008D01*
X14857682Y-11190008D02*
X14867205Y-11199531D01*
X14867205Y-11199531D02*
X14876729Y-11218579D01*
X14876729Y-11218579D02*
X14876729Y-11228103D01*
X14876729Y-11228103D02*
X14867205Y-11247150D01*
X14867205Y-11247150D02*
X14857682Y-11256674D01*
X14857682Y-11256674D02*
X14838634Y-11266198D01*
X14838634Y-11266198D02*
X14800539Y-11266198D01*
X14800539Y-11266198D02*
X14781491Y-11275722D01*
X14781491Y-11275722D02*
X14771967Y-11285246D01*
X14771967Y-11285246D02*
X14762443Y-11304293D01*
X14762443Y-11304293D02*
X14762443Y-11342388D01*
X14762443Y-11342388D02*
X14771967Y-11361436D01*
X14771967Y-11361436D02*
X14781491Y-11370960D01*
X14781491Y-11370960D02*
X14800539Y-11380484D01*
X14800539Y-11380484D02*
X14838634Y-11380484D01*
X14838634Y-11380484D02*
X14857682Y-11370960D01*
X14857682Y-11370960D02*
X14867205Y-11361436D01*
X14867205Y-11361436D02*
X14876729Y-11342388D01*
X14876729Y-11342388D02*
X14876729Y-11304293D01*
X14876729Y-11304293D02*
X14867205Y-11285246D01*
X14867205Y-11285246D02*
X14857682Y-11275722D01*
X14857682Y-11275722D02*
X14838634Y-11266198D01*
X15000539Y-11180484D02*
X15019586Y-11180484D01*
X15019586Y-11180484D02*
X15038634Y-11190008D01*
X15038634Y-11190008D02*
X15048158Y-11199531D01*
X15048158Y-11199531D02*
X15057682Y-11218579D01*
X15057682Y-11218579D02*
X15067205Y-11256674D01*
X15067205Y-11256674D02*
X15067205Y-11304293D01*
X15067205Y-11304293D02*
X15057682Y-11342388D01*
X15057682Y-11342388D02*
X15048158Y-11361436D01*
X15048158Y-11361436D02*
X15038634Y-11370960D01*
X15038634Y-11370960D02*
X15019586Y-11380484D01*
X15019586Y-11380484D02*
X15000539Y-11380484D01*
X15000539Y-11380484D02*
X14981491Y-11370960D01*
X14981491Y-11370960D02*
X14971967Y-11361436D01*
X14971967Y-11361436D02*
X14962443Y-11342388D01*
X14962443Y-11342388D02*
X14952920Y-11304293D01*
X14952920Y-11304293D02*
X14952920Y-11256674D01*
X14952920Y-11256674D02*
X14962443Y-11218579D01*
X14962443Y-11218579D02*
X14971967Y-11199531D01*
X14971967Y-11199531D02*
X14981491Y-11190008D01*
X14981491Y-11190008D02*
X15000539Y-11180484D01*
X15152920Y-11380484D02*
X15152920Y-11247150D01*
X15152920Y-11266198D02*
X15162443Y-11256674D01*
X15162443Y-11256674D02*
X15181491Y-11247150D01*
X15181491Y-11247150D02*
X15210063Y-11247150D01*
X15210063Y-11247150D02*
X15229110Y-11256674D01*
X15229110Y-11256674D02*
X15238634Y-11275722D01*
X15238634Y-11275722D02*
X15238634Y-11380484D01*
X15238634Y-11275722D02*
X15248158Y-11256674D01*
X15248158Y-11256674D02*
X15267205Y-11247150D01*
X15267205Y-11247150D02*
X15295777Y-11247150D01*
X15295777Y-11247150D02*
X15314824Y-11256674D01*
X15314824Y-11256674D02*
X15324348Y-11275722D01*
X15324348Y-11275722D02*
X15324348Y-11380484D01*
X15419586Y-11380484D02*
X15419586Y-11247150D01*
X15419586Y-11266198D02*
X15429110Y-11256674D01*
X15429110Y-11256674D02*
X15448158Y-11247150D01*
X15448158Y-11247150D02*
X15476729Y-11247150D01*
X15476729Y-11247150D02*
X15495777Y-11256674D01*
X15495777Y-11256674D02*
X15505301Y-11275722D01*
X15505301Y-11275722D02*
X15505301Y-11380484D01*
X15505301Y-11275722D02*
X15514824Y-11256674D01*
X15514824Y-11256674D02*
X15533872Y-11247150D01*
X15533872Y-11247150D02*
X15562443Y-11247150D01*
X15562443Y-11247150D02*
X15581491Y-11256674D01*
X15581491Y-11256674D02*
X15591015Y-11275722D01*
X15591015Y-11275722D02*
X15591015Y-11380484D01*
X15981491Y-11170960D02*
X15810063Y-11428103D01*
X16238634Y-11180484D02*
X16257682Y-11180484D01*
X16257682Y-11180484D02*
X16276729Y-11190008D01*
X16276729Y-11190008D02*
X16286253Y-11199531D01*
X16286253Y-11199531D02*
X16295777Y-11218579D01*
X16295777Y-11218579D02*
X16305301Y-11256674D01*
X16305301Y-11256674D02*
X16305301Y-11304293D01*
X16305301Y-11304293D02*
X16295777Y-11342388D01*
X16295777Y-11342388D02*
X16286253Y-11361436D01*
X16286253Y-11361436D02*
X16276729Y-11370960D01*
X16276729Y-11370960D02*
X16257682Y-11380484D01*
X16257682Y-11380484D02*
X16238634Y-11380484D01*
X16238634Y-11380484D02*
X16219586Y-11370960D01*
X16219586Y-11370960D02*
X16210063Y-11361436D01*
X16210063Y-11361436D02*
X16200539Y-11342388D01*
X16200539Y-11342388D02*
X16191015Y-11304293D01*
X16191015Y-11304293D02*
X16191015Y-11256674D01*
X16191015Y-11256674D02*
X16200539Y-11218579D01*
X16200539Y-11218579D02*
X16210063Y-11199531D01*
X16210063Y-11199531D02*
X16219586Y-11190008D01*
X16219586Y-11190008D02*
X16238634Y-11180484D01*
X16391015Y-11361436D02*
X16400539Y-11370960D01*
X16400539Y-11370960D02*
X16391015Y-11380484D01*
X16391015Y-11380484D02*
X16381491Y-11370960D01*
X16381491Y-11370960D02*
X16391015Y-11361436D01*
X16391015Y-11361436D02*
X16391015Y-11380484D01*
X16524348Y-11180484D02*
X16543396Y-11180484D01*
X16543396Y-11180484D02*
X16562444Y-11190008D01*
X16562444Y-11190008D02*
X16571967Y-11199531D01*
X16571967Y-11199531D02*
X16581491Y-11218579D01*
X16581491Y-11218579D02*
X16591015Y-11256674D01*
X16591015Y-11256674D02*
X16591015Y-11304293D01*
X16591015Y-11304293D02*
X16581491Y-11342388D01*
X16581491Y-11342388D02*
X16571967Y-11361436D01*
X16571967Y-11361436D02*
X16562444Y-11370960D01*
X16562444Y-11370960D02*
X16543396Y-11380484D01*
X16543396Y-11380484D02*
X16524348Y-11380484D01*
X16524348Y-11380484D02*
X16505301Y-11370960D01*
X16505301Y-11370960D02*
X16495777Y-11361436D01*
X16495777Y-11361436D02*
X16486253Y-11342388D01*
X16486253Y-11342388D02*
X16476729Y-11304293D01*
X16476729Y-11304293D02*
X16476729Y-11256674D01*
X16476729Y-11256674D02*
X16486253Y-11218579D01*
X16486253Y-11218579D02*
X16495777Y-11199531D01*
X16495777Y-11199531D02*
X16505301Y-11190008D01*
X16505301Y-11190008D02*
X16524348Y-11180484D01*
X16667206Y-11199531D02*
X16676729Y-11190008D01*
X16676729Y-11190008D02*
X16695777Y-11180484D01*
X16695777Y-11180484D02*
X16743396Y-11180484D01*
X16743396Y-11180484D02*
X16762444Y-11190008D01*
X16762444Y-11190008D02*
X16771967Y-11199531D01*
X16771967Y-11199531D02*
X16781491Y-11218579D01*
X16781491Y-11218579D02*
X16781491Y-11237627D01*
X16781491Y-11237627D02*
X16771967Y-11266198D01*
X16771967Y-11266198D02*
X16657682Y-11380484D01*
X16657682Y-11380484D02*
X16781491Y-11380484D01*
X16857682Y-11199531D02*
X16867206Y-11190008D01*
X16867206Y-11190008D02*
X16886253Y-11180484D01*
X16886253Y-11180484D02*
X16933872Y-11180484D01*
X16933872Y-11180484D02*
X16952920Y-11190008D01*
X16952920Y-11190008D02*
X16962444Y-11199531D01*
X16962444Y-11199531D02*
X16971968Y-11218579D01*
X16971968Y-11218579D02*
X16971968Y-11237627D01*
X16971968Y-11237627D02*
X16962444Y-11266198D01*
X16962444Y-11266198D02*
X16848158Y-11380484D01*
X16848158Y-11380484D02*
X16971968Y-11380484D01*
X17086253Y-11266198D02*
X17067206Y-11256674D01*
X17067206Y-11256674D02*
X17057682Y-11247150D01*
X17057682Y-11247150D02*
X17048158Y-11228103D01*
X17048158Y-11228103D02*
X17048158Y-11218579D01*
X17048158Y-11218579D02*
X17057682Y-11199531D01*
X17057682Y-11199531D02*
X17067206Y-11190008D01*
X17067206Y-11190008D02*
X17086253Y-11180484D01*
X17086253Y-11180484D02*
X17124349Y-11180484D01*
X17124349Y-11180484D02*
X17143396Y-11190008D01*
X17143396Y-11190008D02*
X17152920Y-11199531D01*
X17152920Y-11199531D02*
X17162444Y-11218579D01*
X17162444Y-11218579D02*
X17162444Y-11228103D01*
X17162444Y-11228103D02*
X17152920Y-11247150D01*
X17152920Y-11247150D02*
X17143396Y-11256674D01*
X17143396Y-11256674D02*
X17124349Y-11266198D01*
X17124349Y-11266198D02*
X17086253Y-11266198D01*
X17086253Y-11266198D02*
X17067206Y-11275722D01*
X17067206Y-11275722D02*
X17057682Y-11285246D01*
X17057682Y-11285246D02*
X17048158Y-11304293D01*
X17048158Y-11304293D02*
X17048158Y-11342388D01*
X17048158Y-11342388D02*
X17057682Y-11361436D01*
X17057682Y-11361436D02*
X17067206Y-11370960D01*
X17067206Y-11370960D02*
X17086253Y-11380484D01*
X17086253Y-11380484D02*
X17124349Y-11380484D01*
X17124349Y-11380484D02*
X17143396Y-11370960D01*
X17143396Y-11370960D02*
X17152920Y-11361436D01*
X17152920Y-11361436D02*
X17162444Y-11342388D01*
X17162444Y-11342388D02*
X17162444Y-11304293D01*
X17162444Y-11304293D02*
X17152920Y-11285246D01*
X17152920Y-11285246D02*
X17143396Y-11275722D01*
X17143396Y-11275722D02*
X17124349Y-11266198D01*
X17238634Y-11180484D02*
X17238634Y-11218579D01*
X17314825Y-11180484D02*
X17314825Y-11218579D01*
X17610063Y-11456674D02*
X17600539Y-11447150D01*
X17600539Y-11447150D02*
X17581491Y-11418579D01*
X17581491Y-11418579D02*
X17571968Y-11399531D01*
X17571968Y-11399531D02*
X17562444Y-11370960D01*
X17562444Y-11370960D02*
X17552920Y-11323341D01*
X17552920Y-11323341D02*
X17552920Y-11285246D01*
X17552920Y-11285246D02*
X17562444Y-11237627D01*
X17562444Y-11237627D02*
X17571968Y-11209055D01*
X17571968Y-11209055D02*
X17581491Y-11190008D01*
X17581491Y-11190008D02*
X17600539Y-11161436D01*
X17600539Y-11161436D02*
X17610063Y-11151912D01*
X17667206Y-11180484D02*
X17791015Y-11180484D01*
X17791015Y-11180484D02*
X17724349Y-11256674D01*
X17724349Y-11256674D02*
X17752920Y-11256674D01*
X17752920Y-11256674D02*
X17771968Y-11266198D01*
X17771968Y-11266198D02*
X17781491Y-11275722D01*
X17781491Y-11275722D02*
X17791015Y-11294769D01*
X17791015Y-11294769D02*
X17791015Y-11342388D01*
X17791015Y-11342388D02*
X17781491Y-11361436D01*
X17781491Y-11361436D02*
X17771968Y-11370960D01*
X17771968Y-11370960D02*
X17752920Y-11380484D01*
X17752920Y-11380484D02*
X17695777Y-11380484D01*
X17695777Y-11380484D02*
X17676730Y-11370960D01*
X17676730Y-11370960D02*
X17667206Y-11361436D01*
X17914825Y-11180484D02*
X17933872Y-11180484D01*
X17933872Y-11180484D02*
X17952920Y-11190008D01*
X17952920Y-11190008D02*
X17962444Y-11199531D01*
X17962444Y-11199531D02*
X17971968Y-11218579D01*
X17971968Y-11218579D02*
X17981491Y-11256674D01*
X17981491Y-11256674D02*
X17981491Y-11304293D01*
X17981491Y-11304293D02*
X17971968Y-11342388D01*
X17971968Y-11342388D02*
X17962444Y-11361436D01*
X17962444Y-11361436D02*
X17952920Y-11370960D01*
X17952920Y-11370960D02*
X17933872Y-11380484D01*
X17933872Y-11380484D02*
X17914825Y-11380484D01*
X17914825Y-11380484D02*
X17895777Y-11370960D01*
X17895777Y-11370960D02*
X17886253Y-11361436D01*
X17886253Y-11361436D02*
X17876730Y-11342388D01*
X17876730Y-11342388D02*
X17867206Y-11304293D01*
X17867206Y-11304293D02*
X17867206Y-11256674D01*
X17867206Y-11256674D02*
X17876730Y-11218579D01*
X17876730Y-11218579D02*
X17886253Y-11199531D01*
X17886253Y-11199531D02*
X17895777Y-11190008D01*
X17895777Y-11190008D02*
X17914825Y-11180484D01*
X18219587Y-11380484D02*
X18219587Y-11180484D01*
X18305301Y-11380484D02*
X18305301Y-11275722D01*
X18305301Y-11275722D02*
X18295777Y-11256674D01*
X18295777Y-11256674D02*
X18276730Y-11247150D01*
X18276730Y-11247150D02*
X18248158Y-11247150D01*
X18248158Y-11247150D02*
X18229111Y-11256674D01*
X18229111Y-11256674D02*
X18219587Y-11266198D01*
X18429111Y-11380484D02*
X18410063Y-11370960D01*
X18410063Y-11370960D02*
X18400539Y-11361436D01*
X18400539Y-11361436D02*
X18391015Y-11342388D01*
X18391015Y-11342388D02*
X18391015Y-11285246D01*
X18391015Y-11285246D02*
X18400539Y-11266198D01*
X18400539Y-11266198D02*
X18410063Y-11256674D01*
X18410063Y-11256674D02*
X18429111Y-11247150D01*
X18429111Y-11247150D02*
X18457682Y-11247150D01*
X18457682Y-11247150D02*
X18476730Y-11256674D01*
X18476730Y-11256674D02*
X18486253Y-11266198D01*
X18486253Y-11266198D02*
X18495777Y-11285246D01*
X18495777Y-11285246D02*
X18495777Y-11342388D01*
X18495777Y-11342388D02*
X18486253Y-11361436D01*
X18486253Y-11361436D02*
X18476730Y-11370960D01*
X18476730Y-11370960D02*
X18457682Y-11380484D01*
X18457682Y-11380484D02*
X18429111Y-11380484D01*
X18610063Y-11380484D02*
X18591015Y-11370960D01*
X18591015Y-11370960D02*
X18581492Y-11351912D01*
X18581492Y-11351912D02*
X18581492Y-11180484D01*
X18762444Y-11370960D02*
X18743396Y-11380484D01*
X18743396Y-11380484D02*
X18705301Y-11380484D01*
X18705301Y-11380484D02*
X18686253Y-11370960D01*
X18686253Y-11370960D02*
X18676730Y-11351912D01*
X18676730Y-11351912D02*
X18676730Y-11275722D01*
X18676730Y-11275722D02*
X18686253Y-11256674D01*
X18686253Y-11256674D02*
X18705301Y-11247150D01*
X18705301Y-11247150D02*
X18743396Y-11247150D01*
X18743396Y-11247150D02*
X18762444Y-11256674D01*
X18762444Y-11256674D02*
X18771968Y-11275722D01*
X18771968Y-11275722D02*
X18771968Y-11294769D01*
X18771968Y-11294769D02*
X18676730Y-11313817D01*
X18848158Y-11370960D02*
X18867206Y-11380484D01*
X18867206Y-11380484D02*
X18905301Y-11380484D01*
X18905301Y-11380484D02*
X18924349Y-11370960D01*
X18924349Y-11370960D02*
X18933873Y-11351912D01*
X18933873Y-11351912D02*
X18933873Y-11342388D01*
X18933873Y-11342388D02*
X18924349Y-11323341D01*
X18924349Y-11323341D02*
X18905301Y-11313817D01*
X18905301Y-11313817D02*
X18876730Y-11313817D01*
X18876730Y-11313817D02*
X18857682Y-11304293D01*
X18857682Y-11304293D02*
X18848158Y-11285246D01*
X18848158Y-11285246D02*
X18848158Y-11275722D01*
X18848158Y-11275722D02*
X18857682Y-11256674D01*
X18857682Y-11256674D02*
X18876730Y-11247150D01*
X18876730Y-11247150D02*
X18905301Y-11247150D01*
X18905301Y-11247150D02*
X18924349Y-11256674D01*
X19000539Y-11456674D02*
X19010063Y-11447150D01*
X19010063Y-11447150D02*
X19029111Y-11418579D01*
X19029111Y-11418579D02*
X19038634Y-11399531D01*
X19038634Y-11399531D02*
X19048158Y-11370960D01*
X19048158Y-11370960D02*
X19057682Y-11323341D01*
X19057682Y-11323341D02*
X19057682Y-11285246D01*
X19057682Y-11285246D02*
X19048158Y-11237627D01*
X19048158Y-11237627D02*
X19038634Y-11209055D01*
X19038634Y-11209055D02*
X19029111Y-11190008D01*
X19029111Y-11190008D02*
X19010063Y-11161436D01*
X19010063Y-11161436D02*
X19000539Y-11151912D01*
D14*
X13995000Y-11513000D02*
X13995000Y-11593000D01*
X13955000Y-11553000D02*
X14035000Y-11553000D01*
D11*
X14333872Y-11444484D02*
X14352920Y-11444484D01*
X14352920Y-11444484D02*
X14371967Y-11454008D01*
X14371967Y-11454008D02*
X14381491Y-11463531D01*
X14381491Y-11463531D02*
X14391015Y-11482579D01*
X14391015Y-11482579D02*
X14400539Y-11520674D01*
X14400539Y-11520674D02*
X14400539Y-11568293D01*
X14400539Y-11568293D02*
X14391015Y-11606388D01*
X14391015Y-11606388D02*
X14381491Y-11625436D01*
X14381491Y-11625436D02*
X14371967Y-11634960D01*
X14371967Y-11634960D02*
X14352920Y-11644484D01*
X14352920Y-11644484D02*
X14333872Y-11644484D01*
X14333872Y-11644484D02*
X14314824Y-11634960D01*
X14314824Y-11634960D02*
X14305301Y-11625436D01*
X14305301Y-11625436D02*
X14295777Y-11606388D01*
X14295777Y-11606388D02*
X14286253Y-11568293D01*
X14286253Y-11568293D02*
X14286253Y-11520674D01*
X14286253Y-11520674D02*
X14295777Y-11482579D01*
X14295777Y-11482579D02*
X14305301Y-11463531D01*
X14305301Y-11463531D02*
X14314824Y-11454008D01*
X14314824Y-11454008D02*
X14333872Y-11444484D01*
X14486253Y-11625436D02*
X14495777Y-11634960D01*
X14495777Y-11634960D02*
X14486253Y-11644484D01*
X14486253Y-11644484D02*
X14476729Y-11634960D01*
X14476729Y-11634960D02*
X14486253Y-11625436D01*
X14486253Y-11625436D02*
X14486253Y-11644484D01*
X14610062Y-11530198D02*
X14591015Y-11520674D01*
X14591015Y-11520674D02*
X14581491Y-11511150D01*
X14581491Y-11511150D02*
X14571967Y-11492103D01*
X14571967Y-11492103D02*
X14571967Y-11482579D01*
X14571967Y-11482579D02*
X14581491Y-11463531D01*
X14581491Y-11463531D02*
X14591015Y-11454008D01*
X14591015Y-11454008D02*
X14610062Y-11444484D01*
X14610062Y-11444484D02*
X14648158Y-11444484D01*
X14648158Y-11444484D02*
X14667205Y-11454008D01*
X14667205Y-11454008D02*
X14676729Y-11463531D01*
X14676729Y-11463531D02*
X14686253Y-11482579D01*
X14686253Y-11482579D02*
X14686253Y-11492103D01*
X14686253Y-11492103D02*
X14676729Y-11511150D01*
X14676729Y-11511150D02*
X14667205Y-11520674D01*
X14667205Y-11520674D02*
X14648158Y-11530198D01*
X14648158Y-11530198D02*
X14610062Y-11530198D01*
X14610062Y-11530198D02*
X14591015Y-11539722D01*
X14591015Y-11539722D02*
X14581491Y-11549246D01*
X14581491Y-11549246D02*
X14571967Y-11568293D01*
X14571967Y-11568293D02*
X14571967Y-11606388D01*
X14571967Y-11606388D02*
X14581491Y-11625436D01*
X14581491Y-11625436D02*
X14591015Y-11634960D01*
X14591015Y-11634960D02*
X14610062Y-11644484D01*
X14610062Y-11644484D02*
X14648158Y-11644484D01*
X14648158Y-11644484D02*
X14667205Y-11634960D01*
X14667205Y-11634960D02*
X14676729Y-11625436D01*
X14676729Y-11625436D02*
X14686253Y-11606388D01*
X14686253Y-11606388D02*
X14686253Y-11568293D01*
X14686253Y-11568293D02*
X14676729Y-11549246D01*
X14676729Y-11549246D02*
X14667205Y-11539722D01*
X14667205Y-11539722D02*
X14648158Y-11530198D01*
X14810062Y-11444484D02*
X14829110Y-11444484D01*
X14829110Y-11444484D02*
X14848158Y-11454008D01*
X14848158Y-11454008D02*
X14857682Y-11463531D01*
X14857682Y-11463531D02*
X14867205Y-11482579D01*
X14867205Y-11482579D02*
X14876729Y-11520674D01*
X14876729Y-11520674D02*
X14876729Y-11568293D01*
X14876729Y-11568293D02*
X14867205Y-11606388D01*
X14867205Y-11606388D02*
X14857682Y-11625436D01*
X14857682Y-11625436D02*
X14848158Y-11634960D01*
X14848158Y-11634960D02*
X14829110Y-11644484D01*
X14829110Y-11644484D02*
X14810062Y-11644484D01*
X14810062Y-11644484D02*
X14791015Y-11634960D01*
X14791015Y-11634960D02*
X14781491Y-11625436D01*
X14781491Y-11625436D02*
X14771967Y-11606388D01*
X14771967Y-11606388D02*
X14762443Y-11568293D01*
X14762443Y-11568293D02*
X14762443Y-11520674D01*
X14762443Y-11520674D02*
X14771967Y-11482579D01*
X14771967Y-11482579D02*
X14781491Y-11463531D01*
X14781491Y-11463531D02*
X14791015Y-11454008D01*
X14791015Y-11454008D02*
X14810062Y-11444484D01*
X15000539Y-11444484D02*
X15019586Y-11444484D01*
X15019586Y-11444484D02*
X15038634Y-11454008D01*
X15038634Y-11454008D02*
X15048158Y-11463531D01*
X15048158Y-11463531D02*
X15057682Y-11482579D01*
X15057682Y-11482579D02*
X15067205Y-11520674D01*
X15067205Y-11520674D02*
X15067205Y-11568293D01*
X15067205Y-11568293D02*
X15057682Y-11606388D01*
X15057682Y-11606388D02*
X15048158Y-11625436D01*
X15048158Y-11625436D02*
X15038634Y-11634960D01*
X15038634Y-11634960D02*
X15019586Y-11644484D01*
X15019586Y-11644484D02*
X15000539Y-11644484D01*
X15000539Y-11644484D02*
X14981491Y-11634960D01*
X14981491Y-11634960D02*
X14971967Y-11625436D01*
X14971967Y-11625436D02*
X14962443Y-11606388D01*
X14962443Y-11606388D02*
X14952920Y-11568293D01*
X14952920Y-11568293D02*
X14952920Y-11520674D01*
X14952920Y-11520674D02*
X14962443Y-11482579D01*
X14962443Y-11482579D02*
X14971967Y-11463531D01*
X14971967Y-11463531D02*
X14981491Y-11454008D01*
X14981491Y-11454008D02*
X15000539Y-11444484D01*
X15152920Y-11644484D02*
X15152920Y-11511150D01*
X15152920Y-11530198D02*
X15162443Y-11520674D01*
X15162443Y-11520674D02*
X15181491Y-11511150D01*
X15181491Y-11511150D02*
X15210063Y-11511150D01*
X15210063Y-11511150D02*
X15229110Y-11520674D01*
X15229110Y-11520674D02*
X15238634Y-11539722D01*
X15238634Y-11539722D02*
X15238634Y-11644484D01*
X15238634Y-11539722D02*
X15248158Y-11520674D01*
X15248158Y-11520674D02*
X15267205Y-11511150D01*
X15267205Y-11511150D02*
X15295777Y-11511150D01*
X15295777Y-11511150D02*
X15314824Y-11520674D01*
X15314824Y-11520674D02*
X15324348Y-11539722D01*
X15324348Y-11539722D02*
X15324348Y-11644484D01*
X15419586Y-11644484D02*
X15419586Y-11511150D01*
X15419586Y-11530198D02*
X15429110Y-11520674D01*
X15429110Y-11520674D02*
X15448158Y-11511150D01*
X15448158Y-11511150D02*
X15476729Y-11511150D01*
X15476729Y-11511150D02*
X15495777Y-11520674D01*
X15495777Y-11520674D02*
X15505301Y-11539722D01*
X15505301Y-11539722D02*
X15505301Y-11644484D01*
X15505301Y-11539722D02*
X15514824Y-11520674D01*
X15514824Y-11520674D02*
X15533872Y-11511150D01*
X15533872Y-11511150D02*
X15562443Y-11511150D01*
X15562443Y-11511150D02*
X15581491Y-11520674D01*
X15581491Y-11520674D02*
X15591015Y-11539722D01*
X15591015Y-11539722D02*
X15591015Y-11644484D01*
X15981491Y-11434960D02*
X15810063Y-11692103D01*
X16238634Y-11444484D02*
X16257682Y-11444484D01*
X16257682Y-11444484D02*
X16276729Y-11454008D01*
X16276729Y-11454008D02*
X16286253Y-11463531D01*
X16286253Y-11463531D02*
X16295777Y-11482579D01*
X16295777Y-11482579D02*
X16305301Y-11520674D01*
X16305301Y-11520674D02*
X16305301Y-11568293D01*
X16305301Y-11568293D02*
X16295777Y-11606388D01*
X16295777Y-11606388D02*
X16286253Y-11625436D01*
X16286253Y-11625436D02*
X16276729Y-11634960D01*
X16276729Y-11634960D02*
X16257682Y-11644484D01*
X16257682Y-11644484D02*
X16238634Y-11644484D01*
X16238634Y-11644484D02*
X16219586Y-11634960D01*
X16219586Y-11634960D02*
X16210063Y-11625436D01*
X16210063Y-11625436D02*
X16200539Y-11606388D01*
X16200539Y-11606388D02*
X16191015Y-11568293D01*
X16191015Y-11568293D02*
X16191015Y-11520674D01*
X16191015Y-11520674D02*
X16200539Y-11482579D01*
X16200539Y-11482579D02*
X16210063Y-11463531D01*
X16210063Y-11463531D02*
X16219586Y-11454008D01*
X16219586Y-11454008D02*
X16238634Y-11444484D01*
X16391015Y-11625436D02*
X16400539Y-11634960D01*
X16400539Y-11634960D02*
X16391015Y-11644484D01*
X16391015Y-11644484D02*
X16381491Y-11634960D01*
X16381491Y-11634960D02*
X16391015Y-11625436D01*
X16391015Y-11625436D02*
X16391015Y-11644484D01*
X16524348Y-11444484D02*
X16543396Y-11444484D01*
X16543396Y-11444484D02*
X16562444Y-11454008D01*
X16562444Y-11454008D02*
X16571967Y-11463531D01*
X16571967Y-11463531D02*
X16581491Y-11482579D01*
X16581491Y-11482579D02*
X16591015Y-11520674D01*
X16591015Y-11520674D02*
X16591015Y-11568293D01*
X16591015Y-11568293D02*
X16581491Y-11606388D01*
X16581491Y-11606388D02*
X16571967Y-11625436D01*
X16571967Y-11625436D02*
X16562444Y-11634960D01*
X16562444Y-11634960D02*
X16543396Y-11644484D01*
X16543396Y-11644484D02*
X16524348Y-11644484D01*
X16524348Y-11644484D02*
X16505301Y-11634960D01*
X16505301Y-11634960D02*
X16495777Y-11625436D01*
X16495777Y-11625436D02*
X16486253Y-11606388D01*
X16486253Y-11606388D02*
X16476729Y-11568293D01*
X16476729Y-11568293D02*
X16476729Y-11520674D01*
X16476729Y-11520674D02*
X16486253Y-11482579D01*
X16486253Y-11482579D02*
X16495777Y-11463531D01*
X16495777Y-11463531D02*
X16505301Y-11454008D01*
X16505301Y-11454008D02*
X16524348Y-11444484D01*
X16657682Y-11444484D02*
X16781491Y-11444484D01*
X16781491Y-11444484D02*
X16714825Y-11520674D01*
X16714825Y-11520674D02*
X16743396Y-11520674D01*
X16743396Y-11520674D02*
X16762444Y-11530198D01*
X16762444Y-11530198D02*
X16771967Y-11539722D01*
X16771967Y-11539722D02*
X16781491Y-11558769D01*
X16781491Y-11558769D02*
X16781491Y-11606388D01*
X16781491Y-11606388D02*
X16771967Y-11625436D01*
X16771967Y-11625436D02*
X16762444Y-11634960D01*
X16762444Y-11634960D02*
X16743396Y-11644484D01*
X16743396Y-11644484D02*
X16686253Y-11644484D01*
X16686253Y-11644484D02*
X16667206Y-11634960D01*
X16667206Y-11634960D02*
X16657682Y-11625436D01*
X16971968Y-11644484D02*
X16857682Y-11644484D01*
X16914825Y-11644484D02*
X16914825Y-11444484D01*
X16914825Y-11444484D02*
X16895777Y-11473055D01*
X16895777Y-11473055D02*
X16876729Y-11492103D01*
X16876729Y-11492103D02*
X16857682Y-11501627D01*
X17152920Y-11444484D02*
X17057682Y-11444484D01*
X17057682Y-11444484D02*
X17048158Y-11539722D01*
X17048158Y-11539722D02*
X17057682Y-11530198D01*
X17057682Y-11530198D02*
X17076729Y-11520674D01*
X17076729Y-11520674D02*
X17124349Y-11520674D01*
X17124349Y-11520674D02*
X17143396Y-11530198D01*
X17143396Y-11530198D02*
X17152920Y-11539722D01*
X17152920Y-11539722D02*
X17162444Y-11558769D01*
X17162444Y-11558769D02*
X17162444Y-11606388D01*
X17162444Y-11606388D02*
X17152920Y-11625436D01*
X17152920Y-11625436D02*
X17143396Y-11634960D01*
X17143396Y-11634960D02*
X17124349Y-11644484D01*
X17124349Y-11644484D02*
X17076729Y-11644484D01*
X17076729Y-11644484D02*
X17057682Y-11634960D01*
X17057682Y-11634960D02*
X17048158Y-11625436D01*
X17238634Y-11444484D02*
X17238634Y-11482579D01*
X17314825Y-11444484D02*
X17314825Y-11482579D01*
X17610063Y-11720674D02*
X17600539Y-11711150D01*
X17600539Y-11711150D02*
X17581491Y-11682579D01*
X17581491Y-11682579D02*
X17571968Y-11663531D01*
X17571968Y-11663531D02*
X17562444Y-11634960D01*
X17562444Y-11634960D02*
X17552920Y-11587341D01*
X17552920Y-11587341D02*
X17552920Y-11549246D01*
X17552920Y-11549246D02*
X17562444Y-11501627D01*
X17562444Y-11501627D02*
X17571968Y-11473055D01*
X17571968Y-11473055D02*
X17581491Y-11454008D01*
X17581491Y-11454008D02*
X17600539Y-11425436D01*
X17600539Y-11425436D02*
X17610063Y-11415912D01*
X17676730Y-11463531D02*
X17686253Y-11454008D01*
X17686253Y-11454008D02*
X17705301Y-11444484D01*
X17705301Y-11444484D02*
X17752920Y-11444484D01*
X17752920Y-11444484D02*
X17771968Y-11454008D01*
X17771968Y-11454008D02*
X17781491Y-11463531D01*
X17781491Y-11463531D02*
X17791015Y-11482579D01*
X17791015Y-11482579D02*
X17791015Y-11501627D01*
X17791015Y-11501627D02*
X17781491Y-11530198D01*
X17781491Y-11530198D02*
X17667206Y-11644484D01*
X17667206Y-11644484D02*
X17791015Y-11644484D01*
X18029111Y-11644484D02*
X18029111Y-11444484D01*
X18114825Y-11644484D02*
X18114825Y-11539722D01*
X18114825Y-11539722D02*
X18105301Y-11520674D01*
X18105301Y-11520674D02*
X18086253Y-11511150D01*
X18086253Y-11511150D02*
X18057682Y-11511150D01*
X18057682Y-11511150D02*
X18038634Y-11520674D01*
X18038634Y-11520674D02*
X18029111Y-11530198D01*
X18238634Y-11644484D02*
X18219587Y-11634960D01*
X18219587Y-11634960D02*
X18210063Y-11625436D01*
X18210063Y-11625436D02*
X18200539Y-11606388D01*
X18200539Y-11606388D02*
X18200539Y-11549246D01*
X18200539Y-11549246D02*
X18210063Y-11530198D01*
X18210063Y-11530198D02*
X18219587Y-11520674D01*
X18219587Y-11520674D02*
X18238634Y-11511150D01*
X18238634Y-11511150D02*
X18267206Y-11511150D01*
X18267206Y-11511150D02*
X18286253Y-11520674D01*
X18286253Y-11520674D02*
X18295777Y-11530198D01*
X18295777Y-11530198D02*
X18305301Y-11549246D01*
X18305301Y-11549246D02*
X18305301Y-11606388D01*
X18305301Y-11606388D02*
X18295777Y-11625436D01*
X18295777Y-11625436D02*
X18286253Y-11634960D01*
X18286253Y-11634960D02*
X18267206Y-11644484D01*
X18267206Y-11644484D02*
X18238634Y-11644484D01*
X18419587Y-11644484D02*
X18400539Y-11634960D01*
X18400539Y-11634960D02*
X18391015Y-11615912D01*
X18391015Y-11615912D02*
X18391015Y-11444484D01*
X18571968Y-11634960D02*
X18552920Y-11644484D01*
X18552920Y-11644484D02*
X18514825Y-11644484D01*
X18514825Y-11644484D02*
X18495777Y-11634960D01*
X18495777Y-11634960D02*
X18486253Y-11615912D01*
X18486253Y-11615912D02*
X18486253Y-11539722D01*
X18486253Y-11539722D02*
X18495777Y-11520674D01*
X18495777Y-11520674D02*
X18514825Y-11511150D01*
X18514825Y-11511150D02*
X18552920Y-11511150D01*
X18552920Y-11511150D02*
X18571968Y-11520674D01*
X18571968Y-11520674D02*
X18581492Y-11539722D01*
X18581492Y-11539722D02*
X18581492Y-11558769D01*
X18581492Y-11558769D02*
X18486253Y-11577817D01*
X18657682Y-11634960D02*
X18676730Y-11644484D01*
X18676730Y-11644484D02*
X18714825Y-11644484D01*
X18714825Y-11644484D02*
X18733873Y-11634960D01*
X18733873Y-11634960D02*
X18743396Y-11615912D01*
X18743396Y-11615912D02*
X18743396Y-11606388D01*
X18743396Y-11606388D02*
X18733873Y-11587341D01*
X18733873Y-11587341D02*
X18714825Y-11577817D01*
X18714825Y-11577817D02*
X18686253Y-11577817D01*
X18686253Y-11577817D02*
X18667206Y-11568293D01*
X18667206Y-11568293D02*
X18657682Y-11549246D01*
X18657682Y-11549246D02*
X18657682Y-11539722D01*
X18657682Y-11539722D02*
X18667206Y-11520674D01*
X18667206Y-11520674D02*
X18686253Y-11511150D01*
X18686253Y-11511150D02*
X18714825Y-11511150D01*
X18714825Y-11511150D02*
X18733873Y-11520674D01*
X18810063Y-11720674D02*
X18819587Y-11711150D01*
X18819587Y-11711150D02*
X18838634Y-11682579D01*
X18838634Y-11682579D02*
X18848158Y-11663531D01*
X18848158Y-11663531D02*
X18857682Y-11634960D01*
X18857682Y-11634960D02*
X18867206Y-11587341D01*
X18867206Y-11587341D02*
X18867206Y-11549246D01*
X18867206Y-11549246D02*
X18857682Y-11501627D01*
X18857682Y-11501627D02*
X18848158Y-11473055D01*
X18848158Y-11473055D02*
X18838634Y-11454008D01*
X18838634Y-11454008D02*
X18819587Y-11425436D01*
X18819587Y-11425436D02*
X18810063Y-11415912D01*
D10*
X14020356Y-11852356D02*
X14020356Y-11781644D01*
X13949644Y-11781644D01*
X13949644Y-11852356D01*
X14020356Y-11852356D01*
D11*
X14400539Y-11908484D02*
X14286253Y-11908484D01*
X14343396Y-11908484D02*
X14343396Y-11708484D01*
X14343396Y-11708484D02*
X14324348Y-11737055D01*
X14324348Y-11737055D02*
X14305301Y-11756103D01*
X14305301Y-11756103D02*
X14286253Y-11765627D01*
X14486253Y-11889436D02*
X14495777Y-11898960D01*
X14495777Y-11898960D02*
X14486253Y-11908484D01*
X14486253Y-11908484D02*
X14476729Y-11898960D01*
X14476729Y-11898960D02*
X14486253Y-11889436D01*
X14486253Y-11889436D02*
X14486253Y-11908484D01*
X14619586Y-11708484D02*
X14638634Y-11708484D01*
X14638634Y-11708484D02*
X14657682Y-11718008D01*
X14657682Y-11718008D02*
X14667205Y-11727531D01*
X14667205Y-11727531D02*
X14676729Y-11746579D01*
X14676729Y-11746579D02*
X14686253Y-11784674D01*
X14686253Y-11784674D02*
X14686253Y-11832293D01*
X14686253Y-11832293D02*
X14676729Y-11870388D01*
X14676729Y-11870388D02*
X14667205Y-11889436D01*
X14667205Y-11889436D02*
X14657682Y-11898960D01*
X14657682Y-11898960D02*
X14638634Y-11908484D01*
X14638634Y-11908484D02*
X14619586Y-11908484D01*
X14619586Y-11908484D02*
X14600539Y-11898960D01*
X14600539Y-11898960D02*
X14591015Y-11889436D01*
X14591015Y-11889436D02*
X14581491Y-11870388D01*
X14581491Y-11870388D02*
X14571967Y-11832293D01*
X14571967Y-11832293D02*
X14571967Y-11784674D01*
X14571967Y-11784674D02*
X14581491Y-11746579D01*
X14581491Y-11746579D02*
X14591015Y-11727531D01*
X14591015Y-11727531D02*
X14600539Y-11718008D01*
X14600539Y-11718008D02*
X14619586Y-11708484D01*
X14810062Y-11708484D02*
X14829110Y-11708484D01*
X14829110Y-11708484D02*
X14848158Y-11718008D01*
X14848158Y-11718008D02*
X14857682Y-11727531D01*
X14857682Y-11727531D02*
X14867205Y-11746579D01*
X14867205Y-11746579D02*
X14876729Y-11784674D01*
X14876729Y-11784674D02*
X14876729Y-11832293D01*
X14876729Y-11832293D02*
X14867205Y-11870388D01*
X14867205Y-11870388D02*
X14857682Y-11889436D01*
X14857682Y-11889436D02*
X14848158Y-11898960D01*
X14848158Y-11898960D02*
X14829110Y-11908484D01*
X14829110Y-11908484D02*
X14810062Y-11908484D01*
X14810062Y-11908484D02*
X14791015Y-11898960D01*
X14791015Y-11898960D02*
X14781491Y-11889436D01*
X14781491Y-11889436D02*
X14771967Y-11870388D01*
X14771967Y-11870388D02*
X14762443Y-11832293D01*
X14762443Y-11832293D02*
X14762443Y-11784674D01*
X14762443Y-11784674D02*
X14771967Y-11746579D01*
X14771967Y-11746579D02*
X14781491Y-11727531D01*
X14781491Y-11727531D02*
X14791015Y-11718008D01*
X14791015Y-11718008D02*
X14810062Y-11708484D01*
X15000539Y-11708484D02*
X15019586Y-11708484D01*
X15019586Y-11708484D02*
X15038634Y-11718008D01*
X15038634Y-11718008D02*
X15048158Y-11727531D01*
X15048158Y-11727531D02*
X15057682Y-11746579D01*
X15057682Y-11746579D02*
X15067205Y-11784674D01*
X15067205Y-11784674D02*
X15067205Y-11832293D01*
X15067205Y-11832293D02*
X15057682Y-11870388D01*
X15057682Y-11870388D02*
X15048158Y-11889436D01*
X15048158Y-11889436D02*
X15038634Y-11898960D01*
X15038634Y-11898960D02*
X15019586Y-11908484D01*
X15019586Y-11908484D02*
X15000539Y-11908484D01*
X15000539Y-11908484D02*
X14981491Y-11898960D01*
X14981491Y-11898960D02*
X14971967Y-11889436D01*
X14971967Y-11889436D02*
X14962443Y-11870388D01*
X14962443Y-11870388D02*
X14952920Y-11832293D01*
X14952920Y-11832293D02*
X14952920Y-11784674D01*
X14952920Y-11784674D02*
X14962443Y-11746579D01*
X14962443Y-11746579D02*
X14971967Y-11727531D01*
X14971967Y-11727531D02*
X14981491Y-11718008D01*
X14981491Y-11718008D02*
X15000539Y-11708484D01*
X15152920Y-11908484D02*
X15152920Y-11775150D01*
X15152920Y-11794198D02*
X15162443Y-11784674D01*
X15162443Y-11784674D02*
X15181491Y-11775150D01*
X15181491Y-11775150D02*
X15210063Y-11775150D01*
X15210063Y-11775150D02*
X15229110Y-11784674D01*
X15229110Y-11784674D02*
X15238634Y-11803722D01*
X15238634Y-11803722D02*
X15238634Y-11908484D01*
X15238634Y-11803722D02*
X15248158Y-11784674D01*
X15248158Y-11784674D02*
X15267205Y-11775150D01*
X15267205Y-11775150D02*
X15295777Y-11775150D01*
X15295777Y-11775150D02*
X15314824Y-11784674D01*
X15314824Y-11784674D02*
X15324348Y-11803722D01*
X15324348Y-11803722D02*
X15324348Y-11908484D01*
X15419586Y-11908484D02*
X15419586Y-11775150D01*
X15419586Y-11794198D02*
X15429110Y-11784674D01*
X15429110Y-11784674D02*
X15448158Y-11775150D01*
X15448158Y-11775150D02*
X15476729Y-11775150D01*
X15476729Y-11775150D02*
X15495777Y-11784674D01*
X15495777Y-11784674D02*
X15505301Y-11803722D01*
X15505301Y-11803722D02*
X15505301Y-11908484D01*
X15505301Y-11803722D02*
X15514824Y-11784674D01*
X15514824Y-11784674D02*
X15533872Y-11775150D01*
X15533872Y-11775150D02*
X15562443Y-11775150D01*
X15562443Y-11775150D02*
X15581491Y-11784674D01*
X15581491Y-11784674D02*
X15591015Y-11803722D01*
X15591015Y-11803722D02*
X15591015Y-11908484D01*
X15981491Y-11698960D02*
X15810063Y-11956103D01*
X16238634Y-11708484D02*
X16257682Y-11708484D01*
X16257682Y-11708484D02*
X16276729Y-11718008D01*
X16276729Y-11718008D02*
X16286253Y-11727531D01*
X16286253Y-11727531D02*
X16295777Y-11746579D01*
X16295777Y-11746579D02*
X16305301Y-11784674D01*
X16305301Y-11784674D02*
X16305301Y-11832293D01*
X16305301Y-11832293D02*
X16295777Y-11870388D01*
X16295777Y-11870388D02*
X16286253Y-11889436D01*
X16286253Y-11889436D02*
X16276729Y-11898960D01*
X16276729Y-11898960D02*
X16257682Y-11908484D01*
X16257682Y-11908484D02*
X16238634Y-11908484D01*
X16238634Y-11908484D02*
X16219586Y-11898960D01*
X16219586Y-11898960D02*
X16210063Y-11889436D01*
X16210063Y-11889436D02*
X16200539Y-11870388D01*
X16200539Y-11870388D02*
X16191015Y-11832293D01*
X16191015Y-11832293D02*
X16191015Y-11784674D01*
X16191015Y-11784674D02*
X16200539Y-11746579D01*
X16200539Y-11746579D02*
X16210063Y-11727531D01*
X16210063Y-11727531D02*
X16219586Y-11718008D01*
X16219586Y-11718008D02*
X16238634Y-11708484D01*
X16391015Y-11889436D02*
X16400539Y-11898960D01*
X16400539Y-11898960D02*
X16391015Y-11908484D01*
X16391015Y-11908484D02*
X16381491Y-11898960D01*
X16381491Y-11898960D02*
X16391015Y-11889436D01*
X16391015Y-11889436D02*
X16391015Y-11908484D01*
X16524348Y-11708484D02*
X16543396Y-11708484D01*
X16543396Y-11708484D02*
X16562444Y-11718008D01*
X16562444Y-11718008D02*
X16571967Y-11727531D01*
X16571967Y-11727531D02*
X16581491Y-11746579D01*
X16581491Y-11746579D02*
X16591015Y-11784674D01*
X16591015Y-11784674D02*
X16591015Y-11832293D01*
X16591015Y-11832293D02*
X16581491Y-11870388D01*
X16581491Y-11870388D02*
X16571967Y-11889436D01*
X16571967Y-11889436D02*
X16562444Y-11898960D01*
X16562444Y-11898960D02*
X16543396Y-11908484D01*
X16543396Y-11908484D02*
X16524348Y-11908484D01*
X16524348Y-11908484D02*
X16505301Y-11898960D01*
X16505301Y-11898960D02*
X16495777Y-11889436D01*
X16495777Y-11889436D02*
X16486253Y-11870388D01*
X16486253Y-11870388D02*
X16476729Y-11832293D01*
X16476729Y-11832293D02*
X16476729Y-11784674D01*
X16476729Y-11784674D02*
X16486253Y-11746579D01*
X16486253Y-11746579D02*
X16495777Y-11727531D01*
X16495777Y-11727531D02*
X16505301Y-11718008D01*
X16505301Y-11718008D02*
X16524348Y-11708484D01*
X16657682Y-11708484D02*
X16781491Y-11708484D01*
X16781491Y-11708484D02*
X16714825Y-11784674D01*
X16714825Y-11784674D02*
X16743396Y-11784674D01*
X16743396Y-11784674D02*
X16762444Y-11794198D01*
X16762444Y-11794198D02*
X16771967Y-11803722D01*
X16771967Y-11803722D02*
X16781491Y-11822769D01*
X16781491Y-11822769D02*
X16781491Y-11870388D01*
X16781491Y-11870388D02*
X16771967Y-11889436D01*
X16771967Y-11889436D02*
X16762444Y-11898960D01*
X16762444Y-11898960D02*
X16743396Y-11908484D01*
X16743396Y-11908484D02*
X16686253Y-11908484D01*
X16686253Y-11908484D02*
X16667206Y-11898960D01*
X16667206Y-11898960D02*
X16657682Y-11889436D01*
X16876729Y-11908484D02*
X16914825Y-11908484D01*
X16914825Y-11908484D02*
X16933872Y-11898960D01*
X16933872Y-11898960D02*
X16943396Y-11889436D01*
X16943396Y-11889436D02*
X16962444Y-11860865D01*
X16962444Y-11860865D02*
X16971968Y-11822769D01*
X16971968Y-11822769D02*
X16971968Y-11746579D01*
X16971968Y-11746579D02*
X16962444Y-11727531D01*
X16962444Y-11727531D02*
X16952920Y-11718008D01*
X16952920Y-11718008D02*
X16933872Y-11708484D01*
X16933872Y-11708484D02*
X16895777Y-11708484D01*
X16895777Y-11708484D02*
X16876729Y-11718008D01*
X16876729Y-11718008D02*
X16867206Y-11727531D01*
X16867206Y-11727531D02*
X16857682Y-11746579D01*
X16857682Y-11746579D02*
X16857682Y-11794198D01*
X16857682Y-11794198D02*
X16867206Y-11813246D01*
X16867206Y-11813246D02*
X16876729Y-11822769D01*
X16876729Y-11822769D02*
X16895777Y-11832293D01*
X16895777Y-11832293D02*
X16933872Y-11832293D01*
X16933872Y-11832293D02*
X16952920Y-11822769D01*
X16952920Y-11822769D02*
X16962444Y-11813246D01*
X16962444Y-11813246D02*
X16971968Y-11794198D01*
X17143396Y-11775150D02*
X17143396Y-11908484D01*
X17095777Y-11698960D02*
X17048158Y-11841817D01*
X17048158Y-11841817D02*
X17171968Y-11841817D01*
X17238634Y-11708484D02*
X17238634Y-11746579D01*
X17314825Y-11708484D02*
X17314825Y-11746579D01*
X17610063Y-11984674D02*
X17600539Y-11975150D01*
X17600539Y-11975150D02*
X17581491Y-11946579D01*
X17581491Y-11946579D02*
X17571968Y-11927531D01*
X17571968Y-11927531D02*
X17562444Y-11898960D01*
X17562444Y-11898960D02*
X17552920Y-11851341D01*
X17552920Y-11851341D02*
X17552920Y-11813246D01*
X17552920Y-11813246D02*
X17562444Y-11765627D01*
X17562444Y-11765627D02*
X17571968Y-11737055D01*
X17571968Y-11737055D02*
X17581491Y-11718008D01*
X17581491Y-11718008D02*
X17600539Y-11689436D01*
X17600539Y-11689436D02*
X17610063Y-11679912D01*
X17791015Y-11908484D02*
X17676730Y-11908484D01*
X17733872Y-11908484D02*
X17733872Y-11708484D01*
X17733872Y-11708484D02*
X17714825Y-11737055D01*
X17714825Y-11737055D02*
X17695777Y-11756103D01*
X17695777Y-11756103D02*
X17676730Y-11765627D01*
X17962444Y-11775150D02*
X17962444Y-11908484D01*
X17914825Y-11698960D02*
X17867206Y-11841817D01*
X17867206Y-11841817D02*
X17991015Y-11841817D01*
X18219587Y-11908484D02*
X18219587Y-11708484D01*
X18305301Y-11908484D02*
X18305301Y-11803722D01*
X18305301Y-11803722D02*
X18295777Y-11784674D01*
X18295777Y-11784674D02*
X18276730Y-11775150D01*
X18276730Y-11775150D02*
X18248158Y-11775150D01*
X18248158Y-11775150D02*
X18229111Y-11784674D01*
X18229111Y-11784674D02*
X18219587Y-11794198D01*
X18429111Y-11908484D02*
X18410063Y-11898960D01*
X18410063Y-11898960D02*
X18400539Y-11889436D01*
X18400539Y-11889436D02*
X18391015Y-11870388D01*
X18391015Y-11870388D02*
X18391015Y-11813246D01*
X18391015Y-11813246D02*
X18400539Y-11794198D01*
X18400539Y-11794198D02*
X18410063Y-11784674D01*
X18410063Y-11784674D02*
X18429111Y-11775150D01*
X18429111Y-11775150D02*
X18457682Y-11775150D01*
X18457682Y-11775150D02*
X18476730Y-11784674D01*
X18476730Y-11784674D02*
X18486253Y-11794198D01*
X18486253Y-11794198D02*
X18495777Y-11813246D01*
X18495777Y-11813246D02*
X18495777Y-11870388D01*
X18495777Y-11870388D02*
X18486253Y-11889436D01*
X18486253Y-11889436D02*
X18476730Y-11898960D01*
X18476730Y-11898960D02*
X18457682Y-11908484D01*
X18457682Y-11908484D02*
X18429111Y-11908484D01*
X18610063Y-11908484D02*
X18591015Y-11898960D01*
X18591015Y-11898960D02*
X18581492Y-11879912D01*
X18581492Y-11879912D02*
X18581492Y-11708484D01*
X18762444Y-11898960D02*
X18743396Y-11908484D01*
X18743396Y-11908484D02*
X18705301Y-11908484D01*
X18705301Y-11908484D02*
X18686253Y-11898960D01*
X18686253Y-11898960D02*
X18676730Y-11879912D01*
X18676730Y-11879912D02*
X18676730Y-11803722D01*
X18676730Y-11803722D02*
X18686253Y-11784674D01*
X18686253Y-11784674D02*
X18705301Y-11775150D01*
X18705301Y-11775150D02*
X18743396Y-11775150D01*
X18743396Y-11775150D02*
X18762444Y-11784674D01*
X18762444Y-11784674D02*
X18771968Y-11803722D01*
X18771968Y-11803722D02*
X18771968Y-11822769D01*
X18771968Y-11822769D02*
X18676730Y-11841817D01*
X18848158Y-11898960D02*
X18867206Y-11908484D01*
X18867206Y-11908484D02*
X18905301Y-11908484D01*
X18905301Y-11908484D02*
X18924349Y-11898960D01*
X18924349Y-11898960D02*
X18933873Y-11879912D01*
X18933873Y-11879912D02*
X18933873Y-11870388D01*
X18933873Y-11870388D02*
X18924349Y-11851341D01*
X18924349Y-11851341D02*
X18905301Y-11841817D01*
X18905301Y-11841817D02*
X18876730Y-11841817D01*
X18876730Y-11841817D02*
X18857682Y-11832293D01*
X18857682Y-11832293D02*
X18848158Y-11813246D01*
X18848158Y-11813246D02*
X18848158Y-11803722D01*
X18848158Y-11803722D02*
X18857682Y-11784674D01*
X18857682Y-11784674D02*
X18876730Y-11775150D01*
X18876730Y-11775150D02*
X18905301Y-11775150D01*
X18905301Y-11775150D02*
X18924349Y-11784674D01*
X19171968Y-11832293D02*
X19324349Y-11832293D01*
X19248158Y-11908484D02*
X19248158Y-11756103D01*
X19562444Y-11727531D02*
X19571968Y-11718008D01*
X19571968Y-11718008D02*
X19591015Y-11708484D01*
X19591015Y-11708484D02*
X19638635Y-11708484D01*
X19638635Y-11708484D02*
X19657682Y-11718008D01*
X19657682Y-11718008D02*
X19667206Y-11727531D01*
X19667206Y-11727531D02*
X19676730Y-11746579D01*
X19676730Y-11746579D02*
X19676730Y-11765627D01*
X19676730Y-11765627D02*
X19667206Y-11794198D01*
X19667206Y-11794198D02*
X19552920Y-11908484D01*
X19552920Y-11908484D02*
X19676730Y-11908484D01*
X19905301Y-11898960D02*
X19924349Y-11908484D01*
X19924349Y-11908484D02*
X19962444Y-11908484D01*
X19962444Y-11908484D02*
X19981492Y-11898960D01*
X19981492Y-11898960D02*
X19991016Y-11879912D01*
X19991016Y-11879912D02*
X19991016Y-11870388D01*
X19991016Y-11870388D02*
X19981492Y-11851341D01*
X19981492Y-11851341D02*
X19962444Y-11841817D01*
X19962444Y-11841817D02*
X19933873Y-11841817D01*
X19933873Y-11841817D02*
X19914825Y-11832293D01*
X19914825Y-11832293D02*
X19905301Y-11813246D01*
X19905301Y-11813246D02*
X19905301Y-11803722D01*
X19905301Y-11803722D02*
X19914825Y-11784674D01*
X19914825Y-11784674D02*
X19933873Y-11775150D01*
X19933873Y-11775150D02*
X19962444Y-11775150D01*
X19962444Y-11775150D02*
X19981492Y-11784674D01*
X20105301Y-11908484D02*
X20086254Y-11898960D01*
X20086254Y-11898960D02*
X20076730Y-11879912D01*
X20076730Y-11879912D02*
X20076730Y-11708484D01*
X20210063Y-11908484D02*
X20191016Y-11898960D01*
X20191016Y-11898960D02*
X20181492Y-11889436D01*
X20181492Y-11889436D02*
X20171968Y-11870388D01*
X20171968Y-11870388D02*
X20171968Y-11813246D01*
X20171968Y-11813246D02*
X20181492Y-11794198D01*
X20181492Y-11794198D02*
X20191016Y-11784674D01*
X20191016Y-11784674D02*
X20210063Y-11775150D01*
X20210063Y-11775150D02*
X20238635Y-11775150D01*
X20238635Y-11775150D02*
X20257682Y-11784674D01*
X20257682Y-11784674D02*
X20267206Y-11794198D01*
X20267206Y-11794198D02*
X20276730Y-11813246D01*
X20276730Y-11813246D02*
X20276730Y-11870388D01*
X20276730Y-11870388D02*
X20267206Y-11889436D01*
X20267206Y-11889436D02*
X20257682Y-11898960D01*
X20257682Y-11898960D02*
X20238635Y-11908484D01*
X20238635Y-11908484D02*
X20210063Y-11908484D01*
X20333873Y-11775150D02*
X20410063Y-11775150D01*
X20362444Y-11708484D02*
X20362444Y-11879912D01*
X20362444Y-11879912D02*
X20371968Y-11898960D01*
X20371968Y-11898960D02*
X20391016Y-11908484D01*
X20391016Y-11908484D02*
X20410063Y-11908484D01*
X20467206Y-11898960D02*
X20486254Y-11908484D01*
X20486254Y-11908484D02*
X20524349Y-11908484D01*
X20524349Y-11908484D02*
X20543397Y-11898960D01*
X20543397Y-11898960D02*
X20552920Y-11879912D01*
X20552920Y-11879912D02*
X20552920Y-11870388D01*
X20552920Y-11870388D02*
X20543397Y-11851341D01*
X20543397Y-11851341D02*
X20524349Y-11841817D01*
X20524349Y-11841817D02*
X20495777Y-11841817D01*
X20495777Y-11841817D02*
X20476730Y-11832293D01*
X20476730Y-11832293D02*
X20467206Y-11813246D01*
X20467206Y-11813246D02*
X20467206Y-11803722D01*
X20467206Y-11803722D02*
X20476730Y-11784674D01*
X20476730Y-11784674D02*
X20495777Y-11775150D01*
X20495777Y-11775150D02*
X20524349Y-11775150D01*
X20524349Y-11775150D02*
X20543397Y-11784674D01*
X20619587Y-11984674D02*
X20629111Y-11975150D01*
X20629111Y-11975150D02*
X20648158Y-11946579D01*
X20648158Y-11946579D02*
X20657682Y-11927531D01*
X20657682Y-11927531D02*
X20667206Y-11898960D01*
X20667206Y-11898960D02*
X20676730Y-11851341D01*
X20676730Y-11851341D02*
X20676730Y-11813246D01*
X20676730Y-11813246D02*
X20667206Y-11765627D01*
X20667206Y-11765627D02*
X20657682Y-11737055D01*
X20657682Y-11737055D02*
X20648158Y-11718008D01*
X20648158Y-11718008D02*
X20629111Y-11689436D01*
X20629111Y-11689436D02*
X20619587Y-11679912D01*
M02*
